<?xml version="1.0" standalone="no"?>
<!DOCTYPE svg PUBLIC "-//W3C//DTD SVG 20010904//EN"
 "http://www.w3.org/TR/2001/REC-SVG-20010904/DTD/svg10.dtd">
<svg version="1.0" xmlns="http://www.w3.org/2000/svg"
 width="740.000000pt" height="740.000000pt" viewBox="0 0 740.000000 740.000000"
 preserveAspectRatio="xMidYMid meet">
<metadata>
Created by potrace 1.14, written by Peter Selinger 2001-2017
</metadata>
<g transform="translate(0.000000,740.000000) scale(0.100000,-0.100000)"
fill="#000000" stroke="none">
<path d="M0 3700 l0 -3700 3700 0 3700 0 0 3700 0 3700 -3700 0 -3700 0 0
-3700z m3871 3316 c-5 -6 -7 -19 -6 -29 2 -9 -1 -14 -7 -11 -5 3 -7 9 -4 12 3
3 -1 13 -9 22 -13 14 -12 16 10 16 15 0 21 -4 16 -10z m-35 -31 c1 -8 -2 -13
-7 -9 -5 3 -9 -4 -9 -15 0 -12 5 -21 11 -21 5 0 8 -4 5 -9 -3 -5 2 -15 11 -22
14 -12 16 -12 8 1 -4 8 -4 12 0 7 14 -12 15 -39 4 -82 -6 -22 -17 -67 -25
-100 -10 -40 -17 -141 -20 -300 -3 -132 -9 -262 -14 -290 l-8 -50 -1 70 c-1
39 -10 142 -22 230 -26 196 -22 362 10 470 12 39 22 82 23 97 1 15 7 26 13 25
5 -1 9 5 7 13 -2 8 0 11 4 7 4 -4 9 -14 10 -22z m-306 -49 c-8 -8 -9 -5 -5 9
6 16 5 17 -4 5 -9 -13 -11 -13 -11 0 0 13 -1 13 -11 0 -9 -13 -10 -13 -6 0 2
8 10 14 16 13 6 -2 11 5 12 15 0 12 3 10 10 -7 6 -17 6 -28 -1 -35z m476 42
c5 -7 3 -8 -6 -3 -9 5 -11 4 -6 -4 4 -7 20 -10 35 -8 27 5 27 4 26 -47 -1 -28
-11 -69 -22 -91 -12 -22 -32 -97 -47 -168 -31 -155 -49 -193 -72 -155 -5 7 -3
8 6 3 8 -5 11 -3 8 6 -3 8 -10 13 -15 12 -5 -1 -10 17 -10 40 -1 23 -2 53 -3
67 -2 40 3 57 15 57 6 0 12 -12 12 -26 1 -22 0 -23 -6 -7 -7 19 -8 19 -13 -1
-4 -15 -1 -20 11 -18 11 1 16 13 17 36 1 19 7 63 14 99 7 36 14 94 17 130 6
74 22 106 39 78z m-523 -37 c-2 -29 0 -32 8 -18 6 10 15 14 22 10 7 -4 16 -8
22 -8 17 0 85 -219 99 -321 13 -92 14 -269 2 -282 -3 -3 0 -12 7 -20 6 -9 7
-13 1 -9 -21 13 -63 -326 -64 -513 0 -173 15 -313 75 -707 25 -164 44 -304 43
-313 -2 -8 -9 23 -16 70 -8 47 -34 191 -58 320 -97 503 -105 566 -105 845 0
121 3 231 6 245 10 47 7 285 -4 346 -6 34 -27 117 -46 185 -33 115 -58 242
-36 179 8 -22 9 -23 10 -4 1 24 6 31 24 31 9 0 12 -12 10 -36z m381 3 c3 -8 2
-12 -4 -9 -6 3 -10 10 -10 16 0 14 7 11 14 -7z m-913 -76 c37 -74 43 -94 50
-183 10 -110 25 -180 88 -390 38 -128 66 -275 51 -275 -3 0 -14 33 -24 72 -10
40 -43 136 -72 213 -74 195 -102 299 -109 402 -6 86 -21 190 -31 226 -12 39 7
12 47 -65z m-272 -77 c12 -77 40 -184 67 -255 18 -48 64 -239 63 -263 0 -10
-8 9 -18 42 -19 65 -49 138 -111 270 -41 87 -64 160 -74 233 -4 29 -3 41 4 37
5 -3 10 -2 10 2 0 5 11 9 24 9 22 0 25 -6 35 -75z m735 -92 c23 -68 38 -137
42 -190 4 -46 4 -82 1 -78 -4 3 -8 20 -9 38 -1 18 -7 35 -12 38 -5 4 -6 -6 -2
-23 l6 -29 -15 25 c-20 35 -19 50 6 45 12 -3 18 -1 15 3 -4 4 -11 6 -14 5 -4
-1 -12 3 -18 8 -12 10 -13 7 -18 -74 -4 -67 -11 -82 -14 -29 -5 84 -38 215
-83 330 -16 40 -29 74 -29 76 0 1 16 2 35 1 19 -2 38 2 42 8 9 14 22 -18 67
-154z m959 87 c-4 -7 -1 -7 8 1 12 10 20 9 38 -3 21 -15 22 -20 16 -132 -4
-65 -10 -120 -14 -125 -9 -9 -8 74 2 89 4 7 -2 11 -16 10 -17 -1 -21 4 -19 19
2 19 2 19 -9 2 -9 -15 -13 -16 -27 -5 -15 11 -15 11 -5 -3 7 -9 10 -19 6 -23
-13 -12 -11 -33 3 -33 7 0 11 4 9 8 -3 4 3 6 12 4 10 -1 17 -8 15 -15 -1 -7 3
-9 10 -4 7 4 9 3 5 -1 -11 -13 -36 -15 -43 -4 -4 6 -11 6 -19 -1 -12 -10 -13
7 -11 102 4 145 3 137 26 131 11 -3 17 -10 13 -17z m-1912 -67 c4 -13 7 -40 7
-59 1 -31 -1 -28 -18 25 -23 72 -23 68 -8 63 7 -3 15 -15 19 -29z m1941 -104
c2 3 5 -2 5 -10 0 -9 -4 -11 -11 -6 -6 5 -19 7 -29 6 -15 -3 -16 -1 -6 11 8
10 15 11 24 4 6 -5 14 -8 17 -5z m-2152 -32 c0 -13 -26 -82 -32 -89 -4 -3 -14
8 -23 26 -18 34 -17 37 17 56 28 15 38 17 38 7z m-158 -117 c40 -131 61 -171
180 -349 54 -82 114 -179 132 -215 30 -61 94 -223 83 -212 -3 3 -30 55 -61
115 -31 61 -82 144 -114 186 -31 42 -92 122 -135 179 -78 103 -123 181 -170
298 -24 58 -24 66 -4 63 4 0 7 6 7 15 0 8 5 12 10 9 6 -3 10 -2 10 3 0 5 7 9
15 9 11 0 25 -31 47 -101z m2870 54 c-5 -13 -4 -13 13 0 10 8 16 10 12 3 -4
-6 -3 -14 2 -17 5 -4 11 -1 14 6 2 7 3 5 2 -4 -2 -10 1 -21 7 -24 23 -14 -17
-226 -57 -307 -9 -18 -10 -26 -3 -19 17 17 35 15 67 -9 l28 -21 -27 -26 c-14
-15 -39 -59 -54 -99 -17 -46 -44 -91 -76 -127 -61 -70 -99 -125 -134 -194 -34
-67 -29 -77 9 -20 29 45 155 204 196 249 13 14 37 44 53 67 19 28 34 41 44 37
11 -4 12 -2 4 8 -9 10 -4 22 18 49 16 19 26 38 23 42 -3 3 -1 6 6 6 7 0 9 5 5
12 -5 7 -2 9 8 6 8 -4 15 0 15 8 0 7 -4 11 -9 8 -8 -5 0 24 12 41 9 12 37 100
45 138 12 65 16 81 24 96 5 9 6 23 3 31 -2 8 5 3 17 -12 11 -14 21 -30 21 -35
0 -4 -7 0 -14 10 -12 16 -14 16 -20 1 -3 -9 -4 -20 0 -25 3 -5 0 -9 -6 -9 -7
0 -5 -7 4 -16 9 -8 16 -23 16 -32 -1 -13 -5 -10 -16 8 -8 14 -13 17 -10 7 3
-10 1 -28 -5 -40 -9 -20 -9 -20 4 -5 17 22 31 11 14 -11 -10 -14 -10 -14 5 -3
11 9 15 24 13 48 -2 22 1 32 8 27 5 -3 8 -2 4 3 -3 5 1 20 9 34 l15 25 -7 -30
c-4 -16 -10 -46 -14 -65 -5 -19 -11 -46 -14 -60 -3 -14 -8 -37 -12 -53 -3 -15
-9 -25 -14 -22 -4 3 -6 -3 -3 -14 3 -10 0 -22 -6 -25 -6 -4 -11 -16 -11 -26 0
-10 -7 -25 -15 -34 -9 -8 -16 -18 -15 -21 1 -21 -1 -25 -10 -20 -6 3 -7 -1 -4
-9 3 -9 1 -16 -6 -16 -6 0 -9 -4 -6 -8 3 -5 -37 -65 -89 -133 -208 -272 -239
-315 -306 -417 -66 -100 -187 -336 -363 -704 -84 -177 -216 -422 -223 -415 -2
3 19 51 47 107 55 110 91 191 223 510 47 113 101 241 121 284 31 67 33 77 15
60 -20 -17 -19 -15 4 22 35 56 97 181 146 294 37 87 62 132 144 263 28 45 32
57 43 132 8 48 9 48 -55 -40 -27 -38 -54 -74 -58 -80 -48 -60 -73 -95 -68 -95
4 0 3 -6 -2 -12 -6 -7 -10 -21 -10 -31 1 -31 16 0 19 40 1 7 5 10 9 7 5 -2 5
-12 2 -21 -5 -12 -3 -14 8 -8 10 7 9 1 -3 -18 -10 -15 -25 -38 -34 -52 -9 -14
-21 -22 -27 -18 -6 3 -7 1 -3 -5 9 -15 -65 -143 -77 -135 -6 3 -7 1 -3 -5 9
-14 -14 -63 -27 -55 -6 3 -7 1 -3 -6 10 -16 -3 -53 -16 -45 -6 4 -8 2 -5 -3 9
-14 -27 -95 -38 -85 -5 4 -5 2 -2 -5 7 -11 -170 -527 -248 -723 -58 -149 -154
-342 -166 -334 -6 3 -19 -2 -30 -12 -19 -17 -19 -16 -13 17 3 19 30 97 59 174
52 138 89 250 220 660 88 273 143 414 216 553 51 98 130 226 149 242 3 3 34
49 69 103 100 155 158 293 177 417 3 19 8 44 11 55 4 11 6 29 5 40 l-2 20 9
-20 c4 -11 6 -27 3 -35z m-629 10 c-3 -12 -8 -19 -11 -16 -5 6 5 36 12 36 2 0
2 -9 -1 -20z m58 -3 c-10 -9 -11 -8 -5 6 3 10 9 15 12 12 3 -3 0 -11 -7 -18z
m692 -1 c9 1 15 -2 11 -7 -3 -5 0 -9 7 -9 8 0 8 -5 -2 -17 -7 -10 -2 -7 13 6
l26 23 -16 -62 c-9 -34 -18 -56 -20 -50 -2 6 1 24 7 41 9 28 9 30 -9 24 -12
-4 -20 -2 -20 5 0 6 -5 8 -12 4 -7 -4 -8 -3 -4 5 4 6 12 9 17 6 5 -4 9 -2 9 3
0 19 -14 21 -34 5 -12 -10 -16 -11 -9 -4 9 10 9 20 2 35 -9 18 -8 19 3 5 7 -9
21 -15 31 -13z m-1664 -71 c0 -5 -4 -3 -9 5 -5 8 -9 22 -9 30 0 16 17 -16 18
-35z m1831 0 c14 -19 14 -19 -2 -6 -10 7 -18 18 -18 24 0 6 1 8 3 6 1 -2 9
-13 17 -24z m-155 -5 c-3 -5 -12 -10 -18 -10 -7 0 -6 4 3 10 19 12 23 12 15 0z
m139 -60 c-6 -6 -10 -2 -11 12 -2 16 1 18 10 9 7 -7 8 -14 1 -21z m-846 -25
c-3 -3 -9 2 -12 12 -6 14 -5 15 5 6 7 -7 10 -15 7 -18z m1052 -5 c1 10 3 11 7
2 2 -6 8 -10 13 -7 14 8 -18 -99 -59 -198 -64 -158 -126 -238 -452 -578 -48
-51 -69 -78 -69 -89 0 -6 -6 -10 -14 -10 -8 0 -18 -5 -22 -12 -4 -7 -3 -8 4
-4 8 5 10 2 6 -8 -3 -9 -11 -13 -17 -9 -6 4 -7 1 -2 -7 4 -7 3 -15 -2 -19 -5
-3 -19 -23 -32 -44 -12 -20 -27 -35 -32 -32 -5 4 -6 -1 -3 -10 4 -9 0 -23 -9
-33 -8 -9 -29 -44 -47 -77 -18 -33 -44 -79 -56 -101 -13 -23 -20 -44 -17 -48
4 -3 1 -6 -6 -6 -7 0 -10 -4 -7 -9 4 -5 2 -11 -3 -13 -10 -4 -74 -128 -65
-128 3 0 -2 -7 -10 -16 -9 -8 -13 -20 -10 -26 4 -6 3 -8 -2 -5 -6 3 -19 -16
-29 -44 -11 -27 -23 -49 -28 -49 -4 0 -6 -4 -2 -9 3 -5 -2 -16 -10 -24 -8 -9
-15 -18 -15 -20 0 -17 -153 -274 -237 -397 -21 -30 -36 -55 -33 -55 3 0 -2 -8
-10 -17 -8 -9 -18 -14 -21 -12 -4 2 -10 -3 -13 -12 -5 -13 -9 -14 -20 -5 -16
13 -19 7 95 202 36 63 149 283 251 489 235 475 325 615 541 837 39 40 74 70
79 67 5 -3 7 -2 6 3 -4 14 23 54 33 48 5 -4 8 -1 7 7 -2 7 3 12 10 10 8 -1 11
2 8 6 -3 5 4 18 17 28 21 19 21 19 7 -1 -14 -19 -14 -19 3 -6 9 8 15 16 13 19
-10 9 15 43 26 36 7 -4 8 -3 4 5 -4 6 0 14 9 17 8 4 20 15 26 26 9 16 8 19 -3
13 -7 -4 -2 2 11 13 13 10 21 24 17 30 -3 6 -1 14 5 18 8 4 9 3 5 -4 -4 -7 -5
-12 -2 -12 8 0 61 116 85 190 13 36 27 78 33 93 l11 29 13 -24 c9 -15 14 -18
14 -8z m-3440 -79 c0 -14 1 -14 10 -1 9 13 14 7 11 -12 0 -5 5 -7 12 -5 6 1
11 -4 9 -11 -1 -8 2 -11 7 -8 12 8 42 -34 34 -47 -3 -6 -2 -7 4 -4 13 8 56
-41 48 -54 -4 -5 -2 -8 4 -7 6 2 21 -13 32 -32 19 -31 19 -32 2 -11 -18 21
-21 22 -26 6 -4 -9 -4 -22 -1 -28 4 -7 -9 3 -29 22 -20 19 -33 39 -30 44 3 6
2 7 -4 4 -13 -8 -94 79 -96 103 -1 10 -4 18 -7 17 -6 -2 -10 8 -10 26 0 8 4 7
10 -3 5 -8 10 -10 10 -5 -1 6 -8 19 -17 30 -10 13 -14 15 -10 4 3 -9 1 -22 -3
-30 -6 -9 -3 -20 7 -31 24 -27 6 -22 -33 10 -20 15 -34 35 -33 47 1 17 2 16 9
-5 6 -19 8 -20 9 -6 1 10 9 25 19 32 14 11 20 9 40 -8 12 -12 22 -29 22 -37z
m1674 23 c3 -8 2 -12 -4 -9 -6 3 -10 10 -10 16 0 14 7 11 14 -7z m-4 -30 c0
-8 -19 -13 -24 -6 -3 5 1 9 9 9 8 0 15 -2 15 -3z m673 -9 c-3 -9 -8 -14 -10
-11 -3 3 -2 9 2 15 9 16 15 13 8 -4z m-1526 -37 c-3 -8 -6 -5 -6 6 -1 11 2 17
5 13 3 -3 4 -12 1 -19z m841 6 c-4 -11 -28 -14 -28 -4 0 8 22 20 28 14 2 -1 2
-6 0 -10z m-222 -66 c-14 -95 -18 -169 -18 -291 0 -139 5 -202 27 -317 48
-255 56 -302 52 -306 -9 -9 -102 400 -113 496 -11 97 -12 314 -2 296 11 -19
24 -21 26 -3 0 6 3 37 6 67 4 37 3 48 -3 35 -7 -16 -9 -12 -8 17 2 44 4 46 18
16 9 -22 9 -21 6 5 -3 15 0 27 6 27 5 0 7 -17 3 -42z m226 33 c-9 -5 -12 -20
-9 -40 3 -17 2 -33 -2 -36 -4 -2 -7 -18 -6 -35 1 -17 -1 -33 -5 -35 -3 -2 -5
-24 -4 -49 1 -25 -1 -46 -4 -46 -11 0 -6 -305 7 -425 6 -60 23 -195 37 -300
14 -104 24 -199 21 -212 -2 -13 0 -23 4 -23 12 0 11 -42 -1 -60 -8 -11 -10 -8
-7 15 2 17 0 37 -4 45 -9 16 -51 299 -69 465 -6 55 -12 117 -15 138 -3 25 -1
36 6 31 7 -4 7 1 -1 15 -14 27 -11 200 4 220 8 11 8 13 -1 8 -8 -5 -10 14 -7
71 4 93 8 124 15 137 3 6 5 27 4 47 -1 21 3 34 8 31 6 -4 7 4 4 18 -5 20 -2
25 16 26 15 2 18 0 9 -6z m627 -54 c-20 -42 -37 -52 -56 -33 -4 4 -3 7 2 6 24
-5 33 2 50 40 10 22 20 38 22 36 2 -2 -6 -24 -18 -49z m-896 22 c-6 -6 -9 -18
-6 -25 3 -8 1 -14 -4 -14 -13 0 -12 33 1 42 17 11 21 9 9 -3z m856 -82 c5 1
-9 -36 -31 -83 -55 -118 -121 -326 -151 -474 -22 -109 -83 -513 -102 -683 -4
-32 -8 -57 -11 -55 -4 5 30 467 46 623 15 142 45 306 75 410 35 119 104 295
116 295 6 0 7 6 4 13 -4 6 5 -1 20 -18 14 -16 30 -29 34 -28z m-851 -22 c0
-16 -2 -15 -8 5 -11 34 -11 60 0 35 5 -11 8 -29 8 -40z m-1574 -50 c-4 -10 -2
-13 8 -10 19 7 80 -43 71 -57 -3 -6 -1 -8 5 -4 5 3 25 -13 43 -36 24 -32 27
-38 9 -23 -23 19 -23 20 -16 1 7 -19 6 -20 -14 -1 -11 10 -18 25 -15 32 2 8 1
12 -4 9 -12 -8 -33 19 -23 29 4 5 2 5 -4 2 -6 -4 -28 9 -49 27 -34 31 -35 35
-8 45 1 1 0 -6 -3 -14z m-515 -75 c46 -18 50 -18 44 -2 -6 15 -5 15 10 3 9 -7
17 -10 17 -6 0 10 182 -88 249 -135 89 -61 161 -143 282 -320 230 -340 308
-419 751 -759 130 -101 249 -198 264 -216 15 -19 32 -32 37 -28 6 3 8 2 5 -3
-3 -5 0 -15 8 -22 8 -7 14 -10 14 -7 0 14 48 -23 121 -92 43 -42 79 -83 79
-92 -1 -11 -4 -10 -13 7 -7 12 -16 19 -20 16 -4 -4 -7 1 -7 11 0 10 -3 15 -7
12 -9 -10 -44 24 -36 36 3 5 1 7 -5 3 -5 -3 -28 9 -49 28 -21 19 -61 52 -89
73 -147 111 -497 379 -549 419 -33 25 -117 97 -187 159 -118 104 -323 256
-402 298 -19 10 -83 58 -144 107 -61 49 -112 87 -114 84 -3 -2 -13 6 -24 18
l-19 23 25 -20 c13 -11 1 7 -27 40 -28 33 -62 78 -75 100 -42 67 -117 143
-179 181 -60 37 -73 49 -42 37 12 -5 14 -3 8 7 -5 9 -4 11 4 6 6 -4 8 -13 4
-19 -4 -7 1 -6 10 2 17 13 16 16 -9 43 -27 27 -27 28 -6 28 12 0 44 -9 71 -20z
m4846 -38 c-4 -20 7 -43 21 -45 5 -1 8 -6 6 -11 -2 -5 4 -6 12 -3 21 8 -34
-80 -100 -163 -68 -84 -120 -123 -290 -216 -76 -42 -171 -98 -209 -125 -90
-62 -338 -294 -404 -379 -89 -113 -169 -183 -245 -215 -31 -13 -36 -18 -26
-30 7 -8 17 -12 23 -8 6 4 7 1 3 -6 -6 -9 -12 -9 -24 2 -17 15 -46 12 -37 -3
3 -5 1 -11 -4 -14 -24 -15 -1 27 39 72 119 133 386 417 475 506 l100 99 -80
-58 c-44 -32 -113 -85 -152 -117 -50 -40 -73 -54 -73 -43 0 9 5 13 10 10 6 -3
10 -2 10 4 0 5 -4 13 -10 16 -5 3 -10 12 -10 18 0 7 5 4 11 -5 5 -10 15 -18
21 -18 9 0 9 3 0 12 -7 7 -12 19 -12 27 1 11 5 8 14 -7 11 -21 14 -22 25 -8 8
9 10 16 5 16 -5 0 -2 5 6 11 13 9 12 10 -2 5 -20 -6 -24 4 -7 21 8 8 8 13 0
18 -6 3 -11 3 -10 -2 4 -15 -13 -43 -23 -37 -5 3 -4 12 4 22 7 9 -2 5 -19 -8
-37 -27 -40 -32 -15 -24 13 5 14 4 3 -4 -8 -6 -20 -8 -28 -5 -8 3 -13 0 -11
-8 2 -8 -3 -13 -10 -11 -10 2 -12 -4 -7 -20 7 -23 7 -23 -10 -3 -14 16 -16 17
-11 3 3 -11 0 -17 -7 -15 -7 1 -11 -6 -9 -17 3 -15 1 -16 -12 -5 -14 12 -10
20 37 62 89 82 227 191 352 277 66 45 133 93 148 106 16 13 34 21 40 17 7 -3
9 -2 4 2 -8 10 41 65 57 65 6 0 3 -5 -6 -11 -10 -5 -15 -17 -12 -27 5 -14 4
-15 -5 -2 -11 15 -12 13 -15 -27 0 -13 5 -17 19 -15 16 3 17 1 6 -11 -14 -18
-1 -30 19 -16 13 7 13 9 0 9 -8 0 -2 7 14 15 44 23 42 19 -15 -37 -53 -51 -54
-51 -14 -28 197 115 276 181 369 313 26 37 52 67 57 67 5 0 8 3 8 8 -2 11 1
22 5 22 3 0 3 -8 1 -18z m-1769 -52 l27 -11 -20 -22 c-11 -12 -33 -42 -49 -65
-27 -42 -28 -51 -35 -207 -8 -187 -9 -190 -123 -388 -106 -186 -182 -421 -185
-572 -2 -96 -13 -140 -49 -200 -52 -85 -52 -69 -1 190 61 308 136 552 200 645
9 14 29 63 43 108 22 70 27 107 29 220 4 159 19 204 87 271 23 23 44 41 46 41
1 0 15 -5 30 -10z m380 -28 c-10 -11 -16 -12 -16 -4 0 7 5 12 10 12 6 0 10 8
11 18 0 11 2 13 6 4 3 -8 -2 -21 -11 -30z m-2051 18 c3 -5 1 -10 -4 -10 -6 0
-11 5 -11 10 0 6 2 10 4 10 3 0 8 -4 11 -10z m13 -42 c10 -12 10 -18 1 -24 -7
-4 -9 -3 -5 4 3 6 2 13 -4 17 -5 3 -10 11 -10 17 0 6 1 9 3 7 1 -2 8 -11 15
-21z m-707 -11 c-10 -9 -11 -8 -5 6 3 10 9 15 12 12 3 -3 0 -11 -7 -18z m768
-64 c-4 -21 2 -56 8 -50 7 7 33 -11 33 -23 0 -4 -7 -11 -16 -14 -10 -4 -13 -2
-8 6 5 7 3 8 -6 3 -9 -6 -11 -4 -5 5 5 9 4 11 -4 6 -6 -4 -9 -11 -6 -16 3 -5
1 -11 -5 -15 -9 -5 -15 15 -11 38 0 4 -3 7 -9 7 -5 0 -7 7 -4 15 4 8 1 15 -5
15 -6 0 -8 7 -5 15 4 8 1 15 -5 15 -6 0 -11 7 -11 15 0 8 5 15 10 15 6 0 9 -3
8 -7 -2 -5 2 -9 7 -10 6 -1 9 6 7 15 -2 12 1 11 13 -5 8 -12 15 -26 14 -30z
m-713 -1 c-3 -3 6 -18 19 -34 14 -16 23 -34 19 -39 -3 -5 2 -12 10 -15 9 -3
16 -10 16 -15 0 -6 8 -22 19 -37 10 -15 53 -79 94 -142 121 -183 282 -373 512
-604 130 -131 157 -161 148 -170 -4 -3 -1 -6 5 -6 7 0 12 -5 12 -11 0 -27
-450 412 -572 558 -121 145 -245 341 -234 370 3 8 2 12 -3 9 -9 -6 -21 14 -27
43 -1 8 -9 18 -16 22 -10 7 -9 9 5 9 9 0 17 4 17 10 0 5 -6 7 -13 4 -15 -5
-44 23 -34 33 4 3 -1 12 -11 20 -9 8 -11 12 -4 8 6 -3 12 -1 12 6 0 8 4 8 15
-1 9 -7 13 -15 11 -18z m4227 -22 c-18 -16 -33 -33 -33 -37 0 -4 -10 -18 -22
-31 l-23 -25 22 12 c16 8 24 8 29 -1 4 -7 3 -8 -4 -4 -16 9 -16 -16 0 -32 15
-15 -108 -177 -211 -274 -84 -80 -170 -129 -413 -237 -161 -71 -270 -130 -393
-216 -101 -71 -122 -87 -296 -235 -67 -58 -155 -131 -193 -163 -66 -55 -68
-56 -21 -10 168 163 437 391 590 499 103 74 188 124 433 260 188 103 250 155
357 301 86 117 181 222 200 222 6 0 -5 -13 -22 -29z m-2806 -42 c-3 -8 -6 -5
-6 6 -1 11 2 17 5 13 3 -3 4 -12 1 -19z m-507 -42 c0 -77 22 -128 91 -215 78
-96 113 -172 134 -286 47 -260 65 -315 184 -573 58 -125 79 -192 61 -192 -14
0 -41 45 -106 170 -32 63 -62 117 -67 118 -4 2 -5 8 -1 13 3 5 0 9 -6 9 -6 0
-8 5 -5 10 3 6 1 10 -5 10 -6 0 -8 5 -5 10 3 6 1 10 -5 10 -6 0 -8 5 -5 10 3
6 1 10 -5 10 -6 0 -9 4 -6 8 3 5 -10 33 -28 63 -17 30 -35 62 -39 72 -4 10
-56 102 -115 205 -136 232 -144 250 -136 264 4 7 3 8 -4 4 -12 -7 -108 171
-98 181 3 3 -2 12 -10 20 -8 8 -12 19 -9 24 4 5 1 9 -5 9 -7 0 -10 7 -6 15 3
8 1 15 -4 15 -5 0 -7 6 -4 13 4 12 54 19 51 8 -1 -4 5 -17 12 -30 10 -18 10
-26 1 -35 -9 -8 -11 -7 -10 4 1 8 2 22 1 30 -1 13 -3 13 -12 0 -9 -13 -10 -12
-5 3 4 12 2 16 -6 11 -7 -5 -8 -3 -3 6 5 9 4 11 -4 6 -9 -6 -8 -14 4 -32 9
-14 13 -29 10 -35 -4 -5 -3 -8 2 -7 4 2 9 -1 11 -7 2 -5 10 -17 18 -26 8 -9
11 -19 8 -22 -4 -4 -2 -13 4 -20 7 -8 10 -16 7 -19 -3 -3 1 -11 9 -17 10 -8
16 -9 21 -1 4 6 1 9 -7 8 -8 -2 -13 6 -12 19 1 13 -3 20 -9 16 -6 -4 -8 0 -4
9 3 9 0 21 -6 27 -14 14 -18 41 -6 41 5 0 9 -6 9 -14 0 -8 3 -16 8 -18 13 -6
72 -129 66 -139 -3 -5 0 -9 5 -9 6 0 24 -28 41 -62 17 -35 25 -55 17 -46 -8
10 -18 14 -22 10 -5 -4 -5 -1 0 7 6 10 4 12 -5 6 -10 -6 -12 -4 -6 11 5 13 4
16 -3 9 -13 -13 -2 -57 12 -48 5 3 7 1 4 -5 -4 -5 11 -45 34 -89 47 -89 200
-353 205 -353 1 0 -3 21 -11 48 -8 26 -26 110 -40 187 -29 162 -56 225 -141
330 -74 93 -96 137 -102 212 -4 59 -3 63 19 72 38 15 39 14 39 -43z m2820 27
c20 -26 20 -28 3 -34 -10 -4 -36 -8 -58 -8 -27 -1 -36 -4 -26 -10 10 -7 7 -9
-11 -8 -13 1 -25 7 -25 14 0 7 3 11 6 10 3 -1 20 13 38 31 38 39 46 39 73 5z
m-4346 -35 c-5 -7 -2 -9 9 -5 11 4 20 -3 31 -23 l14 -30 -34 26 c-28 22 -37
44 -18 44 3 0 2 -5 -2 -12z m-451 -73 c-3 -9 -8 -14 -10 -11 -3 3 -2 9 2 15 9
16 15 13 8 -4z m129 -21 c56 -19 146 -56 198 -80 94 -45 96 -47 330 -282 202
-204 251 -248 350 -314 63 -42 144 -91 179 -110 36 -18 71 -39 79 -45 20 -19
127 -80 287 -163 243 -127 540 -308 560 -341 4 -5 -38 19 -92 54 -54 35 -147
90 -208 123 -105 56 -592 294 -602 294 -2 0 -23 13 -46 29 -78 53 -259 151
-268 145 -5 -3 -8 -1 -7 4 2 5 -33 37 -77 72 -44 36 -147 130 -230 211 -217
213 -256 241 -450 323 -60 26 -122 52 -137 59 -32 14 -38 28 -9 20 13 -3 21 2
26 16 3 12 8 21 10 21 2 0 50 -16 107 -36z m2542 -30 c3 -8 2 -12 -4 -9 -6 3
-10 10 -10 16 0 14 7 11 14 -7z m-2740 -43 c22 -12 57 -42 78 -66 21 -24 73
-68 116 -98 73 -52 134 -107 118 -107 -4 0 -22 11 -40 25 -17 13 -67 40 -110
60 -43 20 -103 53 -133 75 -30 21 -67 42 -83 45 -48 11 -55 28 -28 74 17 31
25 38 33 28 6 -7 28 -23 49 -36z m5437 14 c5 4 6 -2 2 -11 -5 -13 -3 -15 8 -9
16 10 -79 -103 -150 -178 -25 -27 -72 -69 -103 -93 -68 -53 -234 -134 -386
-189 -138 -50 -304 -134 -439 -223 -13 -8 -23 -11 -23 -8 0 19 271 179 488
290 136 69 276 148 312 175 36 27 112 97 170 155 58 59 106 102 108 96 2 -6 8
-8 13 -5z m-2686 -44 c0 -16 -3 -27 -7 -25 -6 4 -5 29 1 52 4 11 7 -3 6 -27z
m-2838 -171 c22 -16 97 -59 165 -96 119 -64 266 -161 291 -193 6 -8 -8 -3 -33
12 -43 27 -81 45 -356 177 -117 57 -203 118 -176 127 6 3 12 14 12 25 0 19 0
19 28 -1 15 -12 46 -35 69 -51z m2650 -22 c-3 -8 -6 -5 -6 6 -1 11 2 17 5 13
3 -3 4 -12 1 -19z m333 -40 c0 -24 1 -54 0 -66 0 -16 7 -26 20 -29 24 -6 24
-15 5 -68 -9 -27 -14 -84 -15 -176 0 -94 -5 -150 -15 -178 -8 -24 -20 -82 -27
-129 -6 -48 -14 -90 -17 -94 -3 -4 -7 149 -8 340 -1 191 -4 365 -7 387 -2 22
-2 34 1 27 2 -6 10 -9 15 -6 7 5 8 2 3 -6 -6 -10 -4 -12 9 -7 10 4 20 7 22 7
2 0 4 9 4 20 0 39 9 19 10 -22z m1405 32 c3 -5 1 -10 -4 -10 -6 0 -11 5 -11
10 0 6 2 10 4 10 3 0 8 -4 11 -10z m-1728 -32 c-3 -8 -6 -5 -6 6 -1 11 2 17 5
13 3 -3 4 -12 1 -19z m-1540 -48 c-1 -10 -5 -16 -9 -14 -5 3 -6 10 -2 15 3 6
-5 23 -17 37 l-24 27 27 -24 c15 -13 26 -31 25 -41z m3200 45 c0 -8 -4 -12 -9
-9 -4 3 -9 -5 -9 -18 -1 -18 -2 -19 -6 -5 -3 10 1 24 7 32 15 19 17 19 17 0z
m-2528 -82 c2 -2 2 -5 0 -8 -3 -2 -25 17 -50 43 l-44 47 45 -40 c25 -22 47
-41 49 -42z m-336 3 l6 -39 -29 28 c-28 27 -29 30 -13 47 20 23 29 14 36 -36z
m338 37 c13 -16 12 -17 -3 -4 -10 7 -18 15 -18 17 0 8 8 3 21 -13z m-711 -18
c0 4 7 2 15 -5 8 -7 13 -16 10 -20 -3 -5 -1 -11 4 -14 9 -6 25 30 21 49 -1 6
23 -13 52 -41 29 -28 78 -70 108 -95 30 -24 57 -46 60 -49 10 -11 271 -201
479 -349 197 -140 441 -330 471 -366 36 -44 -38 3 -149 93 -31 25 -220 154
-421 287 -392 260 -642 451 -642 492 0 4 -4 7 -8 6 -4 -1 -16 8 -26 20 l-19
22 23 -19 c12 -11 22 -16 22 -11z m4621 -5 c11 -30 10 -47 -3 -42 -5 1 -7 -2
-5 -7 5 -19 -189 -162 -293 -214 -41 -21 -64 -35 -50 -31 66 18 176 87 302
190 90 73 163 116 143 84 -3 -5 0 -10 7 -10 9 0 9 -3 -2 -10 -13 -8 -12 -10 3
-10 11 0 15 -4 11 -12 -4 -6 0 -16 9 -23 14 -10 2 -23 -81 -96 -176 -153 -242
-199 -347 -241 -83 -33 -480 -128 -534 -128 -67 0 -141 -25 -170 -58 -13 -15
-20 -20 -15 -12 4 8 -3 6 -17 -6 -30 -27 -353 -190 -393 -199 -15 -3 -26 -9
-22 -12 9 -9 -225 -142 -429 -243 -178 -88 -340 -157 -329 -139 3 5 -1 9 -9 9
-8 0 -18 7 -21 16 -4 11 -2 15 7 11 8 -3 14 1 14 9 0 7 -5 10 -10 7 -5 -3 -8
0 -5 7 2 8 74 52 159 98 85 47 307 177 494 289 317 190 565 323 660 353 22 7
46 17 53 23 6 5 12 6 12 3 0 -4 10 -1 22 5 12 7 101 38 198 71 96 32 216 79
266 103 80 38 222 136 319 219 38 33 44 32 56 -4z m-5749 0 c29 -11 91 -49
138 -85 202 -156 303 -212 609 -336 108 -44 252 -109 321 -143 119 -61 322
-175 309 -176 -3 0 -48 22 -100 49 -113 60 -311 141 -549 226 -302 107 -369
140 -560 269 -116 79 -180 113 -263 140 -13 4 -17 13 -13 33 2 16 5 31 5 36 2
13 49 7 103 -13z m4271 6 c4 -10 16 -13 34 -11 15 2 22 2 16 -1 -7 -3 -13 -16
-13 -29 0 -12 -7 -28 -15 -35 -8 -7 -15 -9 -15 -6 0 4 -13 -1 -30 -11 -16 -9
-30 -21 -30 -26 0 -5 11 -2 25 7 32 21 32 17 -3 -16 -21 -20 -32 -24 -43 -16
-11 8 -11 9 4 4 9 -3 17 -1 17 4 0 6 -7 10 -15 10 -12 0 -12 3 3 18 9 11 20
17 24 15 13 -7 19 18 8 32 -18 21 -35 19 -19 -2 7 -10 10 -15 5 -11 -5 4 -17
3 -28 -3 -17 -9 -18 -8 -9 10 18 32 31 35 56 11 14 -13 25 -17 29 -11 4 5 -3
15 -14 21 -11 6 -17 16 -14 22 5 7 12 5 21 -7 10 -15 13 -15 13 -4 0 30 -22
40 -44 21 -21 -17 -21 -17 -2 6 22 26 32 28 39 8z m-2398 -26 c10 -11 16 -20
13 -20 -3 0 -13 9 -23 20 -10 11 -16 20 -13 20 3 0 13 -9 23 -20z m2755 16 c0
-2 -8 -10 -17 -17 -16 -13 -17 -12 -4 4 13 16 21 21 21 13z m-2484 -53 c3 -16
12 -48 20 -72 20 -64 18 -63 -26 6 -43 67 -47 79 -27 86 23 10 27 7 33 -20z
m-180 -6 c8 3 14 1 14 -5 0 -6 13 -23 28 -39 64 -66 182 -209 182 -222 0 -22
51 -83 65 -78 8 4 12 -3 11 -16 -1 -13 4 -21 12 -19 6 1 11 -1 11 -5 -3 -21 2
-34 11 -28 6 4 7 11 4 17 -4 7 -2 8 5 4 8 -6 9 -11 2 -20 -17 -20 21 -60 39
-43 12 10 12 9 2 -5 -8 -10 -9 -19 -3 -22 5 -3 12 0 15 6 3 7 3 2 0 -11 -4
-15 -2 -21 4 -17 6 3 14 1 18 -5 5 -8 3 -9 -6 -4 -9 5 -11 4 -6 -4 6 -9 11 -9
24 1 9 7 13 8 9 2 -3 -6 7 -24 23 -39 18 -17 30 -39 30 -54 0 -18 3 -22 9 -13
6 10 12 7 24 -11 12 -19 13 -27 4 -36 -9 -9 -7 -11 8 -5 16 5 18 4 8 -6 -6 -7
-9 -19 -6 -26 11 -30 -8 -11 -46 45 -27 40 -38 65 -34 80 3 12 1 21 -6 21 -5
0 -8 -7 -5 -15 12 -31 -5 -13 -58 57 -29 40 -122 155 -206 256 -84 101 -150
187 -147 192 3 5 0 12 -6 16 -8 5 -9 3 -4 -7 8 -12 6 -12 -8 0 -10 7 -16 21
-15 30 2 8 -3 16 -11 16 -8 0 -15 6 -17 13 -1 7 0 8 2 3 3 -6 12 -7 20 -4z
m2543 -20 c-13 -13 -26 -21 -29 -19 -5 4 38 42 48 42 3 0 -6 -10 -19 -23z
m-340 -48 c-8 -4 -4 -9 10 -14 11 -3 21 -10 21 -14 0 -12 -47 -60 -53 -54 -8
8 4 34 13 28 5 -3 11 -1 15 5 3 5 -1 10 -9 10 -16 0 -17 24 -3 48 5 6 4 12 -2
12 -14 0 -29 -32 -23 -49 3 -9 0 -11 -8 -6 -8 5 -11 4 -6 -3 4 -7 -1 -10 -14
-7 -13 3 -18 0 -14 -7 5 -7 2 -8 -6 -3 -9 5 -11 4 -6 -4 6 -9 11 -9 22 0 13
10 14 8 10 -14 -2 -15 0 -30 6 -33 6 -4 8 -2 4 4 -3 6 -2 13 4 17 11 7 13 -5
4 -29 -3 -9 -10 -13 -15 -10 -5 3 -9 0 -9 -6 0 -20 -160 -204 -223 -256 -34
-28 -61 -56 -60 -62 2 -7 -4 -9 -14 -5 -12 5 -15 2 -10 -10 4 -11 2 -14 -8
-11 -9 4 -21 -6 -32 -24 -10 -16 -21 -30 -26 -30 -13 -3 -67 -55 -67 -65 0 -6
8 -1 18 9 9 10 37 33 62 50 64 43 74 49 66 36 -10 -16 5 -15 26 2 10 7 14 16
10 20 -4 4 0 6 8 4 8 -1 14 3 15 11 0 8 8 15 17 17 26 3 167 108 161 119 -3 5
0 4 7 -2 12 -11 11 -15 -2 -25 -161 -128 -291 -217 -272 -187 4 7 -19 -12 -50
-42 -32 -30 -63 -53 -69 -51 -7 2 -9 0 -4 -4 10 -10 -53 -75 -66 -67 -6 3 -7
2 -4 -4 3 -5 -19 -34 -51 -64 -31 -30 -48 -44 -38 -31 28 33 14 27 -20 -10
-16 -17 -22 -27 -14 -23 10 5 12 5 5 -2 -5 -6 -19 -14 -31 -17 -45 -14 -18 32
90 149 60 66 154 176 209 245 54 69 106 134 116 145 9 11 45 56 81 100 94 115
93 114 102 109 5 -3 8 -2 7 3 -3 20 2 34 11 28 6 -4 8 -10 5 -15 -3 -5 -1 -11
4 -15 6 -3 8 6 5 21 -5 27 12 58 27 48 5 -3 13 3 17 13 4 10 16 30 27 45 19
25 20 25 28 5 5 -13 3 -23 -4 -28z m36 41 c-3 -5 -12 -10 -18 -10 -7 0 -6 4 3
10 19 12 23 12 15 0z m-210 -77 c-36 -46 -65 -72 -65 -57 0 11 92 116 97 110
2 -2 -12 -26 -32 -53z m-2020 27 c10 -11 16 -20 13 -20 -3 0 -13 9 -23 20 -10
11 -16 20 -13 20 3 0 13 -9 23 -20z m2475 16 c0 -2 -19 -19 -42 -36 l-43 -32
40 36 c40 36 45 39 45 32z m-1776 -48 c-3 -5 0 -8 6 -8 6 0 9 -4 6 -9 -4 -5
-1 -22 5 -37 5 -16 17 -60 25 -99 11 -56 47 -194 90 -347 3 -10 1 -18 -5 -18
-6 0 -18 26 -26 58 -33 118 -56 197 -62 212 -11 28 -38 137 -46 185 -3 17 -8
48 -12 70 -7 37 -6 39 8 20 8 -11 13 -23 11 -27z m-671 -11 c4 3 7 4 7 0 0
-17 -20 -14 -36 6 -19 22 -19 22 2 4 11 -9 24 -14 27 -10z m2137 -7 c-6 -11
-13 -20 -16 -20 -2 0 0 9 6 20 6 11 13 20 16 20 2 0 0 -9 -6 -20z m-2099 -27
c12 -16 12 -17 -2 -6 -9 7 -20 9 -24 5 -5 -4 -5 -1 -1 6 9 16 11 15 27 -5z
m35 -55 l29 -33 -32 29 c-31 28 -38 36 -30 36 2 0 16 -15 33 -32z m-1342 -43
c18 -14 71 -38 118 -53 47 -16 103 -42 125 -58 22 -16 70 -51 107 -77 42 -31
132 -77 247 -127 180 -78 311 -150 372 -203 31 -26 30 -26 -28 6 -96 52 -171
86 -310 139 -149 56 -252 109 -345 178 -88 64 -116 77 -193 90 -84 13 -106 22
-135 53 -20 21 -21 27 -11 51 7 14 14 26 16 26 3 0 19 -11 37 -25z m1411 -25
c10 -11 16 -20 13 -20 -3 0 -13 9 -23 20 -10 11 -16 20 -13 20 3 0 13 -9 23
-20z m992 -42 c-3 -8 -6 -5 -6 6 -1 11 2 17 5 13 3 -3 4 -12 1 -19z m1028 2
c-3 -5 -12 -10 -18 -10 -7 0 -6 4 3 10 19 12 23 12 15 0z m-1268 -32 c-3 -8
-6 -5 -6 6 -1 11 2 17 5 13 3 -3 4 -12 1 -19z m1144 -21 c-6 -8 -9 -17 -6 -20
3 -4 2 -5 -2 -2 -3 3 -13 -1 -22 -7 -9 -7 -5 0 8 15 25 27 43 39 22 14z
m-2586 -67 c-3 -4 0 -11 5 -13 6 -3 5 -4 -2 -3 -7 1 -15 11 -16 21 -3 11 0 15
7 10 6 -3 9 -10 6 -15z m-1337 1 c6 0 12 -5 12 -10 0 -12 -33 -9 -43 4 -5 6
-7 3 -4 -7 3 -9 -1 -22 -9 -29 -13 -10 -14 -9 -11 12 4 22 1 24 -33 24 -21 1
-37 -2 -34 -6 2 -4 0 -10 -6 -14 -5 -3 -10 -11 -10 -18 0 -6 7 -2 16 9 12 15
14 15 11 2 -6 -16 8 -19 31 -5 6 5 12 6 12 3 0 -2 3 -13 7 -23 5 -14 4 -16 -8
-8 -8 6 -27 10 -44 9 -51 -4 -66 4 -53 26 7 10 16 16 22 13 5 -4 6 -1 1 7 -6
10 -11 9 -22 -5 -12 -17 -18 -13 -14 8 1 5 -3 6 -9 2 -5 -3 -10 -2 -10 4 0 9
112 10 198 2z m2160 -106 c51 -55 113 -127 138 -160 l46 -60 -48 50 c-142 148
-224 240 -224 251 0 7 -5 15 -10 17 -6 3 -7 5 -2 4 4 -1 50 -47 100 -102z
m3759 88 c6 4 19 0 29 -8 16 -11 17 -16 6 -27 -11 -11 -12 -10 -9 2 2 8 2 12
0 7 -3 -4 -8 -5 -13 -2 -7 4 -7 -4 -1 -34 1 -2 12 4 25 13 29 18 40 9 21 -17
-10 -14 -14 -15 -19 -5 -3 7 -4 -2 -1 -20 2 -19 1 -31 -3 -27 -7 6 -8 10 -11
36 -2 18 -31 -11 -30 -30 0 -12 2 -12 8 3 7 19 8 19 13 -2 4 -12 2 -20 -3 -16
-5 3 -9 -1 -9 -8 -1 -7 -7 -2 -15 12 -8 14 -14 20 -15 15 0 -6 -10 -11 -21
-12 -31 -3 -45 -19 -30 -37 10 -12 -2 -22 -71 -64 -212 -127 -260 -140 -592
-152 -395 -16 -525 -43 -988 -206 -150 -53 -307 -107 -348 -121 -41 -14 -78
-28 -82 -32 -4 -3 38 -4 94 -3 61 3 98 0 95 -6 -4 -5 -64 -12 -134 -15 -85 -4
-163 -15 -231 -32 -57 -14 -113 -25 -125 -25 -20 0 -19 2 8 18 17 10 52 24 80
31 78 20 327 114 491 187 613 271 771 317 1159 339 255 15 364 50 574 187 66
43 89 53 114 49 4 0 7 5 7 12 0 9 3 8 9 -2 5 -7 13 -11 18 -8z m-5997 -4 c0
-15 -18 -19 -23 -6 -3 8 1 14 9 14 8 0 14 -4 14 -8z m211 -10 c35 -11 168 -74
295 -140 195 -100 379 -181 446 -194 9 -2 25 -8 35 -13 10 -5 26 -8 35 -7 10
2 17 0 17 -3 -1 -4 -1 -14 1 -22 1 -11 4 -9 9 4 6 16 10 11 19 -27 7 -26 15
-47 17 -47 6 0 1 33 -10 73 -5 17 -4 19 4 6 5 -8 12 -28 15 -44 3 -15 10 -33
17 -39 9 -8 9 -6 1 10 -8 15 -8 24 1 34 9 10 9 11 0 6 -9 -5 -13 0 -13 14 0
16 5 20 18 16 9 -3 63 -17 120 -31 57 -14 119 -34 139 -45 35 -18 65 -23 206
-35 51 -4 85 -14 135 -40 47 -25 58 -34 37 -30 -74 12 -339 45 -342 42 -2 -2
22 -9 53 -16 31 -7 70 -19 88 -27 l31 -15 -30 6 c-16 4 -70 13 -119 21 -49 8
-109 23 -133 34 -24 10 -77 24 -119 29 -41 6 -83 15 -92 20 -9 4 -22 7 -27 5
-6 -2 -16 10 -23 28 -6 17 -14 29 -18 26 -3 -4 0 -16 6 -28 10 -19 9 -21 -15
-17 -26 3 -45 21 -45 42 0 6 4 4 9 -3 15 -25 20 11 5 39 -8 15 -14 18 -14 9
-1 -10 -4 -9 -10 5 -8 18 -9 18 -9 2 -1 -10 -6 -15 -11 -12 -6 4 -7 11 -4 17
4 7 2 8 -4 4 -7 -4 -12 -2 -12 4 0 8 -4 7 -13 -2 -12 -12 -18 -67 -7 -66 3 0
7 -1 10 -2 25 -9 38 -6 33 8 -3 13 -1 13 11 -2 24 -30 20 -35 -26 -25 -91 20
-198 61 -198 75 0 9 4 13 9 10 12 -8 8 21 -6 35 -7 7 -16 4 -29 -8 -11 -10
-14 -14 -7 -9 9 6 18 4 26 -4 9 -9 9 -11 0 -6 -6 3 -15 1 -19 -5 -4 -8 -3 -9
4 -5 7 4 12 2 12 -4 0 -7 -8 -9 -22 -4 -42 13 -194 92 -329 172 -74 43 -153
87 -176 97 -38 17 -42 21 -40 53 1 21 -3 37 -11 39 -9 4 -11 -6 -8 -34 2 -21
2 -32 -1 -24 -5 11 -7 11 -14 0 -7 -11 -9 -11 -9 -1 0 7 -5 10 -12 6 -6 -4 -9
-3 -5 2 3 5 -1 18 -9 29 -8 10 -14 13 -14 6 0 -7 -5 -9 -12 -5 -7 4 -8 3 -4
-5 4 -6 12 -9 17 -6 5 4 9 -1 9 -10 0 -12 -4 -14 -19 -6 -10 6 -21 7 -25 4 -3
-3 -6 -2 -6 4 0 17 31 38 56 38 16 1 20 -2 13 -11 -6 -8 -4 -16 8 -25 14 -12
16 -12 11 1 -6 17 8 50 21 50 4 0 37 -9 72 -21z m3943 -58 c-117 -94 -175
-145 -154 -136 8 4 6 0 -4 -9 -10 -8 -23 -13 -29 -9 -6 3 -7 1 -4 -4 4 -6 -14
-25 -41 -42 -26 -17 -60 -42 -77 -56 -46 -38 -47 -39 -100 -75 -51 -35 -65
-45 -90 -67 -7 -7 -18 -13 -24 -13 -6 0 -11 -4 -11 -10 0 -5 -6 -10 -14 -10
-7 0 -25 -11 -39 -24 -14 -13 -28 -21 -31 -19 -3 3 -8 -2 -12 -11 -3 -9 -10
-13 -15 -10 -5 3 -9 0 -9 -6 0 -6 -4 -8 -10 -5 -5 3 -10 1 -10 -6 0 -7 -3 -9
-6 -6 -4 3 -16 1 -28 -5 -42 -22 5 22 61 58 29 19 53 39 53 44 0 6 4 9 8 6 5
-3 18 5 29 17 10 12 34 33 53 47 18 14 38 30 44 35 6 6 67 53 136 105 69 52
127 98 128 102 7 16 21 7 15 -9 -6 -15 -5 -16 9 -3 9 8 14 18 11 22 -2 4 2 6
9 3 7 -2 63 36 123 85 61 49 114 89 119 89 4 1 -36 -35 -90 -78z m-4318 43 c1
-9 0 -13 -4 -10 -3 4 -7 14 -8 22 -1 9 0 13 4 10 3 -4 7 -14 8 -22z m-29 1 c0
-8 -4 -12 -9 -9 -5 3 -6 10 -3 15 9 13 12 11 12 -6z m1658 -13 c-3 -3 -11 0
-18 7 -9 10 -8 11 6 5 10 -3 15 -9 12 -12z m1382 -29 c-3 -10 -5 -4 -5 12 0
17 2 24 5 18 2 -7 2 -21 0 -30z m1952 14 c-2 -1 -11 -8 -21 -15 -12 -10 -18
-10 -24 -1 -4 7 -3 9 4 5 6 -3 13 -2 17 4 3 5 11 10 17 10 6 0 9 -1 7 -3z
m-69 -37 c-8 -5 -17 -7 -19 -4 -3 3 1 9 9 14 8 5 17 7 19 4 3 -3 -1 -9 -9 -14z
m-1449 -182 c-24 -39 -28 -30 -5 13 8 17 18 28 21 25 3 -3 -4 -20 -16 -38z
m416 -45 c2 -6 -9 -16 -25 -22 -16 -7 -55 -39 -86 -72 -36 -38 -77 -70 -111
-85 -71 -33 -96 -25 -30 8 50 26 119 84 146 124 16 24 79 65 93 61 6 -2 11 -8
13 -14z m888 -33 c-3 -5 -12 -10 -18 -10 -7 0 -6 4 3 10 19 12 23 12 15 0z
m-3653 -56 c-10 -18 -11 -17 -20 6 -12 32 -4 46 15 27 11 -11 13 -20 5 -33z
m3608 36 c-8 -5 -19 -10 -25 -10 -5 0 -3 5 5 10 8 5 20 10 25 10 6 0 3 -5 -5
-10z m-3570 -20 c5 9 9 8 13 -3 4 -10 0 -14 -11 -13 -9 2 -17 8 -18 15 -2 8
-1 8 3 0 4 -8 7 -8 13 1z m1191 -30 c8 4 59 -24 59 -32 0 -11 -4 -10 -45 9
-19 9 -35 24 -35 32 0 13 2 13 9 3 4 -8 10 -13 12 -12z m-2039 -32 c12 -19 9
-36 -3 -18 -8 13 -9 13 -7 -2 2 -9 -1 -17 -7 -18 -5 -1 -15 -6 -22 -12 -9 -7
-11 -4 -8 12 2 13 7 25 10 28 2 3 0 11 -6 18 -8 10 -6 12 12 9 12 -3 26 -10
31 -17z m-61 -16 c-4 -9 -7 -23 -5 -30 1 -7 0 -8 -3 -2 -2 5 -9 7 -15 4 -5 -4
-3 5 6 18 9 14 13 28 9 33 -5 4 -2 5 5 1 8 -5 9 -13 3 -24z m334 -75 c226 -92
300 -112 520 -141 17 -2 -4 -2 -45 0 -140 6 -327 45 -575 119 -138 42 -144 43
-169 44 -17 1 -17 2 -1 27 9 14 14 32 11 39 -6 17 43 1 259 -88z m1485 -3 c97
-12 338 -93 279 -94 -40 0 -285 62 -315 81 -36 22 -46 36 -16 24 9 -4 33 -9
52 -11z m-1990 -58 c36 -7 132 -32 214 -54 265 -74 278 -75 791 -80 253 -3
514 -4 580 -3 132 2 205 -5 205 -19 0 -6 -21 -7 -47 -4 -36 4 -44 3 -33 -5 9
-7 86 -11 195 -12 99 -1 207 -5 240 -9 l60 -7 -75 -3 -75 -3 72 -7 c40 -3 75
-9 79 -13 11 -10 -42 -19 -83 -13 -21 3 -51 6 -68 6 -16 1 -24 4 -17 7 25 10
11 20 -28 18 -45 -2 -68 -15 -27 -15 14 0 28 -4 31 -8 3 -5 -38 -2 -91 6 -87
14 -114 13 -272 -2 -97 -9 -189 -18 -206 -21 -131 -18 -351 -30 -510 -29 -129
1 -231 13 -355 39 -8 2 -21 4 -28 4 -8 1 -10 9 -7 24 6 23 4 23 -122 37 -70 7
-146 14 -168 14 -22 1 -43 5 -46 10 -4 5 -29 9 -57 10 -27 1 -48 4 -45 9 2 4
-13 8 -34 8 -21 1 -51 3 -68 5 -24 2 -27 1 -12 -7 9 -6 17 -15 17 -21 0 -6 -7
-5 -17 3 -16 12 -17 12 -6 -1 6 -9 9 -20 5 -25 -5 -8 -144 -57 -262 -93 -9 -3
-8 1 4 10 20 16 29 69 13 79 -9 7 141 50 180 53 13 0 18 5 13 10 -8 8 -112 0
-235 -18 -11 -2 -14 -1 -7 1 10 4 10 8 1 19 -9 11 -8 19 4 38 10 15 12 27 6
33 -7 7 10 14 48 21 32 7 67 13 78 16 40 8 102 5 165 -8z m4659 -42 c10 -9 9
-34 -1 -34 -6 0 -8 7 -4 15 4 11 -1 15 -17 14 -12 0 -16 -3 -9 -6 26 -10 10
-19 -32 -17 -29 1 -84 -11 -160 -37 -99 -33 -129 -39 -202 -39 -95 0 -108 15
-17 19 72 3 132 17 203 48 95 42 216 61 239 37z m-3501 -51 c-15 -2 -42 -2
-60 0 -18 2 -6 4 27 4 33 0 48 -2 33 -4z m5069 -22 c2 -26 -53 -35 -160 -26
-119 11 -137 22 -37 24 47 1 103 6 125 10 62 13 71 12 72 -8z m-6170 -14 c7 0
10 -4 7 -9 -3 -4 7 -8 22 -8 42 0 25 -6 -36 -14 -53 -7 -54 -7 -37 12 10 11
15 22 10 24 -4 3 -1 3 7 0 8 -2 20 -5 27 -5z m4325 -51 c-3 -5 3 -6 14 -2 12
5 15 4 9 -2 -23 -22 -117 -31 -266 -25 -135 5 -265 -2 -424 -22 -32 -5 -36 -4
-17 4 28 13 187 43 267 50 98 10 424 7 417 -3z m-3848 -21 c-4 -8 -13 -15 -22
-15 -13 0 -12 3 4 15 24 18 25 18 18 0z m4674 -50 l3 -30 -98 2 c-54 2 -191 5
-306 7 -114 1 -210 6 -214 10 -3 3 13 6 37 6 24 0 95 7 159 17 93 13 130 14
190 6 59 -9 83 -8 110 2 20 7 54 12 76 12 37 -2 40 -4 43 -32z m1003 -40 c33
-5 36 -8 36 -38 l0 -33 -66 13 c-36 7 -145 13 -241 14 l-175 1 125 19 c168 26
241 35 265 32 11 -1 36 -5 56 -8z m-4036 -64 c22 -7 -3 -9 -90 -9 -108 1 -126
-1 -180 -25 l-60 -26 40 -2 c22 -1 44 -1 48 0 5 1 6 -3 2 -9 -3 -5 -32 -10
-63 -10 -177 0 -448 -51 -822 -155 -458 -127 -446 -125 -830 -135 -327 -7
-307 -4 -467 -69 -37 -14 -54 -17 -59 -9 -4 7 -3 8 4 4 7 -4 12 -3 12 3 0 5
-5 13 -10 16 -6 3 -10 12 -10 18 0 7 4 6 10 -3 8 -12 10 -9 8 10 -2 14 -10 31
-18 38 -8 8 -9 11 -3 7 7 -3 13 -2 13 3 0 15 143 72 224 89 57 12 114 14 292
9 268 -7 335 0 754 84 360 72 476 89 648 97 72 3 132 10 132 15 0 4 -7 8 -15
8 -8 0 -15 7 -15 16 0 12 8 14 43 9 31 -4 64 1 122 20 69 22 92 24 170 20 50
-3 104 -9 120 -14z m-605 -1 l115 -2 -80 -14 c-44 -7 -105 -13 -135 -12 -30 0
-64 -1 -75 -3 -12 -3 -21 2 -23 13 -3 16 30 27 68 22 8 -2 67 -3 130 -4z
m3548 0 l92 1 0 -35 0 -35 168 0 c179 0 232 -6 437 -48 98 -21 158 -27 247
-27 117 0 117 0 112 -23 -4 -15 -2 -23 7 -23 8 0 5 -6 -7 -16 -10 -8 -13 -13
-6 -9 6 3 12 2 12 -3 0 -14 -50 -30 -118 -37 -64 -8 -147 5 -272 41 -172 49
-460 91 -432 63 12 -13 16 -51 6 -62 -3 -3 -26 3 -50 13 -80 35 -147 36 -319
5 -11 -2 -29 -4 -40 -5 -35 -1 5 -17 65 -25 71 -10 255 -55 409 -100 161 -48
262 -67 343 -65 54 1 69 -2 78 -17 10 -16 11 -16 6 -1 -6 20 -9 19 139 43 55
9 108 18 118 20 12 2 17 -1 14 -9 -3 -6 4 -22 14 -34 17 -21 18 -21 16 -3 0
11 -4 18 -8 15 -4 -2 -10 0 -14 6 -3 5 1 10 9 10 9 0 16 4 16 9 0 6 9 9 20 8
20 -1 17 -12 -3 -12 -7 0 -11 -10 -9 -22 6 -40 -13 -59 -59 -62 -23 -1 -45 -4
-48 -6 -4 -2 -41 -6 -84 -10 -42 -4 -85 -8 -94 -9 -27 -4 -83 25 -83 43 0 14
2 14 9 2 14 -21 44 -24 32 -3 -6 10 -23 17 -45 17 -19 1 -33 -2 -30 -7 3 -5
10 -6 15 -3 5 4 9 1 9 -5 0 -7 -7 -9 -16 -6 -9 3 -20 6 -25 6 -6 0 -8 3 -6 8
6 9 -31 11 -198 12 -124 0 -139 3 -280 44 -83 24 -206 53 -275 65 -69 12 -154
30 -190 41 -94 27 -212 50 -310 60 -69 7 -56 8 70 4 108 -3 150 -1 138 6 -51
31 -356 111 -417 109 -25 0 -25 -1 7 -16 18 -10 32 -24 32 -34 0 -17 -2 -17
-37 -3 -30 13 -60 14 -158 9 -117 -7 -124 -6 -225 25 -58 17 -140 34 -182 37
-43 3 -78 8 -78 10 0 3 7 11 16 20 13 14 26 14 105 3 63 -9 142 -11 267 -6
183 7 318 -2 442 -30 124 -28 752 -31 709 -3 -8 5 -39 6 -69 3 -38 -4 -70 0
-105 12 -36 12 -103 18 -235 23 -279 10 -266 27 18 23 130 -1 279 -2 330 -2z
m-2868 -49 c0 -19 -397 -126 -443 -119 -35 5 284 98 413 121 14 2 26 5 28 6 1
0 2 -3 2 -8z m5 -61 c-4 -6 7 -10 24 -10 17 0 31 -5 31 -11 0 -12 -60 -69 -73
-69 -4 0 -5 -5 -1 -12 4 -6 3 -8 -4 -5 -14 9 -43 -3 -36 -14 3 -5 -1 -7 -8 -4
-16 7 -191 -94 -412 -238 -550 -356 -637 -406 -876 -498 -139 -54 -150 -65
-19 -20 236 82 414 177 737 393 72 48 132 86 132 84 0 -9 -346 -251 -470 -329
-195 -123 -277 -160 -575 -257 -272 -89 -335 -125 -521 -301 -58 -54 -109 -99
-113 -99 -8 0 -24 30 -35 63 -5 16 -8 17 -35 2 -42 -21 -49 -19 -17 6 21 17
24 24 15 40 -5 11 -14 17 -20 14 -26 -17 1 10 100 97 218 194 287 233 511 293
388 104 504 156 940 425 146 90 300 183 343 208 42 24 77 46 77 49 0 2 -53
-23 -117 -57 -328 -173 -610 -313 -710 -354 -146 -60 -297 -98 -516 -131 -303
-45 -367 -67 -566 -199 -121 -80 -184 -117 -168 -101 4 5 -1 17 -10 27 -16 18
-16 18 0 12 9 -3 17 -11 17 -17 0 -6 3 -8 6 -4 3 3 0 15 -8 26 -8 12 -18 18
-21 14 -4 -3 -7 -4 -7 -1 0 8 209 145 290 191 103 57 181 82 409 131 348 75
497 124 764 253 113 55 137 70 134 85 -3 11 0 18 9 18 8 0 14 -4 14 -10 0 -14
57 9 250 103 191 92 280 131 422 182 98 36 123 41 113 25z m1505 -30 c53 -9
52 -9 -17 -5 -39 3 -82 9 -95 15 -25 10 -5 8 112 -10z m2431 -27 c-12 -20 -14
-14 -5 12 4 9 9 14 11 11 3 -2 0 -13 -6 -23z m-2425 -78 c165 -45 336 -102
360 -119 10 -8 -33 3 -96 24 -63 21 -186 55 -273 75 -86 20 -155 41 -152 46 9
14 21 12 161 -26z m-2106 10 c-19 -8 -134 -49 -255 -90 -406 -141 -543 -173
-857 -200 -320 -27 -398 -44 -558 -125 -44 -22 -80 -37 -80 -33 0 5 -4 3 -8
-2 -4 -6 -20 -19 -35 -28 -28 -18 -28 -18 -17 2 6 12 8 21 4 21 -3 0 -1 7 6
15 7 8 9 15 4 15 -4 0 3 12 17 27 17 20 18 23 3 10 -11 -9 -23 -14 -27 -11 -4
4 -5 -3 -2 -14 2 -12 -1 -24 -6 -27 -5 -4 -7 -10 -4 -15 3 -5 1 -11 -4 -14 -5
-4 -8 2 -6 11 2 10 4 29 4 43 1 15 10 29 24 36 12 6 58 30 102 52 140 71 229
91 464 103 430 21 621 55 981 173 117 39 213 64 240 64 l45 1 -35 -14z m660
-39 c0 -1 -31 -24 -70 -50 -38 -25 -70 -44 -70 -41 0 4 131 95 137 95 2 0 3
-2 3 -4z m1807 -2 c-3 -3 -12 -4 -19 -1 -8 3 -5 6 6 6 11 1 17 -2 13 -5z m80
-10 c-3 -3 -12 -4 -19 -1 -8 3 -5 6 6 6 11 1 17 -2 13 -5z m-592 -65 c-3 -4 1
-6 8 -5 6 0 36 -8 65 -19 39 -14 51 -23 47 -35 -5 -11 -3 -12 6 -3 13 13 69
-2 69 -19 0 -5 4 -7 8 -4 5 3 125 -35 268 -85 717 -248 785 -279 1077 -487
264 -186 353 -231 568 -282 83 -20 95 -25 83 -37 -8 -8 -14 -21 -14 -29 0 -25
-22 -25 -146 0 -215 44 -269 71 -499 251 -193 150 -332 240 -510 331 -178 90
-470 208 -487 198 -6 -4 -8 -3 -5 3 4 6 -1 13 -11 16 -9 2 -26 8 -36 13 -15 6
-18 4 -12 -7 4 -8 1 -6 -8 5 -8 10 -19 15 -25 11 -6 -3 -11 -1 -11 5 0 6 -4 9
-9 6 -4 -3 -17 1 -27 9 -25 19 -40 19 -25 1 8 -10 9 -16 1 -21 -6 -4 -10 -3
-9 2 4 15 -13 43 -22 37 -5 -3 -9 0 -9 6 0 7 -7 10 -15 6 -8 -3 -15 -1 -15 5
0 6 -4 8 -9 5 -5 -4 -12 0 -15 6 -3 9 -9 8 -20 -6 -13 -16 -18 -17 -31 -6 -8
7 -15 9 -15 5 0 -4 -7 -2 -15 5 -8 7 -15 10 -15 6 0 -4 -11 1 -25 10 -14 9
-22 21 -18 27 4 6 1 7 -6 3 -17 -11 -72 13 -64 28 3 6 2 8 -2 3 -5 -4 -17 1
-29 10 -18 16 -17 14 3 -15 22 -31 167 -112 202 -112 22 0 82 -47 96 -74 10
-20 10 -26 -2 -36 -11 -9 -17 -6 -31 15 -10 16 -53 43 -109 70 -51 24 -114 63
-141 85 -99 85 -164 145 -164 152 0 4 25 -4 54 -19 30 -15 53 -30 51 -34z
m102 5 c76 -31 307 -113 513 -181 548 -181 638 -222 970 -448 107 -73 218
-144 247 -159 72 -36 177 -63 318 -81 161 -21 175 -26 142 -54 -11 -8 -48 -5
-150 14 -251 46 -330 80 -552 235 -333 232 -455 290 -1070 500 -299 102 -565
208 -565 225 0 8 2 8 147 -51z m566 49 c-7 -2 -21 -2 -30 0 -10 3 -4 5 12 5
17 0 24 -2 18 -5z m80 -10 c-7 -2 -21 -2 -30 0 -10 3 -4 5 12 5 17 0 24 -2 18
-5z m194 -24 c59 -11 117 -23 128 -25 69 -15 256 -36 429 -49 357 -28 416 -40
690 -144 119 -46 162 -57 256 -66 39 -4 71 -13 80 -23 14 -14 13 -15 -2 -3
-19 14 -22 8 -8 -24 6 -14 9 -15 10 -5 1 9 5 7 10 -7 6 -15 16 -21 29 -18 14
2 18 -1 14 -11 -3 -8 -8 -14 -12 -15 -3 0 -39 -3 -78 -5 -40 -2 -83 -6 -95 -8
-13 -2 -29 1 -35 6 -7 6 -13 8 -13 5 0 -12 -104 26 -237 87 -174 80 -256 108
-412 140 -140 30 -158 32 -185 21 -15 -6 -17 -5 -11 5 6 10 4 12 -9 7 -10 -4
-26 -3 -36 3 -10 5 -98 26 -196 45 -99 20 -213 45 -255 56 -42 11 -109 26
-150 34 -41 7 -62 14 -47 14 15 1 76 -8 135 -20z m-3127 -13 c0 -2 -7 -7 -16
-10 -8 -3 -12 -2 -9 4 6 10 25 14 25 6z m-45 -15 c-12 -11 -229 -101 -310
-129 -128 -44 -409 -102 -423 -87 -3 3 4 5 16 5 12 0 22 5 22 11 0 5 5 7 11 4
6 -4 13 2 16 14 3 12 13 21 24 21 21 0 25 -15 7 -26 -7 -4 -8 -3 -4 4 4 7 3
12 -2 12 -6 0 -12 -7 -16 -15 -4 -10 1 -15 14 -15 11 0 20 4 20 9 0 6 9 8 19
6 14 -3 18 1 14 12 -5 12 -7 12 -14 1 -7 -10 -9 -9 -9 5 0 11 8 17 23 18 68 2
399 89 552 144 48 17 52 18 40 6z m2205 -27 c0 -2 -9 0 -20 6 -11 6 -20 13
-20 16 0 2 9 0 20 -6 11 -6 20 -13 20 -16z m587 20 c-3 -3 -12 -4 -19 -1 -8 3
-5 6 6 6 11 1 17 -2 13 -5z m-1832 -50 c-16 -13 -34 -24 -40 -24 -5 0 6 14 25
29 19 16 37 27 40 24 3 -2 -8 -16 -25 -29z m2077 15 c32 -6 56 -15 53 -19 -2
-4 6 -5 19 -3 13 3 27 0 30 -6 4 -5 14 -7 23 -4 11 4 14 3 9 -6 -5 -8 0 -10
18 -7 15 3 24 1 21 -5 -4 -5 2 -9 11 -9 10 0 15 -3 11 -6 -3 -4 -14 -3 -24 1
-10 4 -28 9 -41 11 -62 8 -142 30 -187 52 -27 13 -39 21 -25 18 14 -3 51 -11
82 -17z m-961 -46 c13 -15 12 -15 -8 -4 -24 12 -29 21 -14 21 5 0 15 -7 22
-17z m-961 -7 c0 -3 -4 -16 -10 -30 -11 -30 3 -44 26 -25 37 30 22 -14 -58
-169 -81 -157 -130 -263 -278 -597 -115 -261 -124 -280 -168 -365 -89 -170
-143 -251 -350 -519 -96 -125 -159 -231 -186 -316 -25 -81 -65 -258 -55 -248
5 5 36 65 70 133 80 164 151 275 292 456 141 183 210 291 287 449 55 112 85
188 285 699 70 180 197 456 209 456 7 0 -3 -26 -49 -125 -55 -119 -103 -242
-200 -515 -209 -587 -263 -696 -505 -1025 -104 -143 -177 -277 -200 -370 -6
-27 -22 -112 -35 -188 -13 -77 -28 -144 -34 -150 -8 -8 -18 -4 -37 14 -15 13
-23 17 -19 9 8 -13 7 -13 -9 -1 -18 15 -17 26 1 111 3 18 -6 9 -32 -29 -25
-36 -40 -49 -45 -41 -5 9 -12 5 -24 -11 -9 -13 -16 -18 -16 -11 0 6 -5 12 -11
12 -5 0 -7 -5 -3 -12 4 -6 3 -8 -4 -4 -14 9 -7 44 14 67 15 17 15 18 -10 25
-27 6 -27 7 -20 78 4 39 8 73 10 75 2 2 -2 11 -9 19 -9 13 -9 14 1 8 8 -5 12
0 12 16 1 41 46 202 72 253 35 67 84 132 209 272 118 133 166 193 152 193 -5
0 -15 -6 -22 -12 -7 -7 8 17 34 54 27 37 52 65 56 62 5 -3 6 1 3 9 -3 8 2 19
10 26 12 10 14 8 9 -11 -4 -16 4 -10 29 22 40 52 69 105 63 114 -3 3 -2 4 2 1
8 -6 77 116 120 215 25 55 30 76 20 82 -11 7 -2 12 17 9 5 -1 4 5 -4 13 -7 9
-15 16 -18 16 -3 0 -2 -3 1 -7 4 -3 1 -13 -7 -22 -8 -9 -37 -61 -64 -117 -28
-55 -65 -125 -82 -155 -18 -30 -32 -55 -31 -57 1 -1 -3 -8 -9 -15 -5 -6 -37
-50 -71 -97 -123 -169 -169 -227 -273 -342 -167 -186 -222 -273 -282 -446 -21
-60 -33 -81 -43 -77 -10 4 -11 2 -5 -8 5 -7 -2 -1 -15 13 -13 14 -20 18 -16
10 3 -8 -1 -6 -9 4 -15 19 -22 12 -17 -16 0 -5 -3 -8 -7 -8 -4 0 -14 -16 -21
-36 -20 -56 -21 -36 -1 41 24 92 42 139 102 263 56 116 88 159 212 289 47 50
83 93 79 97 -3 3 1 6 11 6 9 0 15 4 12 9 -3 5 1 11 9 15 9 3 14 17 14 33 -2
24 -2 25 -6 5 -2 -12 -13 -27 -24 -32 -11 -6 -18 -7 -17 -3 2 4 -1 9 -7 11 -5
1 -10 -2 -10 -7 0 -18 -22 -34 -30 -22 -3 7 -1 10 6 9 7 -2 13 2 14 8 0 16
185 229 198 229 7 1 11 7 9 14 -1 7 15 36 36 65 66 87 216 344 459 786 l25 45
-55 -56 c-37 -39 -68 -86 -100 -152 -36 -76 -55 -102 -88 -127 -46 -33 -59
-36 -77 -18 -8 8 2 19 41 42 44 26 58 43 94 113 33 61 64 101 129 165 82 79
121 126 208 245 l37 52 -93 -67 c-136 -98 -180 -146 -212 -229 -35 -91 -104
-157 -142 -135 -13 7 -8 14 29 35 35 21 52 41 82 99 56 107 68 122 158 190 45
33 99 77 119 96 21 20 48 37 60 39 12 2 26 9 30 16 4 6 8 8 8 3 0 -6 5 -5 12
2 12 12 28 16 28 8z m-234 -39 c-14 -19 -24 -36 -22 -38 5 -4 -64 -77 -201
-212 -38 -38 -73 -65 -77 -60 -5 4 -7 1 -3 -9 4 -10 -7 -28 -31 -51 -20 -19
-45 -46 -55 -59 l-18 -23 5 25 c2 14 9 24 15 22 6 -1 11 3 11 10 0 6 6 18 14
27 82 90 101 109 109 104 5 -3 5 2 -1 13 -8 15 -3 22 32 44 22 15 55 44 71 65
37 46 161 175 170 175 3 0 -5 -15 -19 -33z m1289 -203 c118 -120 218 -214 221
-211 3 3 -10 29 -29 59 -81 127 -72 124 31 -12 99 -131 120 -153 258 -273 141
-123 269 -249 339 -332 27 -33 104 -116 170 -185 134 -138 175 -189 288 -361
107 -161 178 -232 288 -288 43 -21 84 -58 66 -58 -9 0 -14 4 -11 9 3 4 -3 8
-13 8 -15 0 -13 -4 10 -25 36 -34 35 -49 -3 -30 -27 14 -30 14 -39 -4 -6 -10
-7 -22 -3 -27 4 -5 -2 -2 -13 7 -11 9 -81 57 -155 107 -74 50 -164 116 -200
148 l-65 58 55 -58 c30 -31 115 -102 188 -157 72 -55 132 -103 132 -107 0 -3
-5 -1 -12 6 -8 8 -15 9 -25 1 -10 -9 -13 -8 -13 1 0 8 -3 10 -6 7 -4 -4 -2
-12 4 -20 8 -10 6 -12 -12 -12 -28 2 -187 125 -271 211 -74 74 -121 144 -256
379 -163 284 -234 370 -635 775 -324 327 -467 480 -510 545 -14 22 -14 55 0
55 3 0 102 -97 221 -216z m1360 169 c91 -32 269 -112 262 -119 -6 -7 -149 37
-242 74 -55 22 -128 48 -163 57 -34 10 -60 20 -58 23 3 2 19 0 35 -6 17 -6 31
-7 31 -2 0 5 -6 10 -12 13 -7 2 1 2 17 -1 17 -2 75 -20 130 -39z m281 34 c3
-3 1 -8 -5 -12 -6 -3 -11 -1 -11 5 0 7 -7 10 -15 7 -8 -4 -17 -2 -20 3 -5 9
42 7 51 -3z m-3221 -34 c-16 -14 -110 -97 -207 -184 -469 -421 -512 -452 -911
-651 l-261 -131 -101 -101 c-55 -56 -131 -135 -168 -176 -62 -70 -67 -73 -73
-52 -5 18 -9 21 -16 10 -7 -9 -8 -7 -5 10 3 12 1 20 -4 16 -5 -3 -9 0 -9 6 0
6 -6 8 -12 4 -7 -4 -4 4 8 17 288 333 302 345 644 504 329 153 472 244 873
553 250 192 261 201 267 201 3 0 -8 -11 -25 -26z m1965 23 c0 -3 -4 -8 -10
-11 -5 -3 -10 -1 -10 4 0 6 5 11 10 11 6 0 10 -2 10 -4z m29 -29 c0 -9 -2 -8
-6 1 -2 6 -10 9 -15 6 -7 -4 -8 -2 -4 5 9 13 26 5 25 -12z m-3259 3 c0 -5 -2
-10 -4 -10 -3 0 -8 5 -11 10 -3 6 -1 10 4 10 6 0 11 -4 11 -10z m-34 -11 c3
-5 -3 -6 -12 -2 -13 5 -15 3 -9 -8 7 -12 6 -12 -11 1 -10 8 -20 15 -22 16 -2
1 9 2 23 2 14 0 28 -4 31 -9z m3834 -29 c11 0 20 -4 20 -10 0 -17 -32 -11 -87
15 -67 31 -68 39 -3 14 28 -10 59 -19 70 -19z m-1148 -77 c80 -112 174 -225
357 -433 380 -429 471 -557 627 -890 48 -102 106 -216 128 -255 46 -78 137
-175 268 -282 48 -40 92 -82 98 -94 9 -15 9 -19 1 -15 -6 4 -23 -2 -38 -14
l-27 -21 -50 48 c-224 210 -287 287 -371 453 -27 52 -55 104 -64 114 -9 11
-10 16 -4 12 9 -5 11 -2 7 8 -3 9 -11 16 -17 16 -6 0 -7 3 -4 7 4 3 -1 12 -11
20 -9 8 -11 12 -4 8 10 -5 10 -1 1 19 -7 14 -16 23 -22 19 -6 -3 -7 -1 -4 5 9
14 -3 43 -14 36 -9 -5 -13 9 -10 34 1 6 -4 12 -12 12 -8 0 -19 12 -26 27 -11
24 -11 25 5 12 16 -13 16 -12 0 14 -18 27 -33 38 -21 15 4 -7 -1 -4 -9 7 -9
11 -14 25 -11 33 2 7 1 11 -4 8 -5 -3 -16 5 -25 19 -19 29 -20 39 -4 29 7 -4
8 -3 4 5 -4 6 -11 9 -16 6 -9 -5 -43 43 -43 62 0 6 -3 11 -7 10 -9 -3 -141
170 -138 180 4 13 -48 94 -55 87 -4 -4 7 -24 24 -45 17 -22 29 -39 26 -39 -3
0 -22 21 -43 47 -21 26 -33 44 -26 39 38 -23 -22 67 -119 179 -21 24 -81 96
-92 110 -4 5 -41 58 -83 118 -41 59 -78 105 -83 103 -4 -3 -14 4 -22 16 -8 11
-19 26 -25 32 -6 6 -16 22 -23 34 -7 12 -17 20 -23 16 -7 -5 -8 -2 -3 6 5 8 2
17 -7 24 -8 6 -17 19 -21 29 -4 10 -11 16 -16 13 -4 -3 -7 8 -5 24 2 16 -1 32
-6 35 -10 6 -14 25 -6 25 3 0 33 -39 68 -87z m-685 30 c-3 -10 -13 -54 -22
-98 -17 -81 -32 -121 -42 -112 -12 13 42 227 58 227 6 0 8 -8 6 -17z m613 7
c0 -5 -2 -10 -4 -10 -3 0 -8 5 -11 10 -3 6 -1 10 4 10 6 0 11 -4 11 -10z m-15
-75 c20 -36 81 -133 136 -216 55 -83 96 -155 93 -161 -4 -6 -3 -8 3 -5 6 4 17
-1 24 -10 12 -15 12 -16 -6 -10 -20 7 -20 7 -1 -8 11 -8 23 -15 28 -15 4 0 4
-7 1 -17 -5 -12 -3 -14 7 -8 9 6 11 4 5 -5 -7 -11 -10 -10 -19 1 -6 8 -32 42
-57 75 -103 132 -286 433 -273 447 11 11 21 -1 59 -68z m-341 -10 c3 -27 8
-77 10 -110 3 -33 8 -69 11 -80 7 -27 19 -87 76 -375 131 -668 138 -781 73
-1220 -36 -243 -31 -304 41 -513 29 -87 51 -165 48 -174 -4 -11 -2 -14 5 -9 7
4 12 5 12 2 0 -3 -4 -8 -10 -11 -5 -3 -17 12 -26 34 -9 23 -20 41 -26 41 -5 0
-7 -4 -4 -9 7 -10 -20 -9 -30 2 -4 4 -13 2 -20 -4 -9 -7 -19 12 -43 83 -67
203 -79 308 -57 496 21 173 22 162 -15 162 -35 0 -35 2 -2 97 27 76 33 75 34
-8 1 -68 2 -71 10 -34 14 59 19 476 8 575 -5 47 -29 225 -53 395 -24 171 -44
330 -45 354 -1 25 -4 47 -6 51 -2 4 -7 35 -11 71 -4 35 -11 67 -16 70 -5 3 -5
15 0 30 5 13 7 47 5 76 -6 60 2 97 17 73 5 -8 11 -37 14 -65z m191 23 c9 -29
20 -114 25 -188 12 -162 14 -175 51 -261 40 -93 45 -189 11 -189 -16 0 -18 7
-14 54 4 46 -1 65 -34 137 -37 83 -38 87 -45 244 -4 88 -9 167 -12 175 -12 34
-16 80 -7 80 5 0 16 -24 25 -52z m-137 -15 c6 -32 21 -107 33 -168 22 -114 71
-311 114 -462 42 -142 112 -430 134 -544 30 -159 41 -297 45 -589 4 -303 11
-344 91 -539 25 -62 44 -116 41 -119 -3 -3 -6 0 -6 5 0 9 -20 11 -40 3 -3 -1
-8 -2 -12 -1 -5 0 -8 -5 -8 -11 -1 -23 -21 21 -51 109 -33 98 -32 96 -20 88 5
-3 13 0 17 6 5 9 11 7 21 -6 7 -11 13 -14 13 -9 0 6 -3 14 -7 18 -5 4 -9 12
-9 17 -1 5 -2 12 -3 15 0 4 -9 1 -18 -7 -17 -12 -17 -12 -2 5 13 14 14 25 6
61 -6 24 -17 47 -25 50 -12 4 -12 3 -3 -9 9 -11 9 -16 0 -22 -8 -4 -9 -3 -5 4
4 7 3 12 -3 12 -5 0 -11 -8 -13 -17 -3 -10 -10 16 -17 56 -10 54 -12 142 -9
315 8 372 -13 543 -118 961 -25 99 -48 189 -50 201 -5 29 -45 144 -40 118 2
-12 0 -27 -4 -33 -9 -15 -54 221 -48 254 3 13 1 22 -4 19 -5 -4 -8 13 -7 37 3
45 -9 190 -17 222 -3 9 -1 17 4 17 5 0 14 -26 20 -57z m268 -121 c-2 -1 -13
16 -25 40 -11 24 -30 57 -41 73 -11 17 -20 39 -19 50 0 11 20 -20 44 -70 24
-49 43 -91 41 -93z m-383 23 c-3 -82 -28 -222 -44 -246 -8 -12 -11 -11 -19 1
-6 10 -10 11 -10 3 0 -7 -8 -13 -17 -13 -15 0 -16 -2 -3 -10 10 -7 11 -10 2
-10 -23 0 -23 25 -3 101 17 60 51 249 51 283 0 4 7 6 15 2 8 -3 15 0 16 7 1 7
4 1 8 -13 4 -14 6 -61 4 -105z m2867 89 c0 -8 -19 -13 -24 -6 -3 5 1 9 9 9 8
0 15 -2 15 -3z m115 -13 c3 -5 2 -12 -3 -15 -5 -3 -9 1 -9 9 0 17 3 19 12 6z
m-30 -10 c3 -5 2 -12 -3 -15 -5 -3 -9 1 -9 9 0 17 3 19 12 6z m-2545 -121 c6
-11 8 -20 6 -20 -3 0 -10 9 -16 20 -6 11 -8 20 -6 20 3 0 10 -9 16 -20z m1012
-132 c135 -84 256 -170 353 -252 33 -28 52 -41 43 -30 -35 41 -17 36 30 -8 74
-70 197 -157 333 -238 219 -130 271 -169 394 -294 66 -66 136 -133 155 -148
19 -15 26 -25 16 -21 -13 4 -17 3 -12 -5 4 -8 0 -12 -11 -12 -15 0 -16 -2 -3
-10 22 -14 5 -12 -32 4 -18 8 -85 36 -148 62 -254 103 -438 223 -459 299 -13
48 -86 138 -134 166 -23 13 -88 69 -146 124 -135 128 -185 170 -355 294 -76
55 -164 124 -195 153 l-56 52 50 -29 c28 -15 107 -64 177 -107z m1328 116 c14
-3 35 -6 48 -6 12 -1 22 -5 22 -9 0 -5 9 -6 20 -4 12 2 18 0 15 -6 -4 -5 -11
-6 -17 -3 -7 5 -9 -2 -6 -19 4 -22 3 -25 -12 -17 -10 5 -20 7 -23 4 -3 -3 -12
-2 -19 2 -13 9 -18 10 -39 13 -6 0 -9 8 -5 16 3 9 -5 21 -22 31 -15 8 -18 12
-7 9 11 -4 31 -9 45 -11z m-80 -14 c8 -5 11 -10 5 -10 -5 0 -17 5 -25 10 -8 5
-10 10 -5 10 6 0 17 -5 25 -10z m40 -10 c8 -15 8 -18 -3 -14 -8 3 -14 11 -14
19 0 20 4 19 17 -5z m-2964 -2 c-2 -7 -14 -61 -27 -121 -12 -59 -24 -105 -26
-103 -5 5 25 180 37 211 10 25 22 35 16 13z m2105 -44 c98 -54 144 -85 254
-168 43 -34 86 -66 95 -73 12 -9 9 -10 -17 -5 -18 4 -77 41 -130 83 -54 42
-143 106 -198 143 -54 36 -96 66 -93 66 3 0 43 -21 89 -46z m-2880 -27 c-10
-9 -11 -8 -5 6 3 10 9 15 12 12 3 -3 0 -11 -7 -18z m-13 -34 c-13 -16 -15 -16
-21 1 -4 10 0 14 13 13 14 -1 16 -4 8 -14z m-30 -28 c-3 -3 -9 2 -12 12 -6 14
-5 15 5 6 7 -7 10 -15 7 -18z m-18 1 c0 -2 -7 -7 -16 -10 -8 -3 -12 -2 -9 4 6
10 25 14 25 6z m1040 -51 c0 -25 -16 -24 -18 1 -1 15 2 22 8 19 6 -3 10 -12
10 -20z m-1089 -12 c-5 -16 -13 -27 -20 -25 -6 1 -12 -2 -12 -8 -3 -20 -4 -25
-13 -38 -4 -8 -17 -12 -27 -9 -21 6 -26 -8 -6 -17 6 -4 2 -4 -10 -2 -22 4 -33
-9 -14 -16 5 -1 2 -10 -7 -18 -14 -13 -15 -12 -9 4 5 12 3 16 -5 14 -16 -6
-17 -30 -3 -41 6 -5 4 -7 -5 -4 -24 6 -19 29 13 63 18 20 35 30 46 27 14 -3
20 3 25 27 4 24 10 31 22 26 11 -4 15 -2 11 8 -3 7 0 19 6 25 16 16 16 14 8
-16z m1026 -5 c-3 -8 -6 -5 -6 6 -1 11 2 17 5 13 3 -3 4 -12 1 -19z m692 -80
c25 -56 27 -67 14 -72 -27 -11 -31 -6 -42 59 -6 36 -14 73 -18 82 -15 43 18
-7 46 -69z m-892 20 c-3 -8 -6 -5 -6 6 -1 11 2 17 5 13 3 -3 4 -12 1 -19z
m1032 -22 c8 -10 9 -16 1 -21 -6 -4 -9 -1 -8 7 2 7 -3 12 -10 10 -8 -1 -11 2
-7 8 8 13 10 13 24 -4z m-2012 -77 c8 -8 -9 -29 -61 -79 -117 -111 -190 -170
-204 -165 -7 3 -11 1 -8 -3 2 -4 -14 -21 -37 -37 l-42 -30 21 30 c12 17 20 38
19 48 -2 9 6 22 18 29 29 15 144 104 183 140 23 22 34 26 39 17 5 -8 4 -10 -3
-5 -7 4 -12 3 -12 -3 0 -5 4 -12 8 -15 11 -6 42 30 34 39 -4 4 -2 6 3 5 22 -5
29 1 15 11 -12 8 -9 9 10 4 24 -6 24 -5 6 9 -11 9 -15 16 -10 16 6 0 15 -5 21
-11z m3343 -64 c19 -10 57 -35 84 -56 27 -22 54 -39 61 -39 30 0 35 -26 11
-58 l-23 -32 -49 50 c-27 28 -75 76 -107 107 -72 70 -97 109 -46 70 19 -13 50
-33 69 -42z m-1348 3 c64 -98 70 -108 65 -108 -3 0 -26 30 -50 68 -56 88 -59
92 -54 92 2 0 20 -24 39 -52z m207 -125 c62 -88 113 -168 173 -273 l21 -35
-37 38 c-40 42 -200 281 -220 328 -7 16 -16 26 -21 22 -4 -5 -5 -2 -1 5 4 6 9
12 11 12 2 0 35 -44 74 -97z m1686 11 c54 -18 83 -36 44 -28 -19 5 -21 4 -9
-5 13 -10 13 -11 0 -11 -11 -1 -10 -4 5 -16 19 -16 19 -16 -5 -9 -14 4 -59 21
-100 39 -63 26 -75 35 -72 53 2 12 -2 24 -8 28 -5 3 -10 10 -10 15 0 4 24 -5
53 -21 28 -16 75 -36 102 -45z m-1790 -44 c9 -16 13 -30 11 -30 -3 0 -12 14
-21 30 -9 17 -13 30 -11 30 3 0 12 -13 21 -30z m-2418 -25 c0 -8 -3 -12 -7
-10 -3 2 -22 -5 -41 -16 l-34 -20 35 30 c40 35 47 37 47 16z m1497 3 c-3 -4
-14 -8 -25 -8 -11 0 -18 4 -15 8 2 4 14 8 25 8 11 0 17 -4 15 -8z m70 -140
c-4 -24 -7 -147 -5 -275 1 -181 -2 -248 -15 -310 -12 -60 -14 -104 -9 -189 8
-136 2 -154 -55 -154 l-39 0 16 37 c11 28 14 56 9 108 -4 49 -2 87 9 125 38
138 46 189 55 356 5 99 12 197 15 219 3 22 8 59 11 83 3 23 8 42 10 42 3 0 2
-19 -2 -42z m2374 -327 c67 -46 145 -108 172 -138 52 -57 78 -95 62 -91 -6 2
-19 -7 -30 -20 l-20 -22 -38 52 c-20 29 -69 82 -108 118 -91 84 -178 172 -241
245 -78 91 -76 97 6 15 41 -42 128 -113 197 -159z m-1638 99 c18 -52 74 -183
125 -290 158 -335 180 -401 209 -625 9 -66 22 -142 30 -167 12 -40 12 -49 0
-59 -11 -9 -16 -6 -23 14 -16 40 -29 98 -41 177 -29 192 -69 328 -161 541 -32
75 -78 187 -102 250 -38 98 -53 143 -84 254 -3 13 -2 16 4 10 5 -5 25 -53 43
-105z m-1111 -56 c-6 -32 -17 -82 -25 -110 -8 -28 -14 -65 -14 -82 0 -37 -11
-46 -50 -37 -25 6 -28 9 -20 25 6 10 10 26 10 35 0 8 11 32 24 53 13 20 37 70
52 109 15 40 29 71 31 70 1 -2 -2 -30 -8 -63z m-1649 22 c0 -2 -8 -10 -17 -17
-16 -13 -17 -12 -4 4 13 16 21 21 21 13z m3350 -266 c62 -162 108 -256 155
-317 19 -25 32 -50 28 -56 -3 -5 -2 -7 4 -4 5 3 50 -35 99 -85 49 -50 84 -88
77 -84 -6 3 -14 2 -18 -3 -3 -6 -12 -8 -20 -4 -11 4 -13 0 -9 -13 6 -16 3 -15
-19 5 -15 13 -24 29 -20 35 3 6 3 8 -2 4 -4 -4 -15 -2 -23 5 -13 10 -15 9 -8
-8 4 -11 17 -54 28 -95 11 -41 26 -86 33 -100 12 -24 11 -27 -15 -42 -22 -12
-31 -14 -38 -5 -12 14 -62 165 -62 186 0 22 -80 185 -158 320 -67 115 -142
286 -157 356 -4 17 12 -10 34 -59 63 -139 77 -143 36 -11 -29 92 -31 106 -10
79 13 -17 14 -16 5 15 -19 68 8 13 60 -119z m-2750 115 c0 -1 -13 -19 -30 -40
-16 -20 -27 -42 -23 -48 3 -5 2 -7 -4 -4 -6 4 -19 -9 -29 -28 -22 -41 -32 -43
-68 -14 -31 24 -24 40 28 65 51 24 107 60 101 66 -3 2 2 5 10 5 8 0 15 -1 15
-2z m1191 -101 c-35 -137 -50 -243 -66 -449 -19 -248 -27 -297 -69 -433 -35
-110 -52 -180 -48 -195 1 -5 -2 -5 -8 -2 -6 4 -9 13 -6 21 3 9 0 11 -11 7 -12
-5 -14 -3 -8 8 7 11 5 11 -10 -1 -11 -9 -16 -10 -11 -2 4 7 2 12 -7 12 -21 0
-7 56 42 168 55 127 54 124 92 502 6 63 21 156 34 205 22 87 84 249 92 241 2
-2 -5 -39 -16 -82z m-1934 34 c-3 -8 -6 -5 -6 6 -1 11 2 17 5 13 3 -3 4 -12 1
-19z m3400 -256 c14 -45 40 -107 58 -137 19 -30 31 -55 27 -55 -3 0 1 -6 9
-12 9 -7 40 -40 69 -73 l53 -60 -56 56 c-31 31 -59 54 -62 51 -3 -3 -5 1 -6 9
0 8 -4 6 -10 -6 l-9 -20 2 20 c3 22 -27 90 -42 100 -6 4 -7 11 -4 17 4 7 2 8
-5 4 -6 -4 -8 -13 -4 -19 4 -7 7 -21 5 -32 -2 -19 -1 -19 6 -1 9 20 9 20 13 0
3 -10 3 -27 1 -37 -3 -15 -7 -12 -22 15 -10 18 -16 36 -13 41 2 4 -1 7 -8 7
-7 0 -9 3 -6 7 4 3 2 11 -3 18 -9 11 -80 258 -80 279 0 6 4 5 9 -3 7 -10 9 -7
8 12 -1 15 -5 27 -9 27 -4 0 -4 8 -1 17 5 11 15 -10 30 -62 13 -44 36 -117 50
-163z m-1741 184 c-6 -33 -9 -35 -38 -32 -17 1 -35 11 -41 21 -6 12 -6 16 1
12 5 -4 25 4 43 17 19 12 36 22 38 20 2 -2 0 -19 -3 -38z m-416 -53 c-11 -21
-20 -44 -20 -51 0 -8 -13 -42 -29 -76 -16 -33 -36 -78 -45 -99 l-15 -38 -33
17 c-43 21 -42 20 -29 36 55 66 89 111 118 158 55 87 90 121 53 53z m1256
-210 c-3 -82 -6 -170 -6 -198 0 -41 -2 -47 -11 -31 -8 13 -8 60 0 175 6 86 11
166 11 179 0 12 3 22 6 22 3 0 3 -66 0 -147z m-2009 12 c0 -8 -4 -12 -9 -9 -5
3 -6 10 -3 15 9 13 12 11 12 -6z m-37 -24 c-14 -26 -13 -31 5 -25 8 4 13 9 10
13 -2 4 3 8 11 8 9 0 11 -4 5 -10 -5 -5 -6 -18 -3 -29 4 -15 7 -17 13 -6 5 7
9 8 9 2 0 -5 -7 -19 -15 -30 -15 -19 -15 -19 -8 1 6 18 5 19 -12 5 -10 -8 -16
-10 -12 -4 3 6 0 20 -8 30 -15 18 -15 18 -9 -1 5 -17 4 -18 -5 -3 -12 18 4 68
21 68 5 0 4 -9 -2 -19z m3859 -90 c24 -29 39 -51 33 -47 -6 3 -13 0 -15 -6
-10 -23 -71 66 -97 140 l-10 27 22 -30 c13 -16 43 -54 67 -84z m-1752 67 c-3
-7 -5 -2 -5 12 0 14 2 19 5 13 2 -7 2 -19 0 -25z m1639 -85 c21 -32 39 -70 40
-85 1 -16 0 -28 -1 -28 -5 0 -37 52 -40 64 -2 11 -34 85 -42 99 -2 4 -2 7 0 7
2 0 22 -26 43 -57z m-736 -14 c0 -16 -4 -28 -9 -25 -8 5 -3 56 5 56 2 0 4 -14
4 -31z m45 -38 c3 -5 2 -12 -3 -15 -5 -3 -9 1 -9 9 0 17 3 19 12 6z m-125
-241 c49 -96 94 -217 74 -197 -3 3 -17 2 -30 -3 -21 -8 -24 -6 -30 18 -3 15
-23 81 -45 147 -36 113 -69 237 -68 260 0 6 13 -24 28 -65 15 -41 47 -113 71
-160z m-884 124 c3 -16 7 -38 11 -49 4 -15 2 -17 -7 -9 -6 6 -14 31 -17 55 -6
48 5 50 13 3z m149 -152 c2 -10 4 -19 4 -21 1 -2 9 3 19 10 15 13 16 12 4 -3
-16 -20 -42 -13 -42 12 0 10 -3 27 -6 37 -5 17 -5 17 6 0 7 -11 13 -26 15 -35z
m645 -116 c0 -2 -8 -10 -17 -17 -16 -13 -17 -12 -4 4 13 16 21 21 21 13z"/>
<path d="M3928 6575 c-2 -25 0 -45 4 -45 5 0 8 20 8 45 0 25 -2 45 -4 45 -2 0
-6 -20 -8 -45z"/>
<path d="M3459 6942 c-3 -20 -2 -29 4 -23 5 5 7 19 5 32 -3 20 -5 19 -9 -9z"/>
<path d="M4970 6497 c0 -10 6 -16 13 -14 6 1 11 -6 9 -15 -3 -21 4 -24 11 -4
3 8 -3 22 -14 32 -17 16 -19 16 -19 1z"/>
<path d="M5209 6258 c-5 -18 -6 -38 -1 -34 7 8 12 36 6 36 -2 0 -4 -1 -5 -2z"/>
<path d="M5179 6198 c-5 -18 -6 -38 -1 -34 7 8 12 36 6 36 -2 0 -4 -1 -5 -2z"/>
<path d="M5109 6078 c-5 -18 -6 -38 -1 -34 7 8 12 36 6 36 -2 0 -4 -1 -5 -2z"/>
<path d="M5096 6013 c-6 -14 -5 -15 5 -6 7 7 10 15 7 18 -3 3 -9 -2 -12 -12z"/>
<path d="M4537 5557 c-14 -24 -41 -78 -60 -120 -18 -43 -37 -74 -42 -70 -4 5
-5 3 -1 -4 4 -7 -2 -40 -14 -74 -11 -34 -19 -64 -17 -65 4 -4 85 188 93 221 3
13 10 22 15 19 5 -3 6 3 2 12 -5 13 -3 15 8 9 8 -4 11 -5 7 -1 -4 5 4 32 17
62 13 30 22 54 20 54 -2 0 -15 -19 -28 -43z"/>
<path d="M4705 5269 c-4 -6 -5 -12 -2 -15 2 -3 7 2 10 11 7 17 1 20 -8 4z"/>
<path d="M4680 5220 c-6 -11 -8 -20 -6 -20 3 0 10 9 16 20 6 11 8 20 6 20 -3
0 -10 -9 -16 -20z"/>
<path d="M4610 5100 c-6 -11 -8 -20 -6 -20 3 0 10 9 16 20 6 11 8 20 6 20 -3
0 -10 -9 -16 -20z"/>
<path d="M1943 6318 c-9 -16 -16 -54 -7 -46 3 3 6 12 8 20 1 7 5 19 9 26 5 6
6 12 3 12 -3 0 -8 -6 -13 -12z"/>
<path d="M2135 6109 c-4 -6 -5 -12 -2 -15 2 -3 7 2 10 11 7 17 1 20 -8 4z"/>
<path d="M3386 5998 c1 -16 5 -32 9 -36 4 -4 5 0 3 8 -3 8 -1 22 3 32 6 10 4
18 -4 21 -9 3 -12 -4 -11 -25z"/>
<path d="M3639 6158 c-5 -18 -6 -38 -1 -34 7 8 12 36 6 36 -2 0 -4 -1 -5 -2z"/>
<path d="M3623 6065 c0 -8 4 -12 9 -9 5 3 6 10 3 15 -9 13 -12 11 -12 -6z"/>
<path d="M3617 5999 c4 -13 8 -18 11 -10 2 7 -1 18 -6 23 -8 8 -9 4 -5 -13z"/>
<path d="M3611 5764 c0 -11 3 -14 6 -6 3 7 2 16 -1 19 -3 4 -6 -2 -5 -13z"/>
<path d="M4185 6090 c-13 -25 -15 -64 -5 -90 1 -3 2 -9 1 -13 -1 -5 3 -5 9 -2
6 4 9 10 6 13 -3 3 0 12 8 21 8 9 16 23 18 31 2 8 6 17 10 20 3 3 -2 15 -12
28 l-19 23 -16 -31z m29 -28 c-4 -15 -12 -33 -19 -40 -10 -11 -12 -7 -11 20 1
22 5 32 15 30 9 -2 11 3 7 13 -3 9 -2 13 4 10 6 -3 7 -18 4 -33z"/>
<path d="M4192 6050 c0 -14 2 -19 5 -12 2 6 2 18 0 25 -3 6 -5 1 -5 -13z"/>
<path d="M4155 5991 c-3 -5 -2 -12 3 -15 5 -3 9 1 9 9 0 17 -3 19 -12 6z"/>
<path d="M1925 5910 c-3 -5 -1 -10 4 -10 6 0 11 5 11 10 0 6 -2 10 -4 10 -3 0
-8 -4 -11 -10z"/>
<path d="M1531 5709 c103 -137 189 -225 354 -363 152 -126 155 -128 127 -91
-12 17 -71 97 -130 180 -59 82 -139 181 -177 220 -61 60 -190 149 -248 171
-10 4 23 -49 74 -117z"/>
<path d="M6136 5861 c-3 -5 0 -14 8 -20 10 -9 17 -7 27 6 13 16 12 17 -3 4
-16 -12 -22 -9 -19 12 1 10 -7 9 -13 -2z"/>
<path d="M2764 5727 c-3 -8 0 -25 5 -39 5 -14 7 -29 3 -34 -4 -4 -2 -4 5 0 7
4 9 16 4 34 -4 15 -6 33 -4 40 6 16 -6 16 -13 -1z"/>
<path d="M2066 5697 c3 -10 9 -15 12 -12 3 3 0 11 -7 18 -10 9 -11 8 -5 -6z"/>
<path d="M2103 5625 c0 -8 4 -12 9 -9 5 3 6 10 3 15 -9 13 -12 11 -12 -6z"/>
<path d="M3801 5156 c-9 -11 -8 -15 4 -20 10 -4 14 -2 9 5 -4 6 0 15 7 20 8 5
9 9 3 9 -6 0 -17 -6 -23 -14z"/>
<path d="M1992 5089 c-9 -24 -1 -37 43 -69 19 -14 19 -14 5 4 -14 18 -13 19 3
13 9 -3 17 -2 17 3 0 6 -5 10 -11 10 -5 0 -7 5 -3 12 4 7 3 8 -4 4 -7 -4 -12
-1 -12 7 0 8 -7 20 -15 27 -12 10 -16 8 -23 -11z m16 -12 c-1 -2 3 -11 11 -20
9 -11 10 -17 2 -17 -6 0 -11 3 -12 8 0 4 -2 15 -4 25 -2 11 -1 17 2 14 2 -3 3
-7 1 -10z"/>
<path d="M6145 4800 c-13 -6 -15 -9 -5 -9 8 0 22 4 30 9 18 12 2 12 -25 0z"/>
<path d="M6075 4780 c-13 -5 -14 -9 -5 -9 8 0 24 4 35 9 13 5 14 9 5 9 -8 0
-24 -4 -35 -9z"/>
<path d="M6028 4763 c7 -3 16 -2 19 1 4 3 -2 6 -13 5 -11 0 -14 -3 -6 -6z"/>
<path d="M4668 4103 c-53 -32 -95 -59 -93 -61 2 -3 19 5 38 17 19 11 37 18 40
14 4 -3 7 -1 7 6 0 7 5 9 10 6 6 -3 10 -1 10 6 0 7 3 9 7 6 3 -4 15 1 26 10
11 10 17 12 13 6 -5 -9 -2 -11 9 -7 9 4 13 9 10 12 -3 3 2 14 12 24 9 10 14
18 11 18 -2 0 -48 -26 -100 -57z"/>
<path d="M5101 5090 c-2 -8 -4 -23 -6 -34 -2 -13 0 -15 7 -8 5 5 8 20 5 33 -2
13 -5 17 -6 9z"/>
<path d="M3205 4500 c3 -5 8 -10 11 -10 2 0 4 5 4 10 0 6 -5 10 -11 10 -5 0
-7 -4 -4 -10z"/>
<path d="M3251 4454 c0 -11 3 -14 6 -6 3 7 2 16 -1 19 -3 4 -6 -2 -5 -13z"/>
<path d="M3280 4400 c0 -5 5 -10 11 -10 5 0 7 5 4 10 -3 6 -8 10 -11 10 -2 0
-4 -4 -4 -10z"/>
<path d="M4970 4956 c0 -2 7 -7 16 -10 8 -3 12 -2 9 4 -6 10 -25 14 -25 6z"/>
<path d="M4605 4460 c-3 -5 -1 -10 4 -10 6 0 11 5 11 10 0 6 -2 10 -4 10 -3 0
-8 -4 -11 -10z"/>
<path d="M4425 4320 c-3 -5 -1 -10 4 -10 6 0 11 5 11 10 0 6 -2 10 -4 10 -3 0
-8 -4 -11 -10z"/>
<path d="M1043 4555 c0 -8 4 -12 9 -9 5 3 6 10 3 15 -9 13 -12 11 -12 -6z"/>
<path d="M1562 4315 c4 -4 3 -14 -3 -22 -9 -9 -8 -13 0 -13 6 0 11 6 11 13 0
6 5 4 11 -5 5 -10 14 -18 19 -18 4 0 7 8 6 18 -2 9 -7 17 -12 17 -5 0 -16 4
-24 9 -8 5 -12 6 -8 1z"/>
<path d="M1624 4276 c1 -8 5 -18 8 -22 4 -3 5 1 4 10 -1 8 -5 18 -8 22 -4 3
-5 -1 -4 -10z"/>
<path d="M1654 4255 c0 -19 3 -32 5 -29 8 7 9 54 2 59 -4 2 -7 -12 -7 -30z"/>
<path d="M1684 4253 c2 -10 0 -23 -5 -28 -4 -6 -3 -17 2 -25 8 -12 9 -11 7 4
-2 12 4 20 15 21 15 3 22 -12 18 -38 -1 -5 3 -6 8 -2 7 4 7 15 1 30 -9 24 -6
30 15 25 5 -1 6 2 2 6 -11 11 -37 14 -34 4 1 -4 -2 -8 -8 -9 -5 -1 -10 3 -10
8 0 5 -3 12 -7 16 -3 4 -5 -1 -4 -12z"/>
<path d="M1849 4201 c6 -10 5 -23 -1 -35 -5 -9 -7 -20 -4 -23 3 -4 6 0 6 8 0
12 2 11 11 -1 8 -12 9 -10 4 7 -10 35 13 36 36 1 12 -18 18 -25 15 -15 -3 10
-6 25 -6 33 0 9 -4 13 -9 9 -6 -3 -14 2 -19 12 -13 23 -45 28 -33 4z"/>
<path d="M1701 4194 c0 -11 3 -14 6 -6 3 7 2 16 -1 19 -3 4 -6 -2 -5 -13z"/>
<path d="M1983 4183 c4 -3 1 -13 -6 -22 -11 -14 -10 -14 5 -2 16 12 16 31 1
31 -4 0 -3 -3 0 -7z"/>
<path d="M945 4144 c2 -4 0 -14 -5 -24 -6 -12 -5 -17 4 -17 13 0 15 32 3 42
-4 3 -5 2 -2 -1z"/>
<path d="M1003 4105 c0 -8 4 -12 9 -9 5 3 6 10 3 15 -9 13 -12 11 -12 -6z"/>
<path d="M445 3909 c-4 -6 -5 -12 -2 -15 2 -3 7 2 10 11 7 17 1 20 -8 4z"/>
<path d="M1615 3810 l-140 -5 70 -10 c109 -15 718 -11 805 6 67 13 -460 19
-735 9z"/>
<path d="M1298 3792 c-3 -11 0 -19 7 -19 7 0 10 8 7 19 -2 10 -6 18 -7 18 -1
0 -5 -8 -7 -18z"/>
<path d="M770 3839 c0 -5 5 -7 10 -4 6 3 10 8 10 11 0 2 -4 4 -10 4 -5 0 -10
-5 -10 -11z"/>
<path d="M4665 3572 c15 -17 114 -25 190 -17 37 4 65 9 63 11 -3 2 -63 7 -134
10 -93 5 -126 3 -119 -4z"/>
<path d="M5552 3494 c4 -3 14 -7 25 -9 10 -1 17 -8 15 -15 -1 -6 2 -9 8 -5 6
3 8 10 6 14 -3 4 1 8 9 8 19 0 19 -6 -1 -28 -12 -13 -12 -19 -3 -25 7 -4 10
-3 6 3 -4 6 0 16 8 23 30 25 17 40 -32 40 -25 0 -44 -3 -41 -6z"/>
<path d="M5560 3466 c0 -2 8 -10 18 -17 15 -13 16 -12 3 4 -13 16 -21 21 -21
13z"/>
<path d="M5679 3453 c-13 -16 -12 -17 4 -4 9 7 17 15 17 17 0 8 -8 3 -21 -13z"/>
<path d="M5635 3449 c-4 -6 -5 -12 -2 -15 2 -3 7 2 10 11 7 17 1 20 -8 4z"/>
<path d="M6865 3226 c10 -14 19 -26 22 -26 7 0 -17 39 -28 46 -6 3 -3 -5 6
-20z"/>
<path d="M6623 3223 c0 -9 4 -10 14 -2 7 6 13 12 13 14 0 1 -6 2 -13 2 -8 0
-14 -6 -14 -14z"/>
<path d="M622 2975 c4 -4 3 -14 -4 -22 -6 -7 -9 -15 -7 -18 3 -2 10 4 17 15 9
15 9 21 -1 26 -6 4 -9 4 -5 -1z"/>
<path d="M4510 3204 c0 -6 7 -17 15 -24 8 -7 15 -9 15 -5 0 4 8 1 17 -6 9 -8
14 -9 10 -2 -4 6 -4 13 0 16 5 2 3 3 -3 1 -6 -1 -17 3 -23 9 -6 6 -11 7 -11 2
0 -6 -5 -3 -10 5 -5 8 -10 10 -10 4z"/>
<path d="M4585 3171 c-6 -11 9 -23 19 -14 9 9 7 23 -3 23 -6 0 -12 -4 -16 -9z"/>
<path d="M6844 2971 c0 -16 4 -27 8 -25 4 2 5 14 3 26 -7 32 -13 32 -11 -1z"/>
<path d="M6884 2931 c7 -10 3 -12 -15 -6 -13 4 -21 4 -17 0 12 -13 58 -14 65
-2 3 7 3 9 -2 5 -4 -4 -15 -2 -23 5 -13 10 -14 9 -8 -2z"/>
<path d="M3077 2876 c-4 -9 -3 -14 2 -11 5 3 12 1 16 -5 3 -6 -4 -11 -17 -11
-18 -1 -19 -2 -4 -6 26 -7 39 10 23 31 -13 17 -14 17 -20 2z"/>
<path d="M3044 2813 c-3 -10 -4 -22 -4 -27 1 -5 -2 -12 -7 -15 -17 -13 -42
-71 -32 -77 5 -3 9 -2 8 3 -3 20 2 27 12 13 8 -12 9 -10 4 8 -5 16 -3 22 7 20
7 -2 12 5 12 15 -1 9 2 17 6 17 5 0 15 14 24 30 14 28 13 30 -6 30 -11 0 -22
-8 -24 -17z"/>
<path d="M2405 1891 c-3 -5 -2 -12 3 -15 5 -3 9 1 9 9 0 17 -3 19 -12 6z"/>
<path d="M2502 1866 c7 -8 15 -12 17 -11 5 6 -10 25 -20 25 -5 0 -4 -6 3 -14z"/>
<path d="M2399 1855 c-1 -3 -2 -8 -3 -13 -2 -13 -56 -67 -56 -56 0 6 3 14 7
18 4 3 8 14 9 22 1 9 -1 13 -4 9 -4 -4 -6 -10 -5 -13 1 -4 -4 -14 -12 -22 -8
-9 -11 -26 -8 -43 5 -25 7 -26 18 -10 7 10 12 20 10 23 -4 6 22 30 32 30 5 0
9 5 9 10 1 6 2 11 4 13 4 5 8 37 4 37 -2 0 -5 -2 -5 -5z"/>
<path d="M2295 1771 c-3 -12 -11 -21 -16 -21 -6 0 -7 -4 -4 -10 11 -18 23 -11
28 18 6 33 1 41 -8 13z"/>
<path d="M2960 3089 c0 -5 5 -7 10 -4 6 3 10 8 10 11 0 2 -4 4 -10 4 -5 0 -10
-5 -10 -11z"/>
<path d="M2676 2793 c-6 -14 -5 -15 5 -6 7 7 10 15 7 18 -3 3 -9 -2 -12 -12z"/>
<path d="M5364 1805 c106 -175 171 -259 253 -327 70 -58 100 -74 67 -37 -12
13 -56 76 -99 139 -93 138 -163 225 -245 305 l-62 60 86 -140z"/>
<path d="M5415 1550 c10 -11 20 -20 23 -20 3 0 -3 9 -13 20 -10 11 -20 20 -23
20 -3 0 3 -9 13 -20z"/>
<path d="M4056 3007 c3 -10 9 -15 12 -12 3 3 0 11 -7 18 -10 9 -11 8 -5 -6z"/>
<path d="M5680 2111 c124 -136 219 -211 347 -272 58 -28 107 -49 109 -46 12
12 -150 146 -292 241 -88 58 -181 123 -209 143 -44 33 -39 26 45 -66z"/>
<path d="M6356 2755 c-3 -8 0 -17 6 -21 7 -4 8 -3 4 4 -4 7 -2 12 4 12 6 0 13
-7 16 -15 4 -8 10 -15 15 -15 12 0 -12 38 -27 44 -7 3 -15 -2 -18 -9z"/>
<path d="M6411 2743 c7 -10 15 -20 16 -22 2 -2 3 3 3 11 0 9 -7 19 -16 22 -15
6 -15 4 -3 -11z"/>
<path d="M2216 2311 c-4 -7 -5 -15 -2 -18 9 -9 19 4 14 18 -4 11 -6 11 -12 0z"/>
<path d="M6217 2193 c-4 -3 -7 -13 -7 -21 0 -18 13 -7 16 13 2 17 1 18 -9 8z"/>
<path d="M5030 1146 c0 -2 8 -10 18 -17 15 -13 16 -12 3 4 -13 16 -21 21 -21
13z"/>
<path d="M1856 1135 c4 -8 8 -15 10 -15 2 0 4 7 4 15 0 8 -4 15 -10 15 -5 0
-7 -7 -4 -15z"/>
<path d="M5616 1017 c3 -10 9 -15 12 -12 3 3 0 11 -7 18 -10 9 -11 8 -5 -6z"/>
</g>
</svg>
