<?xml version="1.0" standalone="no"?>
<!DOCTYPE svg PUBLIC "-//W3C//DTD SVG 20010904//EN"
 "http://www.w3.org/TR/2001/REC-SVG-20010904/DTD/svg10.dtd">
<svg version="1.0" xmlns="http://www.w3.org/2000/svg"
 width="740.000000pt" height="740.000000pt" viewBox="0 0 740.000000 740.000000"
 preserveAspectRatio="xMidYMid meet">
<metadata>
Created by potrace 1.14, written by Peter Selinger 2001-2017
</metadata>
<g transform="translate(0.000000,740.000000) scale(0.100000,-0.100000)"
fill="#000000" stroke="none">
<path d="M3502 6942 c5 -46 3 -62 -8 -66 -7 -3 -16 0 -20 6 -4 6 -3 8 4 4 6
-3 13 -2 16 3 4 5 -2 8 -11 6 -19 -3 -20 -6 -9 -75 l7 -45 -19 40 c-10 22 -24
57 -31 77 -7 21 -17 41 -23 45 -7 4 -9 1 -6 -9 4 -8 0 -15 -8 -15 -7 0 -11 3
-9 7 2 3 -5 7 -16 7 -10 1 -19 0 -19 -1 0 -10 37 -106 80 -206 27 -63 56 -153
66 -200 18 -89 17 -162 -6 -505 -15 -229 7 -458 75 -770 73 -336 119 -594 130
-740 8 -98 12 -112 31 -119 8 -3 13 -2 10 3 -3 5 3 11 14 14 15 4 22 -1 26
-19 6 -22 8 -23 19 -8 6 9 17 14 23 10 13 -8 18 11 27 99 7 65 43 213 54 219
10 6 -8 -175 -19 -202 -11 -25 -14 -169 -4 -159 7 7 33 139 39 197 2 19 9 89
15 155 6 66 16 134 21 150 6 17 14 87 18 157 6 97 13 136 29 169 22 43 18 58
-15 59 -16 0 -16 -14 2 171 29 292 61 428 174 741 97 270 105 335 72 600 -25
195 -27 220 -17 237 6 9 5 12 -2 7 -6 -3 -14 -2 -17 4 -5 8 -11 8 -20 0 -9 -8
-15 -8 -20 0 -25 40 -34 -88 -15 -205 43 -264 35 -336 -70 -645 -127 -377
-144 -488 -156 -1040 -6 -309 -7 -316 -35 -400 l-28 -85 0 120 c-1 66 -4 287
-7 490 -9 491 1 592 101 1010 49 209 44 332 -24 580 -12 44 -24 69 -32 67 -9
-2 -9 1 -2 10 9 13 8 69 -2 97 -4 11 -9 10 -25 -4 -11 -10 -26 -15 -34 -12
-11 5 -17 -5 -22 -39 -5 -36 -1 -60 21 -117 70 -188 79 -225 79 -352 0 -109
-4 -132 -37 -245 -89 -300 -113 -421 -123 -620 -4 -69 -8 -127 -10 -129 -2 -2
-4 76 -4 175 0 196 9 295 43 484 21 121 24 183 13 355 -3 41 -1 62 3 50 5 -11
7 -23 4 -27 -2 -5 0 -8 6 -8 22 0 -1 158 -42 295 -9 28 -21 70 -27 94 -11 40
-12 42 -26 25 -9 -11 -12 -13 -9 -6 5 9 1 12 -10 10 -13 -2 -21 8 -31 37 l-13
40 5 -51 c3 -32 1 -54 -5 -58 -7 -5 -8 -1 -4 11 6 16 5 16 -10 4 -14 -11 -17
-11 -17 0 0 9 -3 10 -8 4 -4 -5 -17 -10 -29 -11 -18 0 -26 9 -39 48 -24 72
-38 73 -32 0z m235 -313 c24 -112 22 -309 -5 -489 -12 -74 -23 -175 -27 -225
-3 -49 -8 -114 -10 -144 -7 -73 10 -356 40 -691 26 -294 43 -574 25 -430 -5
41 -17 144 -26 228 -9 84 -19 151 -21 148 -3 -2 2 -82 11 -178 17 -191 22
-285 14 -293 -2 -3 -10 39 -17 93 -15 120 -43 276 -71 402 -100 444 -136 699
-120 870 4 44 7 31 13 -70 9 -161 18 -240 26 -236 3 2 7 -24 8 -58 1 -33 7
-74 13 -91 8 -25 9 -22 3 20 -3 28 -6 151 -6 275 -1 194 3 250 26 407 15 100
28 222 28 270 1 74 3 82 10 48 11 -54 11 -196 -1 -335 -12 -155 -18 -378 -11
-475 6 -73 7 -67 13 80 8 166 25 318 58 516 29 168 24 313 -15 484 -3 11 2 6
9 -11 8 -17 23 -69 33 -115z"/>
<path d="M3653 5545 c0 -22 2 -30 4 -17 2 12 2 30 0 40 -3 9 -5 -1 -4 -23z"/>
<path d="M3702 5075 c0 -16 2 -22 5 -12 2 9 2 23 0 30 -3 6 -5 -1 -5 -18z"/>
<path d="M2977 6908 c2 -24 31 -110 63 -193 87 -222 105 -306 130 -595 22
-248 69 -466 162 -750 56 -169 106 -373 87 -353 -15 16 -179 414 -218 531 -51
151 -85 322 -106 527 -8 88 -21 178 -27 200 -6 22 -13 46 -14 54 -1 7 -7 18
-13 24 -6 6 -11 16 -11 21 0 6 5 4 10 -4 6 -9 10 -10 10 -3 0 7 -7 16 -16 21
-11 6 -17 25 -19 58 -2 55 -23 100 -121 264 -35 60 -64 114 -64 121 0 7 -7 4
-15 -7 -14 -18 -14 -17 -5 11 8 25 7 27 -3 12 -31 -47 -38 -53 -28 -25 8 20 7
26 -4 24 -8 -1 -17 -5 -21 -8 -9 -10 31 -93 85 -178 137 -213 150 -262 181
-660 22 -283 78 -475 262 -899 152 -353 174 -407 228 -561 42 -120 50 -135 69
-133 15 2 25 -5 33 -22 11 -25 28 -34 28 -16 0 38 -49 248 -91 392 -43 144
-52 190 -55 269 l-4 95 35 -130 c40 -149 111 -458 120 -527 8 -53 30 -82 41
-53 11 29 -34 327 -86 565 -136 625 -155 787 -131 1098 29 359 17 446 -95 691
-30 66 -39 79 -60 79 -13 0 -24 -2 -24 -4 0 -2 20 -49 45 -105 87 -192 99
-292 66 -554 -12 -93 -21 -188 -21 -210 0 -23 -4 -45 -9 -50 -6 -6 -11 -41
-13 -80 l-3 -70 -24 69 c-19 56 -22 81 -18 135 3 36 9 77 13 90 7 22 5 23 -32
17 l-39 -7 -1 173 c-1 215 -15 265 -140 522 -74 153 -89 176 -99 162 -11 -15
-13 -15 -19 -1 -11 31 -24 14 -19 -27z m326 -1189 c20 -47 43 -113 51 -146 15
-57 39 -274 31 -281 -10 -10 -86 276 -110 412 -23 137 -22 138 28 15z m151
-430 c9 -48 7 -217 -3 -199 -11 20 -22 230 -11 230 4 0 10 -14 14 -31z"/>
<path d="M4542 6893 c-7 -10 -10 -12 -7 -5 3 6 2 12 -3 12 -14 0 -32 -114 -32
-201 0 -131 -20 -290 -45 -366 -14 -40 -60 -155 -104 -255 -137 -318 -181
-482 -241 -888 -34 -228 -62 -326 -94 -324 -12 2 -16 -6 -15 -30 1 -17 -6 -76
-15 -131 -19 -113 -54 -308 -62 -344 -5 -21 -3 -23 10 -12 11 9 16 10 16 2 0
-6 4 -11 9 -11 20 0 76 204 120 441 24 129 37 171 71 240 51 101 91 171 96
166 2 -1 -26 -115 -61 -252 -55 -217 -91 -338 -175 -597 -14 -46 -15 -58 -5
-58 8 0 17 5 20 11 4 6 13 8 21 5 28 -11 56 19 99 104 88 177 199 446 191 467
-3 8 -2 11 3 8 12 -7 24 31 15 46 -4 7 -3 9 3 6 5 -3 33 54 63 126 129 318
240 531 367 705 53 72 58 88 19 55 -16 -13 -15 -11 3 9 13 15 27 25 31 23 9
-6 33 22 36 42 2 11 -1 12 -11 3 -8 -7 -13 -16 -12 -20 1 -4 -1 -8 -5 -9 -13
-2 -7 13 18 42 26 31 36 35 28 10 -3 -10 6 -1 19 20 14 21 27 38 31 38 9 -1 9
10 0 17 -4 4 -4 1 0 -5 5 -8 2 -11 -7 -7 -10 3 -17 -4 -21 -21 -4 -16 -11 -23
-18 -19 -9 6 -9 9 0 12 7 2 12 12 12 23 0 10 7 19 15 19 8 0 15 5 15 11 0 5
-4 8 -9 5 -11 -7 -8 20 3 31 4 4 6 1 4 -7 -2 -8 2 -14 9 -13 7 2 10 -4 7 -12
-13 -32 12 -13 39 30 43 68 76 140 92 203 17 63 59 353 56 390 0 15 3 21 11
16 7 -4 8 -3 4 5 -11 18 -28 1 -22 -23 5 -20 4 -20 -9 -3 -7 11 -11 26 -8 35
4 10 -8 1 -25 -18 l-31 -35 5 39 c2 21 7 43 11 49 4 6 1 7 -8 1 -8 -4 -20 -9
-27 -10 -11 -2 -11 0 0 13 12 14 11 15 -8 5 -18 -9 -24 -8 -35 6 -13 15 -12
16 3 4 13 -11 18 -11 24 0 4 7 4 10 -1 6 -4 -4 -14 -3 -21 3 -18 14 -39 -38
-59 -144 -60 -313 -82 -377 -194 -567 -40 -66 -74 -120 -77 -120 -15 0 11 91
38 135 139 226 156 277 164 510 3 83 10 176 15 209 8 44 8 61 -2 70 -8 7 -10
7 -6 0 3 -6 0 -11 -7 -11 -9 0 -12 7 -8 16 5 14 3 14 -10 3 -13 -10 -18 -10
-24 -1 -5 8 -3 10 7 4 8 -5 10 -4 6 0 -42 46 -68 -36 -87 -272 -18 -223 -46
-304 -186 -545 -82 -139 -174 -328 -215 -438 l-24 -65 -3 63 c-4 75 15 139 60
206 17 26 29 49 27 51 -2 2 -17 5 -34 7 -26 3 -32 -2 -62 -60 l-33 -64 0 -148
c0 -178 -13 -227 -91 -360 -29 -49 -55 -88 -57 -86 -5 5 34 216 64 346 54 238
83 318 230 620 135 280 155 349 179 614 9 99 18 182 20 186 2 4 -2 7 -10 7 -8
0 -12 -4 -9 -8 2 -4 -1 -11 -7 -15 -7 -4 -9 -3 -6 2 3 6 2 16 -4 24 -7 13 -9
12 -9 -2 0 -9 -4 -19 -9 -22 -5 -4 -7 4 -4 16 3 17 2 19 -5 9 -8 -12 -11 -11
-13 3 -4 15 -5 15 -17 -1z m554 -281 c-17 -16 -18 -16 -5 5 7 12 15 20 18 17
3 -2 -3 -12 -13 -22z m-530 -866 c-9 -41 -36 -112 -60 -158 -48 -92 -156 -277
-156 -266 0 16 75 220 106 288 42 91 116 222 122 215 2 -2 -3 -37 -12 -79z
m-292 -817 c-58 -173 -111 -321 -116 -329 -8 -12 -8 -11 -4 4 4 10 27 94 51
186 25 93 54 193 64 223 23 66 103 239 108 233 2 -2 -44 -145 -103 -317z"/>
<path d="M4322 6887 c-8 -9 -9 -51 -4 -133 18 -301 9 -368 -90 -642 -66 -183
-100 -296 -122 -405 -17 -83 -28 -182 -18 -172 3 3 6 18 7 32 0 15 7 28 15 30
10 3 11 2 4 -4 -6 -4 -10 -16 -8 -26 5 -35 12 -28 19 20 14 101 77 312 152
506 113 296 122 338 129 597 4 132 3 181 -5 170 -10 -13 -11 -13 -12 0 -1 8
-1 19 0 23 1 5 -3 6 -9 2 -6 -3 -8 -10 -5 -15 3 -5 1 -11 -4 -14 -16 -10 -23
14 -10 32 11 14 11 15 -1 5 -17 -15 -34 -17 -25 -3 9 15 -1 12 -13 -3z"/>
<path d="M2385 6593 c16 -21 54 -67 84 -103 132 -157 176 -247 270 -552 53
-171 98 -295 100 -277 1 3 -10 39 -24 80 -14 41 -48 157 -76 259 -71 266 -116
351 -285 545 -72 82 -119 116 -69 48z"/>
<path d="M2312 6593 c-7 -10 -10 -11 -6 -3 5 11 1 10 -14 -3 -11 -11 -26 -16
-31 -12 -23 14 -7 -8 89 -122 144 -170 175 -231 276 -540 116 -356 171 -466
427 -853 123 -186 139 -200 45 -40 -222 375 -309 580 -409 964 -71 274 -124
373 -295 554 -63 67 -70 72 -82 55z m364 -617 c2 -11 0 -15 -2 -8 -7 16 -25
16 -18 -1 3 -8 -3 -20 -13 -27 -15 -12 -16 -12 -5 0 17 20 15 35 -4 20 -8 -8
-14 -9 -13 -4 1 5 0 11 -1 14 -7 19 -7 39 1 34 5 -3 12 2 15 10 5 14 8 14 22
-1 9 -9 17 -25 18 -37z"/>
<path d="M2630 5995 c-15 -18 1 -26 23 -10 15 10 15 14 3 18 -8 3 -20 0 -26
-8z"/>
<path d="M5358 6596 c-30 -32 -46 -55 -41 -59 3 -3 -3 -4 -13 -3 -10 2 -20 9
-22 17 -3 11 -2 12 6 1 7 -11 10 -11 15 3 4 9 3 14 -2 10 -5 -3 -12 1 -14 7
-4 10 -6 10 -6 1 -1 -7 -5 -13 -11 -13 -5 0 -7 8 -5 18 3 9 -2 1 -11 -18 -9
-19 -23 -64 -31 -100 -83 -362 -86 -368 -342 -685 -179 -223 -252 -358 -416
-770 -131 -328 -188 -459 -266 -605 -32 -62 -56 -116 -53 -121 3 -5 -4 -25
-16 -45 -25 -40 -20 -56 10 -29 32 29 198 274 375 555 334 529 412 625 756
927 172 151 226 229 315 461 24 62 51 126 59 141 14 28 14 29 -17 35 -25 5
-29 10 -25 28 6 23 6 23 -12 -1 l-19 -25 -3 51 c-4 44 -2 50 11 40 13 -10 13
-10 3 4 -7 9 -10 19 -6 23 4 4 -1 4 -11 0 -15 -6 -17 -4 -11 7 8 12 6 12 -8 1
-14 -12 -16 -11 -12 10 4 21 3 21 -20 -7 -14 -16 -28 -40 -31 -52 -7 -28 -44
-26 -55 3 -6 15 -8 16 -8 3 -1 -15 27 -47 36 -41 1 1 3 0 3 -3 0 -3 0 -8 0
-11 0 -4 -6 -1 -13 5 -8 6 -17 7 -21 3 -4 -4 -6 0 -4 8 2 8 -2 14 -9 15 -20 0
-26 14 -13 30 7 8 10 15 6 15 -3 0 5 25 19 55 13 31 19 52 12 48 -16 -10 -57
-12 -51 -2 2 4 -2 14 -10 21 -9 9 -11 20 -5 35 10 26 6 29 -13 9z m-107 -368
c-28 -111 -75 -206 -150 -305 -83 -110 -97 -116 -25 -12 65 95 131 230 165
336 12 40 25 71 27 69 2 -3 -6 -42 -17 -88z m164 -55 c-20 -59 -48 -128 -62
-153 -27 -46 -121 -170 -129 -170 -7 0 3 15 53 84 50 67 97 165 139 284 16 45
30 78 32 73 2 -5 -13 -58 -33 -118z m44 -144 c-46 -92 -106 -166 -217 -266
-287 -260 -395 -382 -526 -593 -85 -137 -95 -150 -50 -65 57 109 175 281 258
376 41 48 141 146 223 218 171 153 243 232 298 329 22 39 41 69 43 67 2 -2
-11 -32 -29 -66z m-205 -1 c-28 -56 -81 -123 -206 -260 -138 -152 -245 -291
-307 -395 -48 -81 -63 -96 -30 -30 65 127 160 253 343 452 70 77 147 168 169
203 46 69 56 79 31 30z m-969 -1522 c-36 -69 -75 -135 -86 -148 -10 -13 -4 2
13 33 18 31 55 99 83 152 27 52 52 94 53 92 2 -2 -26 -60 -63 -129z m-122
-211 c-3 -9 -8 -14 -10 -11 -3 3 -2 9 2 15 9 16 15 13 8 -4z"/>
<path d="M5396 6538 c3 -5 10 -6 15 -3 13 9 11 12 -6 12 -8 0 -12 -4 -9 -9z"/>
<path d="M3793 6470 c5 -29 13 -33 13 -5 0 14 -4 25 -8 25 -4 0 -7 -9 -5 -20z"/>
<path d="M3020 6435 c0 -5 5 -17 10 -25 5 -8 10 -10 10 -5 0 6 -5 17 -10 25
-5 8 -10 11 -10 5z"/>
<path d="M1953 6311 c-12 -11 -24 -17 -29 -13 -4 4 -4 -1 -1 -10 5 -13 1 -16
-16 -13 -15 3 -4 -12 38 -47 138 -119 265 -270 265 -315 0 -8 -23 19 -50 60
-46 69 -247 274 -292 298 -11 6 -21 4 -32 -7 -9 -8 -16 -12 -16 -7 0 4 -10 -3
-21 -17 -11 -14 -17 -19 -13 -11 5 9 3 12 -4 7 -7 -4 -12 -11 -12 -16 0 -5 51
-51 113 -103 163 -137 201 -186 336 -432 126 -227 246 -400 384 -553 35 -39
45 -57 38 -66 -6 -7 -8 -22 -4 -34 3 -12 1 -22 -3 -21 -15 1 -201 210 -274
307 -38 51 -102 148 -141 215 -40 67 -99 169 -133 226 -76 130 -159 220 -295
321 -89 66 -107 76 -113 62 -4 -9 -7 -13 -7 -8 -1 5 -9 2 -19 -7 -10 -10 -22
-14 -27 -10 -4 5 -5 3 -1 -4 3 -6 57 -50 120 -97 149 -112 227 -198 354 -391
119 -181 212 -308 300 -410 44 -52 58 -73 50 -83 -16 -19 10 -99 45 -139 16
-19 70 -61 118 -94 49 -34 103 -77 121 -97 31 -36 158 -226 158 -237 0 -3 -17
6 -37 20 l-38 27 40 -34 c46 -38 235 -232 230 -236 -1 -2 -40 25 -86 60 -46
35 -180 127 -299 205 -550 363 -618 421 -853 728 -179 235 -263 302 -486 389
-89 35 -94 36 -113 20 -10 -10 -16 -24 -14 -31 7 -17 10 -17 -69 12 -36 14
-64 21 -60 15 3 -5 -2 -10 -12 -10 -15 0 -16 -2 -3 -10 13 -8 12 -10 -2 -10
-30 0 -20 -28 20 -55 20 -13 89 -48 152 -76 108 -48 200 -96 200 -105 0 -2
-21 6 -47 17 -115 50 -323 118 -329 107 -4 -7 -9 -6 -15 3 -6 10 -9 11 -9 2 0
-20 4 -28 13 -26 4 2 7 -2 7 -7 0 -6 24 -22 53 -36 31 -15 41 -23 24 -19 -39
8 -67 -2 -67 -26 0 -10 -3 -18 -7 -16 -5 1 -9 -2 -10 -7 -1 -5 -7 -12 -13 -16
-7 -5 31 -21 91 -40 184 -56 289 -114 415 -228 122 -109 139 -131 114 -147
-17 -11 -11 -35 20 -80 45 -65 88 -93 201 -131 55 -19 119 -47 142 -62 23 -16
85 -53 137 -82 52 -29 118 -74 145 -100 58 -53 107 -91 190 -146 110 -74 117
-73 15 1 -71 52 -140 114 -140 127 0 5 10 2 23 -5 54 -34 457 -235 457 -229 0
4 4 1 8 -5 7 -11 51 -39 245 -160 4 -2 7 0 7 5 0 16 -179 134 -192 126 -6 -4
-8 -3 -5 3 4 6 -8 20 -25 31 -24 16 -35 18 -40 9 -5 -8 -8 -7 -8 5 0 11 -93
73 -282 187 -156 93 -292 177 -303 186 -13 11 -8 10 15 -3 19 -11 105 -59 190
-107 85 -48 218 -124 295 -169 77 -44 146 -81 153 -82 7 -2 67 -41 132 -88
186 -134 186 -104 0 38 -52 40 -121 90 -152 111 -32 21 -58 40 -58 42 0 16
249 -162 329 -236 19 -17 38 -31 42 -31 13 0 20 18 9 25 -18 11 -11 27 10 20
36 -12 13 17 -101 124 -60 57 -134 133 -163 170 -57 70 -199 291 -193 298 10
9 132 -138 179 -215 28 -46 76 -116 108 -155 73 -92 196 -210 210 -202 13 8 0
33 -31 60 -38 34 -169 195 -169 208 0 7 8 2 18 -9 65 -81 196 -224 200 -220 8
8 -66 100 -180 223 -69 75 -115 136 -141 185 l-38 73 75 -80 c42 -44 120 -134
173 -199 139 -170 156 -187 170 -178 10 6 3 24 -24 68 -45 73 -219 307 -290
391 -184 217 -267 346 -374 585 -66 144 -134 254 -228 363 -34 39 -70 94 -82
125 -84 210 -176 332 -343 458 -36 27 -37 27 -63 3z m-856 -726 c0 -8 -4 -12
-9 -9 -5 3 -6 10 -3 15 9 13 12 11 12 -6z m1482 -119 c26 -39 75 -120 108
-181 33 -60 70 -128 83 -150 l23 -40 -27 30 c-76 88 -296 431 -296 463 0 14
65 -59 109 -122z m-144 -38 c11 -24 12 -28 2 -16 -8 10 -17 15 -21 11 -3 -3 1
-15 11 -25 25 -28 10 -21 -18 8 -13 14 -18 24 -10 22 7 -2 16 3 19 11 3 9 0
11 -8 6 -9 -5 -11 -4 -6 3 11 17 14 15 31 -20z m-750 -260 c28 -29 40 -44 29
-35 -19 16 -22 16 -28 2 -3 -9 -10 -13 -16 -10 -5 3 -10 0 -10 -7 -1 -7 -6 -3
-13 10 -7 12 -16 19 -21 15 -4 -4 0 6 8 22 11 21 12 32 4 42 -26 32 2 8 47
-39z m1015 -266 c0 -7 -112 70 -148 102 -22 20 -62 86 -62 103 0 4 47 -39 105
-97 58 -58 105 -106 105 -108z m113 4 c66 -74 58 -75 -40 -2 -61 44 -93 87
-93 122 0 21 38 -13 133 -120z m-96 -481 c0 -8 -4 -12 -9 -9 -5 3 -6 10 -3 15
9 13 12 11 12 -6z m101 -57 c4 2 7 -1 9 -7 1 -7 0 -8 -4 -1 -2 5 -8 8 -12 5
-5 -2 -19 8 -32 23 l-24 27 28 -25 c16 -14 32 -24 35 -22z"/>
<path d="M1648 5173 c-3 -11 -2 -27 3 -34 7 -12 9 -11 9 1 0 13 1 13 10 0 9
-14 10 -12 10 15 0 3 -3 5 -7 4 -4 0 -10 7 -13 17 -6 16 -7 16 -12 -3z"/>
<path d="M5731 6225 c-12 -21 -46 -96 -77 -168 -83 -200 -126 -262 -282 -412
-398 -382 -423 -412 -741 -903 -162 -251 -255 -381 -362 -508 -38 -45 -69 -85
-69 -90 0 -26 205 209 327 376 74 102 263 371 273 389 5 10 7 21 4 23 -3 3 8
16 23 29 16 13 64 70 107 127 107 139 233 270 379 394 254 215 319 289 399
458 22 47 60 124 83 171 31 62 40 90 33 100 -8 11 -9 10 -4 -3 3 -10 1 -20 -5
-23 -5 -4 -9 -3 -8 2 1 4 1 13 0 19 -1 13 -41 60 -41 49 0 -5 8 -18 18 -29 13
-16 13 -18 1 -8 -9 6 -20 8 -24 4 -5 -4 -6 -2 -2 3 3 6 2 17 -2 24 -6 9 -15 2
-30 -24z"/>
<path d="M5829 6018 c-23 -40 -63 -109 -88 -153 -57 -99 -164 -212 -300 -318
-332 -259 -447 -382 -705 -752 -174 -249 -331 -456 -432 -570 -49 -55 -75 -90
-58 -78 55 39 226 228 334 368 29 39 83 102 120 140 37 39 116 124 177 190
142 154 258 266 358 345 118 93 364 252 377 244 6 -4 8 -3 5 3 -4 6 10 24 31
39 55 42 122 105 122 115 0 5 -10 9 -22 9 l-21 0 23 25 c16 17 27 22 34 15 18
-18 26 -11 80 73 55 85 135 227 121 215 -4 -4 -18 4 -30 18 l-23 27 20 33 c11
19 24 37 29 40 5 3 9 11 9 17 -1 7 -14 -3 -29 -21 -18 -21 -31 -29 -35 -23 -4
6 -5 15 -2 20 4 5 -4 7 -16 4 -19 -4 -20 -3 -8 7 12 10 11 11 -8 7 -18 -4 -21
-3 -12 8 7 8 7 15 1 19 -5 4 -29 -26 -52 -66z m-68 -305 c-11 -16 -54 -62 -97
-103 -77 -74 -76 -73 17 27 52 56 95 102 97 103 2 0 -6 -12 -17 -27z"/>
<path d="M1300 5918 c0 -19 -2 -20 -11 -8 -8 12 -10 12 -7 -4 3 -21 108 -90
171 -112 75 -27 201 -110 282 -186 70 -66 84 -76 95 -63 7 8 17 12 23 8 21
-13 -82 114 -120 147 -51 45 -151 109 -249 159 -90 45 -103 49 -83 24 8 -9 -6
-3 -31 13 -70 48 -70 48 -70 22z m524 -337 c15 -17 15 -19 0 -32 -16 -13 -17
-12 -12 9 4 15 1 25 -10 32 -10 5 -12 10 -6 10 6 0 18 -8 28 -19z"/>
<path d="M6017 5705 c-32 -35 -56 -66 -55 -69 2 -2 -6 -14 -17 -27 -11 -12
-15 -19 -8 -16 6 4 14 3 18 -3 3 -5 1 -10 -4 -10 -6 0 -11 -5 -11 -11 0 -6 14
-1 30 11 17 12 28 25 25 30 -3 5 -1 11 5 15 5 3 10 0 10 -7 1 -7 21 9 46 36
48 52 72 88 55 84 -5 -2 -16 5 -23 15 -12 16 -18 11 -71 -48z m83 11 c0 -6 -7
-1 -15 10 -8 10 -15 23 -15 28 0 6 7 1 15 -10 8 -10 15 -23 15 -28z m-54 -60
c-8 -12 -23 -20 -35 -19 -12 2 -22 -2 -22 -7 -1 -6 -2 -14 -3 -19 -2 -16 -14
-23 -26 -16 -8 5 -8 11 -1 19 6 7 9 15 6 18 -9 9 56 59 67 52 8 -5 9 -1 5 12
-7 18 -7 18 8 0 13 -17 13 -23 1 -40z"/>
<path d="M6013 5667 c-3 -5 -1 -13 5 -19 7 -7 13 -4 21 9 8 15 7 20 -5 20 -8
0 -17 -4 -21 -10z"/>
<path d="M6154 5673 c-136 -195 -164 -231 -225 -287 -36 -33 -115 -90 -175
-125 -60 -35 -149 -87 -199 -116 l-90 -53 -22 20 c-24 22 -39 20 -114 -18 -53
-26 -86 -61 -152 -161 -68 -102 -111 -141 -260 -233 -72 -45 -166 -107 -207
-138 -70 -53 -350 -327 -350 -344 0 -4 42 34 93 85 140 140 233 215 348 283
57 34 113 64 124 68 11 3 -67 -80 -173 -184 -106 -105 -197 -190 -203 -190 -6
0 -31 -23 -56 -50 -32 -35 -49 -48 -57 -41 -8 7 -26 -4 -57 -34 -26 -24 -49
-41 -53 -37 -4 3 -4 -1 -1 -10 6 -16 9 -16 33 0 15 9 64 47 110 84 46 38 88
68 94 68 6 0 9 3 5 6 -3 3 11 20 31 37 20 18 61 54 91 82 29 27 58 48 65 47 6
-2 8 -1 4 3 -3 3 15 25 40 48 26 23 55 52 66 65 13 16 22 20 29 13 7 -7 15 -7
26 2 10 7 9 3 -3 -10 -10 -13 -23 -20 -27 -17 -5 3 -9 -1 -9 -8 0 -11 -2 -10
-9 0 -7 11 -9 11 -14 -1 -3 -7 -1 -20 4 -28 7 -11 9 -11 9 -1 0 7 5 10 12 6 7
-4 8 -3 4 4 -4 7 -2 12 4 12 6 0 63 42 128 92 271 214 421 317 602 415 41 23
108 59 148 80 39 22 69 43 65 47 -4 4 0 4 9 1 10 -4 24 1 36 13 11 11 22 18
25 16 13 -13 174 111 265 204 108 111 139 151 107 138 -16 -6 -16 -4 -4 11 9
11 10 14 2 9 -8 -4 -13 -2 -13 8 0 35 -20 20 -78 -58 -71 -96 -189 -212 -256
-251 -29 -17 -45 -33 -42 -41 3 -7 1 -16 -4 -19 -6 -4 -10 1 -10 10 0 9 -3 15
-8 13 -4 -1 -28 -11 -55 -22 -45 -18 -52 -28 -48 -66 2 -13 1 -13 -8 0 -10 14
-16 7 -12 -14 1 -5 -5 -4 -13 4 -17 13 -21 22 -8 18 6 -3 12 5 12 17 0 2 -35
-12 -77 -31 -123 -57 -163 -74 -163 -69 0 3 87 48 193 101 230 115 301 161
388 251 64 66 195 228 199 247 1 5 -5 13 -14 18 -9 5 -13 14 -10 20 4 6 3 9
-2 6 -11 -7 -35 17 -27 26 4 3 1 6 -6 6 -7 0 -9 5 -6 10 3 6 4 10 1 10 -3 0
-26 -30 -52 -67z m-210 -448 c-8 -20 -41 -38 -48 -26 -3 5 2 15 11 22 12 10
14 10 9 2 -4 -7 -3 -13 2 -13 6 0 12 7 16 15 3 8 8 15 10 15 3 0 3 -7 0 -15z
m-140 -71 c3 -8 2 -12 -4 -9 -6 3 -10 10 -10 16 0 14 7 11 14 -7z m-14 -18 c0
-3 -4 -8 -10 -11 -5 -3 -10 -1 -10 4 0 6 5 11 10 11 6 0 10 -2 10 -4z m-860
-540 c0 -2 -8 -10 -17 -17 -16 -13 -17 -12 -4 4 13 16 21 21 21 13z"/>
<path d="M5923 5618 c-29 -46 -31 -57 -15 -70 15 -11 15 -11 4 4 -8 10 -9 19
-3 22 5 3 12 0 15 -6 3 -7 3 -3 0 10 -3 13 0 29 6 37 7 8 10 15 7 15 -3 0 -9
-6 -14 -12z"/>
<path d="M5875 5587 c-15 -12 -16 -15 -4 -22 8 -5 11 -5 7 0 -4 4 0 14 10 21
23 18 11 18 -13 1z"/>
<path d="M5855 5546 c10 -14 19 -26 22 -26 7 0 -17 39 -28 46 -6 3 -3 -5 6
-20z"/>
<path d="M5820 5556 c0 -2 8 -10 18 -17 15 -13 16 -12 3 4 -13 16 -21 21 -21
13z"/>
<path d="M5803 5535 c0 -8 4 -12 9 -9 5 3 6 10 3 15 -9 13 -12 11 -12 -6z"/>
<path d="M5740 5515 c-14 -7 -25 -19 -25 -27 -1 -7 -7 -12 -15 -10 -11 3 -10
-1 3 -16 9 -10 14 -23 10 -27 -5 -5 -1 -4 8 3 9 6 18 9 21 6 3 -3 16 10 29 28
15 21 17 28 6 19 -14 -11 -17 -11 -17 0 0 8 -9 1 -19 -14 -10 -16 -21 -25 -24
-19 -4 5 8 23 25 40 34 36 34 37 -2 17z m12 -57 c-7 -7 -12 -8 -12 -2 0 14 12
26 19 19 2 -3 -1 -11 -7 -17z"/>
<path d="M1820 5516 c0 -2 8 -10 18 -17 15 -13 16 -12 3 4 -13 16 -21 21 -21
13z"/>
<path d="M5836 5509 c2 -4 -2 -10 -8 -12 -8 -4 -9 -6 -2 -6 6 -1 17 5 23 12 8
10 7 14 -4 14 -8 0 -12 -4 -9 -8z"/>
<path d="M6263 5383 c-138 -177 -218 -239 -415 -323 -202 -86 -278 -122 -278
-132 0 -5 -4 -7 -9 -3 -5 3 -13 1 -16 -5 -4 -6 -3 -10 2 -9 20 3 25 -2 13 -16
-7 -9 -10 -18 -6 -22 3 -3 6 -1 6 6 0 7 5 9 10 6 6 -4 10 -3 9 2 -3 19 2 27
10 14 13 -20 51 3 46 29 -2 11 0 18 5 15 20 -13 0 -60 -46 -106 -63 -62 -301
-209 -424 -261 -52 -22 -100 -42 -106 -44 -6 -3 -14 2 -17 10 -4 10 -1 13 7
10 8 -3 20 4 28 15 8 12 17 18 21 15 3 -3 10 5 17 18 11 22 11 22 -5 3 -17
-22 -24 -23 -34 -6 -5 7 -57 -30 -132 -92 -103 -86 -264 -209 -616 -471 -31
-24 -38 -33 -27 -39 19 -11 71 21 339 213 222 158 405 274 405 255 0 -17 -476
-358 -625 -447 -71 -43 -114 -78 -95 -78 9 0 7 -6 -5 -20 -19 -21 -19 -21 17
-17 19 2 52 13 72 25 30 18 55 26 98 31 3 1 4 9 2 19 -3 12 9 25 48 45 320
172 378 195 593 237 163 31 219 53 340 130 118 76 180 100 258 100 43 0 48 2
42 18 -4 9 -9 25 -12 34 -4 14 -13 16 -52 12 -86 -11 -139 -35 -251 -114 -125
-89 -167 -107 -346 -151 -68 -16 -143 -37 -166 -45 -65 -22 -67 -16 -8 18 30
18 58 31 63 30 4 -1 7 3 7 9 0 6 7 8 16 5 9 -4 13 -2 8 5 -4 7 -1 10 7 7 8 -3
84 31 170 74 268 133 372 169 711 243 239 53 334 83 414 131 62 37 232 171
255 201 13 17 13 17 -5 3 -18 -14 -18 -13 -12 10 6 19 5 21 -3 10 -9 -12 -11
-9 -12 15 0 26 -2 27 -9 10 -6 -15 -9 -16 -9 -4 -1 9 8 24 19 34 28 25 25 39
-5 19 -23 -15 -24 -15 -31 10 -6 24 -7 24 -29 10 -23 -15 -24 -14 -41 18 -9
18 -21 36 -26 39 -9 6 76 94 108 112 11 6 9 15 -11 47 -14 22 -25 44 -25 50 0
18 -57 -28 -179 -144 -158 -150 -218 -186 -426 -263 -149 -55 -169 -61 -127
-34 18 11 60 30 95 42 34 11 63 22 65 24 2 2 -1 12 -7 23 -9 17 -4 21 47 42
110 44 193 101 305 210 80 77 107 109 97 115 -9 5 -11 4 -6 -3 4 -7 2 -12 -3
-12 -6 0 -11 7 -11 15 0 8 -12 26 -27 41 -16 15 -19 21 -8 13 19 -13 19 -13 2
7 -9 11 -14 24 -10 27 3 4 4 7 1 7 -2 0 -32 -35 -65 -77z m182 -360 c-113
-100 -202 -152 -340 -199 -108 -36 -135 -39 -92 -12 12 9 63 50 112 92 101 86
162 120 256 140 103 23 110 21 64 -21z m-829 -95 c-3 -13 -5 -25 -5 -27 -1 -2
-7 2 -14 8 -8 6 -18 7 -23 3 -4 -4 -2 1 5 10 7 10 17 15 22 12 5 -3 9 0 9 5 0
6 2 11 5 11 3 0 3 -10 1 -22z m359 -64 c-83 -72 -203 -132 -380 -189 -38 -12
-79 -26 -90 -29 -15 -6 -14 -3 5 11 14 10 53 43 86 75 57 52 70 59 180 93 66
20 144 45 174 55 30 10 57 19 60 19 3 0 -13 -15 -35 -35z m350 -31 c-50 -39
-179 -87 -347 -129 -99 -25 -182 -43 -184 -41 -3 2 82 27 188 56 118 31 224
67 273 91 90 43 99 46 70 23z m-600 -192 c-13 -11 -81 -34 -71 -24 4 5 22 13
39 20 40 15 43 15 32 4z m-425 -75 c0 -2 -46 -30 -102 -62 -57 -31 -136 -79
-175 -106 -40 -27 -73 -47 -73 -44 0 14 224 164 279 187 77 32 71 30 71 25z
m17 -39 c-266 -172 -436 -291 -431 -299 5 -7 2 -8 -6 -3 -7 4 -15 3 -19 -2 -7
-12 -384 -223 -397 -223 -5 0 18 16 50 36 32 19 145 93 250 163 246 165 371
243 474 297 78 41 120 58 79 31z m-67 -101 c0 -5 -69 -46 -78 -46 -6 1 69 50
76 50 1 0 2 -2 2 -4z"/>
<path d="M1920 5446 c0 -2 8 -10 18 -17 15 -13 16 -12 3 4 -13 16 -21 21 -21
13z"/>
<path d="M1925 5400 c-11 -18 170 -233 274 -323 161 -142 183 -149 49 -16 -74
74 -169 181 -212 238 -71 97 -98 122 -111 101z m35 -6 c0 -8 -19 -13 -24 -6
-3 5 1 9 9 9 8 0 15 -2 15 -3z"/>
<path d="M5649 5393 c-13 -16 -12 -17 4 -4 16 13 21 21 13 21 -2 0 -10 -8 -17
-17z"/>
<path d="M3050 5220 c7 -14 43 -79 80 -145 160 -284 341 -640 354 -699 4 -18
11 -25 16 -20 19 19 -9 136 -47 199 -22 37 -36 74 -37 97 -1 38 -22 53 -28 21
-2 -11 -23 19 -55 78 -28 53 -103 183 -168 290 -109 182 -145 237 -115 179z"/>
<path d="M6624 5096 c-10 -8 -17 -16 -14 -19 3 -2 14 4 24 14 23 22 18 25 -10
5z"/>
<path d="M4023 5011 c3 -19 3 -40 -1 -45 -11 -18 -13 -84 -3 -91 6 -3 8 5 5
19 -2 14 0 27 5 30 10 6 7 103 -4 114 -4 4 -4 -8 -2 -27z"/>
<path d="M675 4770 c-3 -5 0 -10 7 -10 10 0 10 -2 0 -8 -7 -5 -14 -18 -16 -29
-4 -20 0 -21 127 -22 141 -2 220 -11 304 -36 78 -23 180 -71 232 -109 72 -53
401 -204 545 -251 72 -23 181 -55 242 -70 l112 -29 -11 -24 c-9 -20 -9 -26 1
-30 26 -8 11 -20 -20 -15 -95 13 -463 94 -504 110 -13 5 -15 3 -10 -8 5 -9 2
-8 -6 2 -7 9 -58 35 -112 58 -55 23 -173 81 -263 127 -91 47 -171 83 -179 80
-8 -3 -13 -2 -10 2 3 5 -8 13 -23 19 -28 10 -28 10 -17 -18 6 -16 18 -32 28
-35 10 -3 107 -48 216 -101 215 -104 456 -191 607 -218 89 -17 251 -40 479
-70 170 -22 189 -28 306 -89 103 -53 235 -96 299 -96 45 0 38 17 -11 30 -131
33 -288 90 -288 103 0 3 39 -4 87 -14 47 -10 88 -17 90 -15 4 4 -99 29 -172
42 -22 3 -71 20 -108 36 -46 20 -97 32 -160 39 -51 5 -111 16 -133 25 -45 16
-89 54 -63 54 25 0 493 -120 529 -135 19 -8 60 -20 90 -25 30 -5 85 -25 122
-44 39 -20 64 -28 61 -20 -3 8 1 14 8 14 57 2 -247 110 -506 180 -301 81 -314
85 -430 156 -280 171 -304 181 -500 209 -167 24 -211 42 -293 119 -25 24 -35
28 -41 17 -7 -10 -24 -6 -83 22 -41 20 -101 42 -134 51 -120 31 -385 48 -399
26z m423 -275 c-3 -3 -9 2 -12 12 -6 14 -5 15 5 6 7 -7 10 -15 7 -18z m667
-47 c54 -11 322 -134 312 -144 -11 -11 -407 133 -432 157 -10 10 10 8 120 -13z"/>
<path d="M6738 4695 c-35 -17 -116 -60 -181 -93 -151 -78 -229 -103 -456 -142
-360 -61 -538 -120 -961 -315 -241 -112 -469 -210 -575 -249 -55 -20 -118 -44
-139 -54 -37 -15 -38 -17 -15 -22 21 -5 17 -9 -29 -24 -51 -17 -53 -19 -39
-39 17 -25 23 -25 185 -3 134 19 204 20 372 5 137 -12 158 -8 305 55 69 29
106 32 165 11 53 -19 50 -19 50 5 0 14 -11 22 -37 29 -58 16 -76 14 -191 -26
-105 -36 -110 -37 -274 -39 -93 -1 -168 2 -168 6 0 13 66 23 111 17 21 -3 39
-2 39 3 0 4 37 10 83 12 65 4 102 13 177 43 81 33 106 39 173 39 68 0 77 3 77
19 0 11 -12 23 -31 31 l-31 13 78 21 c216 58 287 65 645 67 418 3 419 3 669
125 101 50 189 95 195 102 7 8 6 9 -4 3 -11 -6 -13 -4 -8 8 7 19 -11 17 -87
-10 -52 -18 -56 -11 -6 12 34 15 38 20 27 33 -9 13 -9 14 1 8 6 -4 12 -3 12 3
0 5 -6 12 -12 14 -9 4 -9 6 1 6 11 1 10 5 -5 17 -10 8 -13 13 -7 9 8 -4 11 -1
7 9 -8 20 -22 14 -174 -73 -68 -39 -161 -83 -205 -98 -75 -24 -95 -26 -300
-29 -182 -2 -204 -1 -130 7 305 31 361 40 448 69 95 32 337 144 337 155 0 4
-6 5 -13 2 -8 -3 -14 1 -14 9 0 7 4 11 8 9 4 -3 9 2 13 10 12 32 -19 22 -156
-49 -215 -112 -279 -129 -598 -161 -183 -19 -303 -37 -420 -65 -142 -34 -161
-41 -154 -51 3 -6 -5 -7 -23 -4 -22 5 -25 4 -13 -5 12 -9 9 -10 -13 -5 -19 4
-26 2 -22 -5 4 -7 -3 -9 -22 -5 -19 5 -24 3 -15 -3 17 -12 -70 -38 -89 -27 -7
5 -10 4 -5 -3 7 -12 -58 -37 -74 -27 -5 3 -10 2 -10 -4 0 -12 -96 -45 -109
-37 -5 3 -14 -1 -21 -9 -7 -8 -18 -15 -24 -15 -6 0 -4 5 4 10 10 7 11 10 2 10
-7 0 -15 -7 -19 -16 -4 -11 -13 -14 -30 -9 -17 4 -23 2 -18 -6 5 -8 1 -9 -15
-4 -16 5 -20 4 -15 -5 5 -9 1 -10 -15 -5 -14 5 -20 3 -16 -3 4 -6 -3 -8 -16
-5 -19 4 -20 3 -8 -6 13 -9 12 -11 -5 -12 -11 -1 -31 -1 -43 0 -16 1 -21 -2
-16 -10 4 -8 3 -9 -5 -5 -12 8 -107 -19 -128 -37 -7 -5 -13 -6 -13 -1 0 5 -4
3 -9 -4 -6 -11 -10 -10 -15 4 -4 10 -4 15 0 11 4 -4 12 -3 18 2 6 5 29 14 51
21 22 7 144 55 270 105 574 230 710 265 1150 290 256 15 346 43 613 188 62 34
68 40 59 55 -2 4 -2 1 0 -6 2 -8 -4 -12 -14 -10 -9 2 -18 15 -20 31 -3 19 0
26 7 22 6 -3 7 -11 4 -17 -4 -7 -2 -8 4 -4 6 4 9 12 7 19 -3 7 11 21 32 32 20
11 38 27 41 35 3 12 2 12 -6 2 -7 -11 -10 -10 -16 3 -3 10 -12 15 -21 11 -8
-3 -15 -1 -15 5 0 6 -5 7 -12 3 -7 -4 -8 -3 -4 4 4 6 12 10 19 8 7 -1 9 -1 4
1 -4 3 -5 9 -1 14 3 5 2 9 -3 10 -4 0 -16 2 -25 4 -9 2 -45 -12 -80 -30z
m-2068 -819 c0 -2 -7 -7 -16 -10 -8 -3 -12 -2 -9 4 6 10 25 14 25 6z"/>
<path d="M5194 4658 l-19 -23 23 19 c21 18 27 26 19 26 -2 0 -12 -10 -23 -22z"/>
<path d="M5104 4628 l-19 -23 23 19 c12 11 22 21 22 23 0 8 -8 2 -26 -19z"/>
<path d="M5143 4625 c0 -8 4 -12 9 -9 5 3 6 10 3 15 -9 13 -12 11 -12 -6z"/>
<path d="M620 4580 c8 -5 10 -10 3 -10 -6 0 -10 -8 -9 -17 2 -10 -2 -21 -8
-26 -13 -9 136 -7 212 3 29 3 55 4 57 1 3 -3 13 -6 21 -7 9 -1 13 1 9 4 -4 4
-12 7 -18 7 -7 0 -12 9 -12 20 0 17 -9 21 -70 26 -116 11 -202 10 -185 -1z
m244 -31 c-3 -5 -10 -7 -15 -3 -5 3 -7 10 -3 15 3 5 10 7 15 3 5 -3 7 -10 3
-15z"/>
<path d="M3360 4564 c0 -6 7 -19 16 -30 14 -18 14 -18 3 6 -14 31 -19 36 -19
24z"/>
<path d="M4876 4552 c-3 -5 1 -9 9 -9 8 0 12 4 9 9 -3 4 -7 8 -9 8 -2 0 -6 -4
-9 -8z"/>
<path d="M4826 4501 c-4 -6 -3 -18 2 -27 8 -15 10 -14 16 2 8 20 -8 42 -18 25z"/>
<path d="M4790 4464 c-8 -9 -15 -26 -17 -37 -2 -17 -1 -19 6 -7 5 8 8 17 5 21
-2 4 4 13 13 20 15 12 16 12 9 -6 -6 -16 -5 -18 5 -7 9 8 10 15 3 22 -8 8 -15
6 -24 -6z"/>
<path d="M3410 4461 c0 -6 4 -13 10 -16 6 -3 7 1 4 9 -7 18 -14 21 -14 7z"/>
<path d="M3430 4421 c0 -6 4 -13 10 -16 6 -3 7 1 4 9 -7 18 -14 21 -14 7z"/>
<path d="M4733 4395 c0 -8 4 -12 9 -9 5 3 6 10 3 15 -9 13 -12 11 -12 -6z"/>
<path d="M4321 4176 l-24 -31 28 27 c16 15 27 29 24 31 -2 3 -15 -10 -28 -27z"/>
<path d="M1488 4129 c-5 -30 -2 -33 61 -63 61 -28 74 -31 169 -30 107 0 114
-3 97 -48 -11 -29 -249 12 -559 96 -89 24 -185 49 -214 55 -82 17 -243 12
-397 -12 -123 -19 -140 -24 -143 -42 l-4 -20 17 20 c15 19 16 19 4 -5 -7 -14
-14 -31 -15 -39 -2 -8 -9 -18 -16 -22 -9 -6 -6 -9 10 -9 13 0 20 4 17 10 -3 5
0 7 9 4 8 -3 67 9 133 27 138 37 278 48 375 30 35 -7 124 -32 198 -56 213 -69
268 -83 396 -105 165 -29 170 -29 344 -34 85 -3 161 -5 168 -6 6 0 12 -10 12
-23 0 -46 93 -59 233 -32 80 15 106 14 192 -9 l50 -13 -85 -7 c-47 -3 -182
-14 -300 -23 -314 -25 -628 -23 -805 5 -77 12 -158 26 -179 32 -22 5 -43 7
-47 4 -4 -2 -9 0 -11 6 -1 5 -14 11 -28 14 -14 2 -25 5 -25 6 0 1 -9 3 -20 5
-21 4 -57 12 -65 15 -3 1 -9 1 -15 0 -5 -1 -7 2 -3 6 4 4 2 14 -5 23 -11 14
-10 14 6 2 14 -11 17 -11 17 0 0 11 2 11 9 -1 6 -8 7 -18 4 -24 -3 -5 -1 -6 6
-2 6 4 9 12 6 17 -4 5 -1 9 4 9 6 0 11 -6 11 -14 0 -8 4 -17 9 -20 4 -3 6 5 4
17 -4 19 -24 28 -151 64 -155 45 -267 66 -317 59 -16 -2 -45 -4 -63 -5 -30 -1
-32 -2 -18 -17 19 -18 21 -31 4 -16 -10 8 -13 1 -14 -30 -1 -40 -1 -40 30 -34
83 17 159 18 256 1 153 -25 162 -34 35 -34 -106 -1 -335 -32 -384 -52 -22 -9
-22 -11 -7 -28 12 -13 13 -18 4 -20 -7 -1 -40 -5 -73 -10 -33 -4 -51 -9 -40
-11 11 -1 23 -2 26 -2 3 1 5 -14 5 -31 -1 -21 3 -31 12 -29 8 1 11 -2 7 -8 -3
-6 -10 -8 -15 -5 -5 3 -11 2 -14 -3 -13 -21 87 -9 231 29 145 38 168 42 283
42 92 0 161 -7 264 -26 76 -15 142 -29 145 -33 7 -8 -150 2 -192 12 -28 6 -28
6 -25 -32 3 -37 5 -39 58 -56 86 -26 152 -23 283 17 112 34 120 35 285 35 94
0 206 -5 249 -11 108 -16 323 -16 413 -1 64 10 405 59 548 78 24 3 42 7 39 10
-2 2 -131 -7 -285 -21 -246 -22 -564 -34 -551 -20 6 5 427 62 539 72 47 5 126
6 175 3 50 -3 99 -2 110 2 63 21 62 20 35 28 -14 5 -82 8 -151 9 -82 1 -144 6
-178 17 -29 8 -51 17 -48 20 2 2 35 0 73 -5 122 -16 304 -24 304 -13 0 11 -18
14 -165 31 -64 7 -49 8 73 3 101 -3 152 -2 152 5 0 14 -57 28 -247 57 -178 28
-227 42 -397 115 -146 63 -156 65 -315 63 -140 -2 -138 -3 -253 56 -5 2 -8 -7
-8 -21 0 -35 -16 -44 -90 -52 -82 -9 -132 4 -199 50 -28 19 -52 35 -55 35 -2
0 -6 -14 -8 -31z m590 -121 l67 -22 -40 -7 c-106 -21 -201 -4 -260 46 -19 15
-15 16 73 10 51 -3 123 -15 160 -27z m278 -12 c109 -45 126 -59 59 -50 -53 7
-156 41 -227 75 l-43 20 61 -4 c39 -3 94 -18 150 -41z m-628 -50 c-1 -14 -5
-23 -9 -20 -7 4 0 44 7 44 2 0 3 -11 2 -24z m-1152 -21 c-1 -8 -5 -17 -8 -21
-5 -4 -4 16 1 34 3 9 9 -1 7 -13z m1884 -50 c24 -15 -176 -46 -224 -33 -40 10
-76 28 -76 39 0 9 284 4 300 -6z m-1360 -71 c19 -3 36 -7 37 -8 1 -1 -84 -2
-190 -2 -105 1 -219 -3 -252 -7 -90 -13 -59 3 37 18 81 14 289 13 368 -1z m87
-6 c2 -19 -21 -25 -32 -8 -4 6 1 7 12 3 15 -6 16 -4 6 8 -10 13 -10 16 0 16 7
0 14 -9 14 -19z"/>
<path d="M2678 3633 c-27 -9 -48 -19 -48 -23 0 -9 -116 -4 -130 5 -6 3 -10 -1
-10 -9 0 -8 8 -17 18 -20 24 -8 92 -4 98 5 2 5 11 6 19 2 8 -3 15 1 15 8 0 7
3 10 6 6 3 -3 27 1 52 9 54 16 267 20 242 4 -8 -5 -35 -10 -59 -10 -34 0 -42
-3 -37 -15 4 -10 -6 -17 -34 -25 -333 -90 -421 -110 -476 -110 -33 0 -92 -8
-131 -19 -49 -12 -94 -17 -145 -14 -40 2 -132 4 -203 4 -155 1 -209 -14 -349
-93 -110 -62 -155 -78 -215 -78 -52 0 -94 21 -71 35 9 5 11 4 6 -3 -5 -8 1
-12 18 -12 14 0 28 5 31 10 4 6 10 8 14 6 4 -3 8 1 8 8 0 7 -6 13 -13 13 -7 0
-10 -5 -7 -10 3 -6 1 -7 -6 -3 -9 6 -9 11 1 24 7 9 8 13 2 9 -7 -4 -17 -1 -23
7 -6 7 -22 11 -36 8 -19 -3 -25 -10 -24 -31 l1 -26 8 25 c5 15 8 18 9 8 1 -9
-2 -23 -5 -31 -5 -14 -10 -14 -41 -1 l-35 15 7 -38 c4 -21 9 -41 11 -44 2 -3
31 -12 64 -19 97 -21 154 -9 293 59 151 74 177 80 347 87 106 4 131 3 116 -7
-12 -7 -40 -9 -82 -5 l-62 6 7 -27 c6 -23 14 -29 47 -34 50 -7 39 -12 -116
-48 -158 -38 -240 -48 -492 -61 -304 -16 -384 -34 -589 -131 -87 -42 -107 -55
-98 -66 6 -7 8 -13 3 -13 -4 0 -3 -5 4 -12 16 -16 15 -28 -3 -28 -8 0 -15 6
-15 13 0 8 -3 7 -10 -3 -23 -37 18 -27 157 38 81 38 158 73 171 76 12 3 32 9
45 12 12 3 -23 -17 -78 -44 -96 -47 -235 -129 -235 -138 0 -3 4 -3 9 0 5 3 12
-1 15 -10 3 -8 2 -13 -3 -9 -11 6 -8 -22 4 -32 4 -4 5 -2 0 6 -6 10 -4 12 4 7
9 -6 9 -11 1 -21 -7 -9 -8 -15 -1 -19 11 -7 212 115 206 124 -2 3 4 6 13 7 9
1 54 15 98 31 92 35 134 43 354 72 209 27 395 64 510 101 112 37 552 210 547
216 -2 2 -35 -9 -73 -23 -137 -52 -353 -124 -465 -153 -151 -40 -260 -58 -399
-65 -63 -4 -149 -9 -190 -12 -135 -11 -66 7 86 21 293 28 428 61 784 189 199
72 328 106 400 105 58 -1 185 30 316 76 209 74 235 101 39 41 -172 -52 -196
-51 -34 3 80 26 150 51 157 55 27 16 -3 34 -74 45 -102 15 -190 13 -246 -6z
m-548 -288 c-46 -18 -61 -18 -30 0 14 8 34 14 45 14 13 0 8 -5 -15 -14z"/>
<path d="M4418 3611 c11 -6 10 -10 -4 -15 -34 -13 2 -25 84 -27 46 -1 118 -11
160 -21 64 -16 97 -18 194 -13 103 6 122 4 161 -13 38 -17 46 -18 51 -6 3 8 4
14 3 14 -1 0 -20 7 -42 16 -40 15 -39 15 50 10 50 -3 134 -14 189 -25 54 -12
101 -21 105 -20 19 2 -58 24 -159 45 -114 24 -151 27 -555 38 -77 2 -153 9
-168 15 -34 13 -89 15 -69 2z m517 -50 c12 -5 -24 -9 -90 -9 -60 -1 -119 3
-130 8 -26 11 192 12 220 1z"/>
<path d="M5760 3505 c-59 -15 -125 -24 -174 -25 -44 0 -76 -3 -72 -7 4 -5 110
-8 234 -8 227 0 227 0 286 -28 32 -15 61 -26 62 -24 2 2 6 17 10 33 6 29 3 32
-54 57 -76 34 -160 35 -292 2z"/>
<path d="M6388 3523 c7 -3 16 -2 19 1 4 3 -2 6 -13 5 -11 0 -14 -3 -6 -6z"/>
<path d="M4372 3515 c9 -9 220 -39 343 -49 44 -4 100 -9 125 -11 25 -3 117 -9
205 -15 239 -16 391 -54 700 -174 150 -58 237 -76 366 -76 85 0 117 -5 194
-30 51 -16 121 -34 155 -39 34 -6 73 -17 86 -26 29 -19 34 -19 34 0 0 11 12
15 48 16 26 0 54 2 62 3 8 2 53 7 100 11 117 10 114 10 127 18 6 4 12 15 12
25 0 9 3 37 6 62 4 25 4 42 1 40 -5 -6 -16 -72 -17 -105 -1 -11 -3 -14 -6 -7
-4 10 -10 9 -27 -5 -21 -18 -21 -18 -3 3 9 11 15 23 12 26 -9 9 -14 48 -7 47
22 -4 32 3 32 22 0 21 -3 21 -87 15 -245 -17 -351 -19 -384 -6 -19 7 -63 16
-99 20 -36 4 -103 20 -150 34 -387 119 -524 139 -1050 151 -300 7 -395 13
-590 36 -177 20 -196 22 -188 14z m1138 -111 c154 -18 320 -58 465 -112 l100
-37 -75 -3 c-91 -4 -140 6 -340 70 -85 27 -202 60 -260 74 -57 14 -106 27
-109 30 -5 4 8 3 219 -22z"/>
<path d="M6437 3509 c6 -6 9 -18 6 -25 -3 -9 2 -14 14 -14 10 0 42 -6 71 -14
43 -11 52 -11 48 0 -3 8 2 11 13 9 10 -2 24 1 32 6 12 8 12 10 -1 8 -8 -1 -22
1 -30 4 -15 6 -146 37 -158 37 -3 0 -1 -5 5 -11z m47 -14 c5 0 11 -7 13 -15 3
-10 2 -11 -4 -4 -4 6 -15 10 -24 9 -9 -2 -16 3 -16 11 0 7 5 10 11 6 6 -4 15
-7 20 -7z"/>
<path d="M5388 3503 c7 -3 16 -2 19 1 4 3 -2 6 -13 5 -11 0 -14 -3 -6 -6z"/>
<path d="M6414 3502 c3 -6 -2 -13 -11 -15 -14 -4 -13 -5 5 -6 23 -1 30 13 10
25 -6 4 -8 3 -4 -4z"/>
<path d="M3020 3492 c-8 -2 -58 -24 -110 -48 -79 -35 -115 -45 -211 -58 -131
-17 -191 -37 -281 -93 -85 -52 -112 -63 -158 -63 -34 0 -40 -3 -40 -21 0 -20
4 -21 48 -17 54 5 73 14 175 84 67 46 86 54 171 69 52 9 100 15 106 13 7 -2
-11 -16 -39 -31 -78 -43 -61 -41 32 2 45 21 105 44 132 50 55 13 188 71 180
79 -3 3 0 11 7 19 13 16 9 22 -12 15z"/>
<path d="M5428 3493 c7 -3 16 -2 19 1 4 3 -2 6 -13 5 -11 0 -14 -3 -6 -6z"/>
<path d="M5468 3483 c7 -3 16 -2 19 1 4 3 -2 6 -13 5 -11 0 -14 -3 -6 -6z"/>
<path d="M4290 3440 c0 -11 8 -23 18 -26 9 -4 45 -19 80 -35 35 -16 93 -34
128 -40 42 -7 75 -20 94 -35 33 -28 40 -30 40 -9 0 18 -9 19 80 -6 73 -20 235
-99 315 -153 89 -61 177 -94 303 -115 128 -22 179 -41 236 -91 l34 -30 10 29
c7 20 7 32 -1 40 -16 16 123 15 176 -1 24 -7 65 -35 99 -67 47 -43 61 -52 69
-40 5 8 9 20 9 27 0 17 2 16 79 -23 119 -60 241 -106 315 -120 39 -7 141 -16
226 -20 85 -4 176 -8 203 -10 42 -2 46 -1 35 13 -16 18 -16 16 0 34 8 10 24
14 44 12 l32 -4 -22 20 c-25 23 -26 29 -11 50 8 12 9 10 4 -7 -6 -23 9 -40 21
-22 4 8 3 9 -4 5 -14 -8 -15 -4 -6 18 3 9 17 16 30 16 31 0 31 14 -1 28 -22
10 -24 15 -15 32 6 11 19 20 28 20 11 0 18 9 20 24 2 24 -2 26 -73 43 -11 2
-54 6 -95 8 -140 6 -165 12 -307 72 -8 3 -13 -2 -13 -12 0 -9 -5 -13 -10 -10
-6 4 -8 10 -5 15 3 5 2 11 -3 14 -4 2 -8 -6 -8 -19 0 -13 4 -21 8 -19 4 3 8
-1 8 -8 1 -7 7 -2 15 12 l15 25 -5 -30 -6 -30 15 25 c8 14 15 19 16 12 0 -6 6
-11 13 -10 7 2 12 -6 11 -19 -1 -13 3 -23 7 -23 9 0 13 15 10 33 -1 5 3 6 8 2
6 -3 7 -13 4 -22 -5 -12 -3 -14 8 -7 22 13 36 13 36 -1 0 -11 -25 -13 -111
-11 -127 3 -184 20 -471 140 -88 37 -214 83 -280 102 -118 34 -370 81 -555
104 -164 20 -561 81 -660 101 -109 22 -154 25 -130 8 14 -9 -22 -7 -87 7 -18
3 -23 0 -23 -16z m912 -160 c402 -58 578 -107 853 -238 88 -41 192 -88 230
-103 39 -16 65 -28 59 -29 -21 0 -154 49 -315 118 -167 71 -362 139 -479 166
-69 17 -411 80 -495 91 -45 7 -95 24 -70 25 6 0 103 -14 217 -30z m-6 -35
c269 -49 485 -111 656 -186 91 -40 338 -168 338 -174 0 -3 -37 12 -82 31 -272
117 -416 168 -603 214 -188 47 -177 35 33 -35 242 -81 254 -88 137 -80 -114 8
-239 44 -335 97 -41 23 -126 68 -188 100 -62 32 -109 58 -104 58 5 0 71 -11
148 -25z m-101 -61 c50 -24 117 -59 150 -79 l60 -35 -45 6 c-54 8 -96 28 -212
101 -130 81 -112 84 47 7z"/>
<path d="M6590 3449 c0 -3 10 -9 23 -13 30 -8 82 -8 74 1 -4 3 -20 6 -37 5
-16 0 -30 3 -30 7 0 4 -7 8 -15 8 -8 0 -15 -4 -15 -8z"/>
<path d="M3012 3428 c-27 -7 -116 -55 -182 -98 -8 -6 -25 -15 -37 -22 -13 -6
-23 -15 -23 -19 0 -5 29 9 64 30 89 55 142 81 164 81 19 0 60 25 52 33 -3 2
-20 0 -38 -5z"/>
<path d="M2985 3365 c-48 -31 -117 -76 -154 -102 -254 -181 -340 -228 -538
-296 -109 -37 -131 -42 -128 -28 2 9 -3 24 -10 34 -12 17 -15 17 -49 -4 -20
-12 -39 -20 -41 -18 -2 3 40 30 94 62 123 72 160 101 61 46 -266 -145 -469
-228 -685 -279 -271 -64 -300 -72 -375 -101 -90 -34 -180 -96 -300 -204 -47
-43 -104 -90 -127 -106 -31 -22 -40 -34 -36 -49 3 -11 9 -20 13 -20 13 0 119
85 217 173 115 104 209 157 343 196 58 17 193 56 300 86 113 32 235 75 289
101 52 24 96 42 99 40 5 -6 -133 -71 -247 -116 -73 -30 -79 -34 -77 -58 1 -15
-2 -34 -8 -42 -10 -13 -9 -13 7 -1 9 7 17 10 17 5 0 -4 5 -3 11 3 6 6 18 9 25
6 8 -3 14 0 14 7 0 6 4 9 8 6 5 -3 45 10 90 28 45 18 82 30 82 27 0 -8 -199
-94 -258 -111 -32 -10 -38 -16 -35 -34 3 -13 -3 -28 -13 -37 -16 -12 -17 -12
-9 1 6 12 5 12 -4 4 -10 -9 -9 -17 4 -37 l16 -25 -83 -43 c-69 -36 -108 -68
-228 -184 -161 -157 -188 -176 -277 -201 l-62 -17 22 -19 c12 -11 15 -16 7
-12 -12 5 -13 4 -3 -6 10 -11 21 -9 63 8 71 30 123 67 261 185 143 123 250
189 407 253 289 119 495 239 762 445 182 141 374 282 495 364 107 73 145 104
145 117 0 16 -17 8 -105 -47z m-990 -455 c-3 -5 -11 -10 -16 -10 -6 0 -7 5 -4
10 3 6 11 10 16 10 6 0 7 -4 4 -10z m355 -5 c0 -3 -59 -44 -132 -92 -121 -79
-334 -190 -344 -180 -7 6 75 77 139 121 29 20 114 63 188 95 137 61 149 65
149 56z m-663 -177 c1 -30 1 -31 -7 -8 -7 23 -10 22 -14 -5 -2 -21 -21 -14
-21 8 0 12 5 22 12 22 6 0 15 3 19 8 4 4 8 7 9 7 0 0 1 -15 2 -32z m-22 -98
c-3 -5 -1 -11 4 -14 11 -7 42 4 37 13 -2 3 10 7 26 7 l31 1 -24 -18 c-23 -18
-109 -49 -136 -49 -10 0 -11 8 -7 28 8 32 10 35 28 38 15 2 16 -20 1 -33 -4
-4 -5 -3 -1 4 3 6 2 14 -4 18 -5 3 -10 -3 -10 -14 0 -24 4 -25 30 -11 12 6 17
18 15 30 -2 12 0 18 6 15 5 -4 7 -10 4 -15z"/>
<path d="M2400 3370 c-8 -5 -10 -10 -5 -10 6 0 17 5 25 10 8 5 11 10 5 10 -5
0 -17 -5 -25 -10z"/>
<path d="M705 3355 c-5 -2 -36 -11 -67 -20 -32 -10 -55 -22 -52 -26 3 -5 10
-6 16 -3 7 5 8 2 2 -7 -12 -20 -14 -38 -4 -44 5 -3 6 -13 3 -22 -5 -12 -2 -15
13 -11 146 42 143 41 140 62 -2 12 1 27 6 34 6 6 9 12 7 13 -31 6 -40 6 -46
-3 -4 -7 -1 -8 8 -3 11 7 11 5 -1 -11 -8 -10 -15 -20 -16 -22 -1 -2 -1 10 0
27 0 16 3 28 6 26 3 -1 14 1 25 6 18 7 18 8 -5 8 -14 -1 -29 -2 -35 -4z m48
-37 c-6 -7 -9 -21 -8 -31 2 -9 0 -15 -5 -12 -5 3 -11 -1 -14 -7 -3 -7 -3 -2 0
12 6 25 22 50 31 50 3 0 1 -6 -4 -12z m-117 -12 c-1 -8 -8 -21 -15 -30 -16
-19 -1 -22 18 -3 11 10 12 9 5 -3 -5 -8 -9 -19 -9 -24 0 -5 -6 -10 -13 -12 -8
-2 -8 0 -1 3 8 4 8 8 -2 13 -16 10 -21 40 -6 37 6 -1 12 4 13 11 2 19 4 22 8
22 2 0 3 -6 2 -14z"/>
<path d="M1254 3351 c3 -5 15 -7 26 -4 28 7 25 13 -6 13 -14 0 -23 -4 -20 -9z"/>
<path d="M4260 3333 c0 -9 8 -25 18 -36 16 -19 16 -19 -5 -13 -13 4 -23 5 -23
1 0 -9 403 -205 411 -199 4 2 9 1 11 -4 1 -4 73 -42 158 -84 192 -95 314 -183
498 -360 154 -149 208 -183 377 -238 137 -45 207 -83 267 -149 l50 -55 20 27
c18 25 21 26 42 12 32 -21 170 -71 304 -110 110 -32 112 -32 107 -11 -6 20 -6
21 6 1 15 -24 40 -45 54 -44 6 0 4 3 -3 6 -6 2 -10 9 -6 14 3 5 2 8 -3 7 -9
-3 -13 5 -13 25 0 8 4 7 10 -3 5 -8 10 -10 10 -4 0 19 -13 24 -28 11 -13 -10
-14 -9 -8 1 5 8 -4 17 -28 27 -57 24 -42 25 37 3 111 -31 109 -31 95 -5 -10
19 -9 20 3 10 12 -10 15 -8 16 8 1 13 -2 17 -10 12 -7 -4 -6 0 2 10 15 19 26
23 15 5 -4 -7 -3 -8 4 -4 7 4 12 9 12 11 0 13 -94 40 -250 71 -96 20 -209 49
-252 65 -82 32 -209 108 -323 193 -198 150 -471 303 -761 430 -231 101 -284
125 -284 131 0 2 12 0 28 -6 15 -6 86 -32 157 -59 477 -177 646 -265 999 -523
162 -120 260 -165 467 -216 134 -33 138 -33 134 -8 -4 20 -3 21 9 4 13 -16 14
-16 20 -1 4 9 4 19 1 22 -3 3 -5 -1 -5 -8 0 -11 -3 -10 -12 2 -8 10 -57 24
-133 38 -214 39 -293 74 -489 220 -69 52 -124 95 -122 97 2 2 61 -31 132 -73
175 -104 257 -137 484 -196 248 -64 229 -60 223 -37 -6 23 15 52 31 42 6 -4 5
0 -2 9 -17 21 -76 34 -217 48 -229 23 -306 52 -545 207 -346 223 -425 259
-930 425 -151 49 -306 101 -344 114 -38 14 -76 22 -83 20 -9 -4 -11 -1 -7 6 5
7 0 9 -14 6 -12 -4 -20 -2 -17 2 5 7 -7 13 -70 35 -16 6 -17 5 -5 -4 8 -6 10
-11 5 -11 -6 0 -18 9 -28 20 -9 11 -22 20 -29 20 -6 0 -3 -7 8 -15 18 -14 17
-15 -8 -4 -15 7 -25 16 -21 22 3 6 1 7 -5 4 -5 -4 -40 6 -76 23 -56 24 -66 27
-66 13z m1140 -601 c104 -58 356 -239 347 -249 -8 -8 -168 55 -222 88 -55 33
-142 102 -256 202 l-54 48 60 -27 c33 -14 89 -42 125 -62z"/>
<path d="M3050 3333 c-18 -7 -122 -87 -200 -154 -30 -26 -138 -116 -240 -201
-515 -427 -622 -496 -1033 -664 -98 -40 -208 -92 -245 -115 -74 -48 -286 -254
-277 -270 4 -5 11 -7 16 -3 5 3 6 10 3 16 -4 6 -3 8 3 5 5 -3 8 -20 7 -36 -1
-20 2 -29 9 -24 7 4 8 0 3 -12 -4 -10 53 42 126 116 80 81 155 148 190 168 31
18 150 74 265 126 284 126 389 190 593 358 l95 78 -80 -76 c-181 -173 -356
-283 -633 -401 -268 -114 -341 -176 -530 -450 -42 -60 -48 -94 -15 -94 8 0 11
-4 8 -10 -3 -5 -1 -10 5 -10 6 0 9 -4 6 -8 -3 -5 6 -18 19 -30 l24 -21 29 37
c16 20 64 90 106 156 84 130 162 215 247 269 30 19 130 75 222 126 301 163
408 249 726 579 159 166 207 209 217 201 10 -8 22 -8 45 0 18 6 34 11 36 11 3
0 -33 -42 -79 -92 -46 -51 -131 -147 -188 -213 -146 -169 -320 -345 -420 -425
-47 -37 -180 -131 -296 -209 -219 -145 -277 -196 -353 -310 -68 -101 -143
-232 -137 -238 3 -4 6 -3 6 2 0 5 13 -6 29 -24 l30 -33 52 103 c120 240 206
331 444 469 59 34 33 13 -85 -70 -118 -83 -188 -150 -243 -233 -38 -58 -167
-294 -170 -312 -1 -5 6 -10 15 -10 9 0 20 -4 25 -9 4 -5 3 -6 -4 -2 -6 3 -14
2 -17 -3 -4 -5 2 -8 11 -7 12 2 44 53 93 145 122 232 158 268 436 437 87 52
190 120 231 151 89 67 254 230 348 346 38 47 71 84 73 82 2 -2 -12 -34 -31
-71 -39 -78 -74 -117 -130 -146 -37 -19 -38 -20 -22 -38 16 -18 20 -18 47 -4
57 29 104 83 153 176 38 71 69 113 133 177 46 45 86 81 89 77 3 -3 -13 -37
-36 -76 -31 -52 -52 -75 -82 -90 -22 -12 -37 -25 -34 -30 9 -15 27 -12 19 3
-5 9 -4 9 6 0 10 -9 -4 -37 -70 -140 -167 -258 -269 -377 -503 -586 -252 -227
-276 -255 -373 -453 -81 -167 -86 -181 -72 -190 7 -5 8 -3 3 6 -6 9 -4 11 4 5
7 -4 10 -16 7 -28 -11 -45 16 5 81 148 96 210 125 252 276 395 337 319 420
417 598 698 55 86 113 171 128 187 16 17 49 71 75 120 47 90 143 214 115 150
-7 -17 -16 -34 -20 -40 -3 -5 -53 -95 -109 -200 -139 -258 -268 -474 -347
-581 -38 -50 -158 -179 -272 -292 -190 -188 -204 -204 -183 -213 12 -4 22 -12
22 -17 0 -19 -14 -21 -36 -7 -21 14 -24 13 -44 -14 -47 -68 -151 -316 -149
-359 0 -11 2 -13 6 -4 4 10 9 8 20 -7 8 -12 18 -19 23 -16 5 3 10 -3 12 -12 2
-10 27 41 56 112 88 214 126 273 306 474 247 274 316 377 597 888 86 157 118
201 54 72 -64 -126 -285 -519 -342 -608 -71 -109 -144 -205 -277 -361 -189
-221 -237 -294 -316 -479 -23 -53 -46 -107 -53 -121 -17 -38 -19 -46 -6 -29
11 15 14 14 31 -3 18 -18 18 -20 1 -68 -14 -38 -15 -52 -6 -61 10 -10 19 1 40
49 16 34 32 61 37 62 5 0 15 -8 23 -17 10 -12 12 -13 8 -3 -4 8 1 6 10 -5 14
-17 17 -18 25 -5 9 13 11 13 19 0 7 -9 6 -20 -2 -30 -6 -8 -1 -6 11 4 23 20
23 20 29 -3 4 -17 8 -19 14 -9 7 10 9 9 9 -4 0 -10 -3 -18 -7 -18 -5 0 -13
-11 -19 -24 -8 -18 -8 -29 2 -47 12 -23 12 -22 24 21 7 24 14 65 17 90 2 25
13 90 24 145 30 149 76 236 196 368 155 172 247 281 299 360 60 89 157 283
149 297 -3 5 -1 10 5 10 6 0 9 4 6 9 -4 5 -2 11 3 13 13 4 18 34 6 34 -5 0 -9
-7 -7 -16 3 -10 -2 -9 -13 5 l-17 20 7 -20 c5 -16 4 -17 -6 -8 -10 10 -9 15 1
28 7 8 10 15 7 15 -3 0 25 71 63 158 109 256 122 282 131 276 5 -3 9 -10 9
-15 0 -6 -4 -8 -8 -5 -5 3 -9 -2 -9 -10 0 -13 2 -13 15 -1 10 11 11 20 3 34
-8 15 -7 25 5 39 14 18 15 18 5 -3 -7 -14 -8 -24 -1 -28 5 -3 10 -1 10 4 0 17
97 245 143 336 22 44 44 93 48 109 8 28 8 28 -11 11 -22 -20 -25 -14 -9 17 11
20 10 20 -22 -2 -33 -24 -32 -19 3 32 10 15 15 29 10 32 -19 12 -51 -9 -87
-56 -22 -27 -80 -83 -129 -123 -63 -50 -102 -90 -126 -129 -58 -96 -86 -130
-119 -149 -17 -10 -31 -14 -31 -10 0 11 225 290 309 383 115 127 134 150 128
156 -3 3 -15 1 -26 -6 -24 -12 -28 2 -6 20 35 29 0 18 -102 -32 -93 -45 -119
-64 -188 -134 -77 -78 -125 -115 -125 -96 0 11 168 166 275 254 85 69 92 78
45 61z m-115 -199 c-11 -8 -28 -25 -38 -37 l-18 -22 10 22 c6 12 21 29 33 37
29 20 40 20 13 0z m35 -68 c0 -2 -8 -10 -17 -17 -16 -13 -17 -12 -4 4 13 16
21 21 21 13z m99 -71 c-50 -69 -68 -78 -24 -12 21 31 42 57 47 57 5 0 -5 -20
-23 -45z m-149 21 c0 -10 -32 -36 -43 -36 -7 0 -1 9 13 20 26 21 30 23 30 16z
m236 -63 c-18 -38 -48 -99 -68 -138 -20 -38 -75 -158 -123 -265 -183 -411
-291 -612 -400 -747 -26 -32 -115 -128 -199 -213 -169 -172 -226 -240 -262
-313 -31 -59 -42 -57 -17 4 45 114 87 168 308 399 123 129 196 222 280 355 69
109 227 424 219 436 -3 5 1 9 8 10 10 0 10 2 1 6 -9 3 -10 10 -3 23 6 10 6 21
2 24 -5 3 -9 0 -10 -7 -2 -30 -9 -48 -17 -48 -17 0 -12 27 11 61 13 19 24 29
24 22 0 -8 5 -10 12 -6 7 5 8 3 2 -7 -4 -8 -10 -23 -11 -34 -2 -11 55 93 125
230 131 257 140 275 147 275 2 0 -11 -30 -29 -67z m-175 -36 c-42 -63 -115
-137 -134 -137 -3 0 11 30 31 66 25 45 55 81 92 110 30 24 56 41 58 39 2 -2
-19 -37 -47 -78z m-160 9 c-13 -14 -29 -22 -37 -19 -17 6 -19 16 -2 11 7 -3
21 4 32 14 29 26 33 22 7 -6z m-91 -226 c0 -5 -10 -15 -22 -21 -23 -12 -23
-12 -4 10 21 23 26 26 26 11z m-1618 -794 c7 4 8 2 4 -5 -9 -13 -26 -5 -25 12
0 9 2 8 6 -1 2 -6 10 -9 15 -6z m1006 -346 c-12 -17 -26 -29 -32 -27 -14 5
-20 27 -6 27 6 0 18 7 26 15 27 27 35 16 12 -15z m-151 -525 c0 -8 -4 -12 -9
-9 -5 3 -6 10 -3 15 9 13 12 11 12 -6z"/>
<path d="M2588 3274 c-38 -20 -36 -28 2 -9 17 9 30 18 30 20 0 7 -1 6 -32 -11z"/>
<path d="M2750 3280 c0 -5 -5 -9 -11 -7 -6 1 -14 -5 -16 -13 -4 -12 -3 -12 5
-2 5 8 13 13 18 12 5 -1 10 3 12 9 2 6 1 11 -2 11 -3 0 -6 -4 -6 -10z"/>
<path d="M2696 3243 c-6 -14 -5 -15 5 -6 7 7 10 15 7 18 -3 3 -9 -2 -12 -12z"/>
<path d="M2670 3231 c0 -7 -5 -9 -12 -5 -7 5 -8 3 -3 -5 5 -9 10 -10 18 -2 6
6 8 14 4 18 -4 3 -7 1 -7 -6z"/>
<path d="M2623 3208 c-18 -23 -25 -43 -8 -23 9 11 21 19 26 17 6 -1 8 2 4 8
-8 13 -10 13 -22 -2z"/>
<path d="M6896 3212 c-2 -4 -1 -14 3 -21 6 -9 10 -7 14 8 5 20 -7 29 -17 13z"/>
<path d="M4200 3201 c0 -6 7 -26 16 -43 15 -29 18 -30 29 -15 6 9 15 15 19 12
10 -7 -6 8 -36 34 -16 14 -28 19 -28 12z"/>
<path d="M2580 3171 c0 -7 -5 -9 -12 -5 -7 5 -8 3 -3 -5 5 -9 10 -10 18 -2 6
6 8 14 4 18 -4 3 -7 1 -7 -6z"/>
<path d="M2536 3151 c-4 -5 -2 -12 3 -15 5 -4 12 -2 15 3 4 5 2 12 -3 15 -5 4
-12 2 -15 -3z"/>
<path d="M4305 3126 c17 -14 33 -26 38 -26 4 0 7 -7 7 -15 0 -8 3 -14 8 -14
20 3 32 -2 30 -13 -2 -8 5 -12 16 -10 10 2 15 -1 12 -6 -3 -5 2 -9 12 -8 9 0
16 -4 15 -11 -2 -7 12 -22 29 -34 17 -13 28 -17 23 -10 -5 9 -3 12 6 9 8 -3
13 -11 11 -17 -2 -11 97 -80 105 -73 2 2 13 -7 24 -20 11 -13 17 -16 13 -8 -4
9 2 7 17 -6 13 -11 55 -42 92 -68 38 -27 109 -89 159 -140 64 -64 77 -74 44
-35 -25 31 -46 59 -46 63 0 4 28 -12 63 -35 152 -103 300 -220 397 -316 l105
-103 -70 24 c-119 41 -185 75 -239 124 -29 26 -23 18 14 -18 41 -39 110 -90
176 -129 163 -96 177 -109 272 -250 1 -3 10 3 19 12 15 15 22 11 93 -57 88
-84 171 -136 320 -201 58 -25 114 -50 124 -56 11 -6 33 -15 49 -20 25 -7 27
-6 16 7 -6 8 -9 17 -5 21 3 3 6 1 6 -5 0 -7 3 -11 8 -11 4 1 9 0 12 -1 3 -1
13 -3 22 -5 15 -3 16 0 7 17 -7 13 -7 18 -1 14 6 -3 13 -3 16 2 6 10 -88 62
-179 97 -102 40 -244 113 -290 148 -22 17 -137 126 -255 242 -131 128 -260
244 -330 296 -120 90 -362 249 -378 249 -6 0 -57 36 -115 79 -176 133 -554
386 -472 317z m185 -132 c0 -2 -9 0 -20 6 -11 6 -20 13 -20 16 0 2 9 0 20 -6
11 -6 20 -13 20 -16z m75 -50 c17 -14 21 -21 10 -15 -30 14 -61 40 -50 41 6 0
24 -12 40 -26z"/>
<path d="M2513 3128 c1 -7 -4 -12 -11 -10 -8 1 -11 -2 -7 -8 5 -8 11 -8 21 1
7 6 11 15 8 20 -8 13 -14 11 -11 -3z"/>
<path d="M3357 3063 c-45 -89 -125 -315 -221 -629 -52 -171 -111 -353 -130
-405 -47 -131 -50 -138 -30 -104 9 16 65 176 125 355 59 179 108 321 108 317
1 -5 -31 -135 -70 -288 -122 -486 -175 -608 -400 -927 -146 -206 -182 -293
-208 -507 -9 -74 -10 -71 -5 50 2 72 7 144 9 160 12 74 -29 -61 -74 -238 -34
-136 -44 -190 -36 -197 7 -6 15 -6 22 1 8 8 13 7 18 -2 6 -8 4 -10 -5 -4 -9 5
-11 4 -6 -4 6 -9 11 -9 22 0 15 12 17 9 15 -31 0 -23 1 -22 14 8 8 17 18 32
21 32 3 0 3 -4 0 -9 -7 -10 22 -25 43 -22 8 1 10 -2 5 -10 -4 -7 -3 -10 3 -6
14 9 31 98 38 202 16 240 47 324 216 591 32 50 80 133 108 185 56 104 56 104
41 -58 -10 -113 -34 -174 -96 -242 l-35 -39 38 -13 c37 -12 38 -11 71 27 19
21 46 64 60 94 24 50 27 70 33 235 8 204 11 217 104 411 110 230 138 319 194
622 17 89 38 177 47 194 9 18 27 62 41 98 20 55 22 59 18 25 -3 -22 -21 -160
-40 -307 -55 -426 -74 -514 -164 -765 -27 -76 -53 -156 -57 -178 -4 -22 -11
-45 -16 -51 -9 -12 -19 -104 -21 -184 -2 -122 -19 -286 -34 -314 -8 -17 -31
-53 -50 -79 -19 -27 -33 -50 -31 -52 2 -1 20 -5 40 -9 32 -6 39 -3 49 15 11
21 12 21 21 4 15 -27 3 -152 -21 -217 -12 -31 -35 -76 -51 -100 l-29 -43 22
-7 c62 -18 83 1 137 122 24 52 25 63 21 190 -3 74 -5 205 -4 290 0 137 3 165
27 245 38 131 105 394 111 440 3 22 17 99 30 170 34 177 41 238 60 470 9 110
23 250 31 310 7 61 14 126 14 145 l0 35 -19 -29 c-11 -17 -17 -34 -14 -39 3
-6 1 -7 -4 -4 -6 4 -18 -14 -28 -41 -24 -65 -38 -77 -31 -27 4 24 -3 11 -17
-35 -13 -41 -38 -104 -56 -140 -28 -54 -35 -81 -42 -165 -4 -55 -8 -101 -9
-102 0 -2 -16 -21 -35 -42 -34 -38 -35 -40 -15 -46 27 -9 25 -20 -37 -175 -40
-102 -92 -213 -79 -168 3 9 35 147 71 305 81 355 114 477 166 628 22 64 38
119 35 122 -2 3 -16 -17 -29 -44z m-12 -1153 c-19 -85 -113 -345 -122 -337 -8
9 20 105 69 232 52 135 66 162 53 105z"/>
<path d="M2463 3083 c0 -9 4 -10 14 -2 7 6 13 12 13 14 0 1 -6 2 -13 2 -8 0
-14 -6 -14 -14z"/>
<path d="M6380 3086 c0 -2 8 -10 18 -17 15 -13 16 -12 3 4 -13 16 -21 21 -21
13z"/>
<path d="M2436 3063 c-6 -14 -5 -15 5 -6 7 7 10 15 7 18 -3 3 -9 -2 -12 -12z"/>
<path d="M4025 3052 c2 -31 122 -216 246 -378 42 -55 90 -125 107 -155 28 -49
92 -200 92 -216 0 -16 -251 334 -368 512 -68 104 -100 146 -65 85 76 -133 152
-250 322 -495 300 -435 366 -556 486 -890 69 -191 90 -235 164 -339 69 -98
280 -319 278 -291 -1 14 3 19 16 17 9 -2 17 2 17 8 0 6 5 8 10 5 6 -3 10 -2
10 3 0 5 -46 54 -102 108 -202 195 -228 234 -334 498 -26 66 -58 140 -70 165
l-23 46 24 20 c21 18 23 24 15 67 -16 82 -37 116 -138 222 -108 111 -135 152
-182 266 l-30 75 33 -40 c68 -84 76 -86 15 -5 -35 47 -67 92 -70 100 -3 8 -14
33 -23 55 -9 22 -15 38 -12 35 2 -3 24 -27 47 -55 24 -27 46 -50 49 -50 3 0
13 -5 21 -10 8 -5 -12 22 -45 60 -33 39 -65 73 -72 78 -6 4 -42 51 -80 104
-110 156 -123 174 -226 301 -54 67 -102 122 -106 122 -4 0 -7 -13 -6 -28z
m221 -308 c9 -13 14 -24 11 -24 -13 0 -211 282 -224 318 -5 14 163 -217 213
-294z m522 -804 c27 -40 44 -101 40 -143 -3 -30 -6 -26 -52 58 -27 50 -64 114
-82 143 -19 29 -34 55 -34 58 0 13 106 -84 128 -116z"/>
<path d="M2396 3062 c-3 -5 1 -9 9 -9 8 0 12 4 9 9 -3 4 -7 8 -9 8 -2 0 -6 -4
-9 -8z"/>
<path d="M3271 3013 c-49 -98 -127 -281 -196 -458 -242 -620 -311 -756 -534
-1049 -102 -134 -154 -214 -146 -225 3 -5 -15 -49 -39 -98 -35 -68 -50 -114
-66 -202 -12 -62 -19 -116 -16 -119 3 -3 0 -12 -7 -20 -8 -11 -8 -14 0 -9 6 4
13 4 16 0 2 -5 2 -3 1 4 -2 6 5 17 14 25 15 11 15 11 6 -2 -8 -9 -9 -23 -3
-37 11 -31 17 -29 12 5 l-3 27 11 -25 c7 -14 11 -29 10 -33 -1 -5 3 -6 8 -3 5
4 12 0 15 -6 4 -9 5 -8 4 2 -1 8 2 22 5 30 3 8 13 73 22 144 26 213 63 296
250 561 194 274 243 379 430 920 59 171 138 381 175 468 37 86 66 157 64 157
-2 0 -17 -26 -33 -57z m-853 -1713 c-7 -10 -14 -17 -17 -15 -4 4 18 35 25 35
2 0 -1 -9 -8 -20z m-62 -477 c-10 -11 -19 -7 -22 10 -2 15 0 16 12 6 8 -6 12
-14 10 -16z"/>
<path d="M3854 3039 c22 -81 47 -218 55 -306 7 -79 17 -121 45 -189 27 -66 36
-103 36 -145 0 -52 2 -57 20 -52 36 10 27 77 -25 179 -47 94 -65 163 -65 247
0 70 22 48 28 -28 4 -52 6 -55 22 -40 16 15 19 11 38 -62 12 -43 28 -134 37
-203 19 -152 34 -203 91 -300 61 -107 75 -144 77 -211 1 -59 8 -68 37 -49 10
6 14 25 13 63 -2 61 -24 112 -83 192 -74 98 -93 158 -105 330 -8 113 -27 195
-71 308 -42 109 -42 120 -2 42 56 -110 169 -315 174 -315 3 0 0 9 -6 21 -7 11
-10 23 -7 25 3 3 19 -30 37 -73 18 -43 68 -142 111 -220 207 -371 274 -541
349 -877 45 -203 62 -255 117 -356 43 -80 223 -336 241 -344 8 -4 10 -1 6 6
-5 8 -2 9 10 5 9 -4 15 -3 11 2 -3 5 11 15 30 21 34 11 34 12 21 38 -8 15 -68
85 -135 156 -175 185 -185 207 -286 649 -66 290 -140 446 -409 862 -158 245
-209 332 -282 476 -58 116 -84 159 -67 112 3 -10 -5 -3 -18 16 -30 43 -55 54
-45 20z"/>
<path d="M6503 3026 c5 -15 24 -18 24 -3 0 8 -6 14 -14 14 -7 0 -12 -5 -10
-11z"/>
<path d="M3586 2999 c-3 -17 -6 -75 -6 -128 0 -97 -9 -137 -60 -276 -20 -52
-23 -83 -25 -225 -1 -97 -7 -174 -13 -186 -7 -14 -8 -24 -1 -31 14 -14 40
-137 41 -193 1 -39 -12 -79 -50 -152 -2 -5 9 -8 25 -8 21 0 33 8 46 29 26 44
40 133 28 178 -6 21 -14 73 -20 117 -10 84 -7 112 35 296 39 175 52 361 38
533 -7 81 -26 104 -38 46z m-39 -471 c-3 -8 -6 -5 -6 6 -1 11 2 17 5 13 3 -3
4 -12 1 -19z"/>
<path d="M3698 3002 c-4 -12 -12 -21 -20 -20 -16 4 -29 -133 -16 -170 12 -36
9 -150 -7 -222 -20 -92 -18 -128 11 -222 30 -93 32 -143 10 -187 -20 -38 -20
-41 3 -41 31 0 47 78 32 159 -32 173 -35 200 -23 223 11 23 11 23 11 -4 1 -15
5 -30 11 -33 6 -4 7 1 3 12 -4 12 -3 15 4 8 11 -12 71 -329 110 -585 31 -204
37 -485 15 -680 -7 -63 -15 -127 -16 -143 -1 -15 -6 -30 -10 -35 -4 -4 -7 -2
-6 3 5 21 0 36 -10 30 -6 -4 -8 -10 -5 -15 3 -5 2 -11 -3 -14 -4 -2 -8 6 -8
19 0 13 3 22 6 20 4 -2 7 2 7 10 0 8 -4 12 -8 9 -4 -2 -9 2 -12 8 -3 7 -5 4
-5 -7 0 -11 -6 -59 -12 -107 -9 -65 -10 -109 -2 -178 14 -116 81 -362 96 -353
16 10 46 11 52 1 9 -14 24 2 25 25 0 18 3 16 15 -10 8 -18 17 -33 20 -33 3 0
3 4 0 9 -3 5 10 8 29 8 33 -1 36 -5 47 -42 17 -58 31 -68 26 -18 -3 32 0 42
12 42 54 3 70 6 70 11 0 4 -9 31 -19 61 -33 94 -33 95 2 30 23 -44 36 -59 40
-48 10 25 42 14 39 -14 -2 -16 0 -20 6 -11 6 9 12 1 21 -28 15 -51 38 -54 32
-4 -1 6 7 17 16 25 15 11 16 11 6 -1 -18 -20 -16 -35 3 -19 21 17 15 41 -41
182 -71 180 -94 280 -105 457 -6 85 -15 224 -21 309 -17 265 -46 393 -202 901
-98 318 -109 356 -148 544 -28 136 -48 192 -44 124 3 -52 -8 -57 -20 -8 -9 38
-12 41 -17 22z m46 -118 c2 -11 11 -59 21 -109 15 -85 81 -373 159 -695 81
-341 93 -432 106 -800 8 -251 22 -372 50 -444 9 -26 8 -32 -11 -50 -13 -12
-17 -14 -10 -4 8 11 9 18 1 23 -5 3 -10 0 -11 -7 0 -7 -5 -2 -10 11 -5 14 -7
31 -4 38 2 8 1 12 -4 9 -19 -12 -34 157 -28 325 9 225 -7 463 -42 636 -30 146
-122 505 -129 499 -2 -2 15 -91 37 -197 81 -394 93 -550 66 -889 -20 -253 -16
-333 20 -476 14 -54 23 -99 21 -101 -6 -6 -64 142 -79 202 -24 97 -28 166 -17
313 17 239 21 384 10 377 -5 -3 -10 1 -10 10 0 10 5 14 13 9 9 -5 9 -4 1 5 -7
7 -9 42 -7 91 3 44 0 80 -5 80 -4 0 -7 13 -4 28 4 32 -36 278 -79 483 -44 212
-79 429 -78 489 1 42 3 49 9 30 4 -14 6 12 3 60 -5 75 1 105 11 54z"/>
<path d="M4054 842 c3 -5 2 -12 -4 -14 -6 -2 -1 -9 10 -16 12 -7 20 -8 20 -2
0 5 -5 10 -11 10 -5 0 -8 4 -4 9 3 5 0 13 -6 17 -7 4 -9 3 -5 -4z"/>
<path d="M2163 2976 c6 -12 10 -25 9 -30 -2 -5 4 -4 12 4 9 7 16 22 15 34 -1
19 -2 18 -9 -4 -7 -20 -14 -13 -12 11 1 3 -5 6 -13 6 -11 0 -12 -4 -2 -21z"/>
<path d="M2213 2985 c-3 -9 -3 -19 1 -22 3 -4 6 1 6 11 0 10 5 14 12 10 7 -4
8 -3 4 4 -10 16 -15 15 -23 -3z"/>
<path d="M4276 2925 c9 -14 21 -25 27 -25 6 0 0 11 -13 25 -13 14 -25 25 -27
25 -2 0 4 -11 13 -25z"/>
<path d="M4480 2896 c0 -2 8 -10 18 -17 15 -13 16 -12 3 4 -13 16 -21 21 -21
13z"/>
<path d="M4520 2868 c0 -3 54 -46 120 -97 249 -193 349 -296 492 -506 139
-204 199 -262 388 -373 110 -64 183 -135 225 -215 17 -31 33 -57 36 -57 3 0
18 13 33 29 l27 28 -28 68 c-41 100 -100 154 -267 245 -75 41 -162 95 -192
120 -52 44 -75 68 -251 271 -97 111 -199 205 -343 315 -120 92 -240 178 -240
172z"/>
<path d="M1128 2842 c-10 -2 -18 -7 -18 -12 0 -5 -6 -7 -14 -4 -8 3 -46 -11
-85 -30 -66 -34 -85 -56 -61 -71 5 -3 7 -13 4 -23 -5 -14 -4 -15 5 -2 6 8 11
12 11 7 0 -11 60 22 60 33 0 5 7 7 15 4 8 -4 15 -1 15 7 0 7 3 9 6 6 4 -3 16
-1 28 5 20 12 25 13 54 16 6 1 12 7 12 12 0 6 -6 9 -12 8 -7 -2 -12 3 -10 11
3 12 0 12 -12 1 -10 -8 -16 -9 -16 -2 0 11 27 30 43 30 5 0 11 2 13 5 5 5 -14
4 -38 -1z m-26 -32 c3 -25 2 -30 -6 -29 -5 0 -13 -5 -18 -13 -6 -9 -7 -5 -3
11 5 16 4 21 -4 17 -6 -4 -11 -13 -11 -21 0 -8 -5 -17 -11 -21 -8 -4 -9 1 -4
17 5 19 2 17 -14 -8 -25 -40 -54 -56 -69 -41 -26 26 2 59 28 35 10 -10 12 -8
7 6 -4 11 -3 16 3 12 6 -3 10 0 10 7 0 9 3 9 10 -2 8 -13 10 -12 10 3 0 9 5
18 10 18 6 1 14 2 19 3 5 0 13 4 17 9 10 10 24 9 26 -3z m33 -20 c3 -5 1 -10
-4 -10 -6 0 -11 5 -11 10 0 6 2 10 4 10 3 0 8 -4 11 -10z"/>
<path d="M1086 2797 c3 -10 9 -15 12 -12 3 3 0 11 -7 18 -10 9 -11 8 -5 -6z"/>
<path d="M1006 2754 c-5 -13 -9 -14 -20 -5 -11 9 -16 9 -21 1 -14 -23 11 -31
36 -11 13 10 21 22 18 26 -4 3 -9 -2 -13 -11z"/>
<path d="M4440 2765 c8 -11 33 -39 55 -63 22 -24 39 -47 38 -52 -2 -5 5 -6 13
-3 12 4 15 2 12 -8 -6 -19 -44 -18 -40 1 2 8 0 12 -4 8 -4 -4 -14 -2 -23 4 -9
7 -5 0 8 -14 13 -15 28 -25 32 -22 5 3 9 -1 9 -9 0 -8 35 -51 77 -96 76 -81
77 -81 102 -64 25 16 25 16 120 -83 171 -177 309 -353 295 -375 -3 -5 2 -9 11
-9 9 0 13 -4 10 -10 -3 -5 0 -10 7 -10 10 0 10 -2 -1 -9 -8 -5 -11 -16 -8 -25
3 -8 1 -18 -6 -22 -7 -4 -9 -4 -5 0 4 5 3 19 -3 33 -6 17 -6 22 3 17 7 -4 8
-3 4 5 -6 8 -12 9 -20 2 -7 -6 -16 -8 -19 -5 -44 44 155 -300 239 -412 51 -70
144 -159 214 -207 19 -13 72 -49 118 -80 78 -53 121 -67 90 -29 -11 13 -11 15
2 7 36 -20 40 -26 25 -42 -16 -15 -11 -38 6 -27 5 3 7 10 4 15 -4 5 1 12 9 15
18 7 -10 32 -164 149 -52 40 -102 80 -110 91 -9 11 -2 9 20 -8 55 -41 250
-159 249 -151 -4 22 2 32 15 27 19 -7 28 -32 14 -40 -6 -4 -8 -3 -4 4 3 6 2
13 -3 16 -16 11 -5 -26 12 -39 9 -7 14 -15 10 -18 -3 -4 -1 -7 5 -7 15 0 15
13 1 27 -8 8 -7 13 2 18 8 5 10 4 5 -3 -4 -7 -2 -12 5 -12 7 0 9 -10 6 -27 -5
-26 -4 -26 9 -9 7 10 11 23 7 29 -3 5 8 -1 25 -13 34 -25 53 -23 28 3 -8 8
-12 18 -8 22 4 5 2 5 -4 2 -6 -3 -18 2 -26 12 -9 11 -65 45 -124 76 -235 125
-324 202 -432 371 -34 54 -95 151 -135 214 -40 63 -92 140 -116 170 -23 30
-60 78 -80 105 -39 51 -280 291 -381 381 -30 26 -91 82 -134 124 -44 41 -73
66 -66 55z m140 -157 c11 -22 10 -22 -4 -4 -15 19 -16 19 -16 1 0 -10 -3 -16
-6 -12 -7 6 2 37 10 37 3 0 10 -10 16 -22z m547 -690 c-3 -7 -5 -2 -5 12 0 14
2 19 5 13 2 -7 2 -19 0 -25z m673 -618 c0 -5 -7 -7 -15 -4 -8 4 -15 8 -15 10
0 2 7 4 15 4 8 0 15 -4 15 -10z"/>
<path d="M6849 2768 c0 -2 -2 -11 -4 -21 -3 -15 -1 -16 11 -6 7 6 11 15 8 20
-5 9 -13 12 -15 7z"/>
<path d="M915 2741 c-3 -5 -1 -12 4 -15 5 -4 8 -17 7 -31 -2 -13 1 -22 5 -19
7 4 6 34 -1 54 -2 3 -2 8 -1 13 1 10 -7 9 -14 -2z"/>
<path d="M1605 2731 c-3 -5 -2 -12 3 -15 5 -3 9 1 9 9 0 17 -3 19 -12 6z"/>
<path d="M4135 2660 c9 -16 18 -30 21 -30 2 0 -2 14 -11 30 -9 17 -18 30 -21
30 -2 0 2 -13 11 -30z"/>
<path d="M885 2660 c6 -10 4 -12 -11 -6 -15 6 -17 5 -6 -5 9 -9 15 -10 23 -2
8 8 7 13 -2 18 -8 6 -10 4 -4 -5z"/>
<path d="M846 2637 c3 -10 9 -15 12 -12 3 3 0 11 -7 18 -10 9 -11 8 -5 -6z"/>
<path d="M1562 2616 c7 -8 15 -12 17 -11 5 6 -10 25 -20 25 -5 0 -4 -6 3 -14z"/>
<path d="M4170 2600 c6 -11 13 -20 16 -20 2 0 0 9 -6 20 -6 11 -13 20 -16 20
-2 0 0 -9 6 -20z"/>
<path d="M1539 2593 c-13 -16 -12 -17 4 -4 16 13 21 21 13 21 -2 0 -10 -8 -17
-17z"/>
<path d="M1165 2573 c-66 -34 -142 -91 -248 -186 -70 -63 -85 -82 -77 -93 7
-7 8 -19 4 -26 -5 -7 16 7 44 32 29 25 83 71 120 102 37 32 95 74 129 94 35
20 60 40 58 45 -3 4 -1 10 5 14 5 3 10 1 10 -5 0 -6 5 -8 11 -4 8 4 7 9 -2 15
-7 4 -17 5 -21 3 -16 -10 -8 9 10 22 26 20 13 16 -43 -13z m21 -28 c1 -8 -2
-15 -6 -15 -5 0 -8 9 -7 20 1 21 10 18 13 -5z m-29 -17 c-3 -7 -5 -2 -5 12 0
14 2 19 5 13 2 -7 2 -19 0 -25z m-20 -10 c-3 -8 -6 -5 -6 6 -1 11 2 17 5 13 3
-3 4 -12 1 -19z"/>
<path d="M1249 2588 c-5 -18 -6 -38 -1 -34 7 8 12 36 6 36 -2 0 -4 -1 -5 -2z"/>
<path d="M1360 2550 c0 -11 2 -20 4 -20 2 0 6 9 9 20 3 11 1 20 -4 20 -5 0 -9
-9 -9 -20z"/>
<path d="M1270 2536 c-102 -42 -157 -75 -231 -135 -135 -109 -150 -124 -138
-141 9 -12 10 -11 4 5 -4 14 -3 17 5 9 6 -6 12 -24 13 -41 2 -37 -1 -39 107
61 82 76 201 157 268 182 23 9 42 21 42 26 0 5 4 6 10 3 5 -3 20 0 32 7 13 7
26 12 30 13 3 0 10 3 14 7 3 4 -3 6 -15 3 -12 -2 -21 1 -21 8 -1 7 -7 1 -15
-13 -8 -14 -14 -19 -15 -12 0 7 -4 11 -9 8 -5 -4 -7 3 -4 14 7 26 -8 25 -77
-4z m61 1 c-6 -8 -7 -18 -3 -22 4 -5 1 -5 -6 -1 -10 6 -10 11 -1 22 6 8 14 14
16 14 3 0 0 -6 -6 -13z"/>
<path d="M5020 2546 c0 -2 8 -10 18 -17 15 -13 16 -12 3 4 -13 16 -21 21 -21
13z"/>
<path d="M4220 2520 c6 -11 13 -20 16 -20 2 0 0 9 -6 20 -6 11 -13 20 -16 20
-2 0 0 -9 6 -20z"/>
<path d="M6690 2365 c0 -8 2 -15 4 -15 2 0 6 7 10 15 3 8 1 15 -4 15 -6 0 -10
-7 -10 -15z"/>
<path d="M2910 2262 c0 -6 -10 -9 -21 -7 -12 3 -19 2 -15 -2 3 -3 0 -13 -6
-21 -16 -18 -21 -49 -6 -34 6 6 17 8 24 5 17 -6 18 9 3 24 -8 8 -8 13 0 17 6
4 11 1 11 -6 0 -8 5 -6 11 5 6 10 8 21 5 24 -3 4 -6 1 -6 -5z m-26 -40 c3 -5
-1 -9 -9 -9 -8 0 -12 4 -9 9 3 4 7 8 9 8 2 0 6 -4 9 -8z"/>
<path d="M4610 2246 c0 -2 8 -10 18 -17 15 -13 16 -12 3 4 -13 16 -21 21 -21
13z"/>
<path d="M2946 1875 c-9 -26 -7 -32 5 -12 6 10 9 21 6 23 -2 3 -7 -2 -11 -11z"/>
<path d="M4906 1779 c20 -46 58 -142 85 -214 80 -207 131 -295 229 -395 98
-100 220 -210 233 -210 4 0 6 -4 2 -9 -3 -5 0 -13 6 -17 8 -4 9 -3 5 4 -4 7
-3 12 3 12 5 0 12 8 15 18 3 9 4 5 2 -10 -2 -15 1 -25 5 -22 5 3 9 17 10 32 0
24 1 25 9 7 5 -11 9 -14 9 -6 1 11 4 11 18 0 16 -13 16 -11 -1 16 -20 33 -144
154 -150 147 -3 -2 -9 5 -15 16 -8 16 -7 23 7 33 15 12 15 12 5 -1 -8 -10 -9
-21 -3 -30 8 -13 10 -12 10 2 0 9 4 19 9 22 5 4 7 -4 4 -16 -4 -19 -3 -20 7
-8 9 12 10 11 5 -7 -3 -12 -1 -24 4 -28 7 -3 8 0 5 9 -3 9 -3 16 0 16 4 0 11
-10 16 -22 7 -20 9 -20 9 -4 1 16 3 17 19 5 9 -8 -33 36 -94 96 -124 124 -165
181 -236 333 -28 59 -54 108 -59 110 -4 2 -6 9 -3 16 3 8 -2 21 -11 30 -9 9
-14 16 -10 16 3 0 -3 13 -14 29 -11 15 -18 30 -16 33 3 3 -2 5 -10 5 -13 0
-13 -3 2 -19 9 -10 14 -21 11 -24 -3 -3 -15 7 -27 22 -11 15 -21 22 -21 16 0
-6 5 -14 10 -17 6 -4 7 -11 4 -17 -4 -6 -10 -5 -16 3 -8 11 -9 11 -5 -1 2 -8
10 -14 16 -12 6 1 11 -5 11 -14 0 -8 -4 -12 -10 -9 -6 3 -7 -1 -4 -9 6 -16 25
-23 23 -8 -1 4 -1 16 1 27 l1 20 9 -20 9 -20 1 20 c1 15 3 16 7 5 3 -8 13 -24
22 -35 15 -19 15 -19 -3 -5 -18 14 -19 13 -13 -2 3 -9 -1 -22 -9 -28 -8 -7
-14 -17 -14 -22 0 -20 64 -157 72 -152 4 3 5 -3 1 -13 -6 -16 -5 -17 12 -3 17
14 17 14 5 -7 -13 -21 -20 -10 -117 180 -57 111 -108 206 -113 211 -5 5 6 -28
26 -75z m221 -254 c0 -8 -4 -12 -9 -9 -5 3 -6 10 -3 15 9 13 12 11 12 -6z m20
-120 c0 -8 -4 -12 -9 -9 -5 3 -6 10 -3 15 9 13 12 11 12 -6z m223 -209 c0 -2
-8 -10 -17 -17 -16 -13 -17 -12 -4 4 13 16 21 21 21 13z"/>
<path d="M4626 1835 c4 -11 22 -63 41 -115 19 -52 54 -177 78 -276 45 -186 75
-272 115 -334 12 -19 19 -26 15 -15 -11 30 -8 53 9 71 9 8 16 11 16 6 0 -5 -3
-12 -7 -16 -4 -3 -8 -14 -9 -22 -1 -9 1 -13 4 -9 4 4 8 11 8 16 1 5 2 12 3 16
0 4 8 -2 16 -13 9 -10 0 13 -19 51 -18 39 -47 106 -64 150 -85 222 -148 376
-178 440 -19 38 -31 61 -28 50z"/>
<path d="M2883 1737 c-29 -56 -106 -187 -172 -290 -66 -103 -124 -202 -130
-220 -12 -39 -17 -46 116 168 103 165 249 432 241 440 -2 2 -27 -42 -55 -98z"/>
<path d="M5016 1699 c2 -4 0 -10 -5 -14 -6 -3 -7 -13 -4 -21 4 -11 9 -12 16
-5 15 15 16 48 1 48 -7 0 -11 -4 -8 -8z"/>
<path d="M5567 1693 c6 -16 5 -17 -13 -3 -18 14 -18 14 -5 -3 13 -16 12 -18
-12 -13 l-27 5 19 -27 c10 -15 37 -57 61 -94 23 -38 46 -68 51 -68 4 0 11 -9
14 -20 3 -11 11 -20 18 -20 8 0 8 3 -1 12 -17 17 -15 33 2 19 17 -14 29 0 20
22 -6 17 10 18 36 3 8 -5 2 5 -14 22 -17 18 -33 32 -38 32 -9 0 -5 -32 8 -64
5 -14 4 -17 -4 -12 -7 4 -12 15 -13 24 0 14 -2 13 -9 -3 l-9 -20 0 20 c-1 17
-3 17 -11 5 -12 -18 -12 -2 0 25 8 18 9 18 9 2 1 -10 5 -16 11 -12 5 3 7 12 4
19 -3 8 -1 17 5 21 7 4 -11 34 -45 76 -59 72 -68 80 -57 52z m17 -22 c3 -4 -4
-17 -17 -27 -12 -10 -19 -15 -15 -10 4 5 0 15 -10 23 -15 11 -15 12 -1 7 10
-3 20 -1 24 5 8 13 12 14 19 2z m115 -134 c8 -10 7 -14 -2 -14 -8 0 -14 6 -14
14 0 7 1 13 2 13 2 0 8 -6 14 -13z"/>
<path d="M3811 1114 c0 -11 3 -14 6 -6 3 7 2 16 -1 19 -3 4 -6 -2 -5 -13z"/>
<path d="M4949 1088 c10 -28 1 -45 -18 -34 -5 4 -12 1 -14 -4 -3 -6 -4 -5 -3
2 2 7 12 12 22 11 10 -1 13 0 6 3 -6 3 -10 9 -8 13 3 4 -1 8 -9 8 -8 0 -13 -5
-12 -10 1 -5 -4 -12 -12 -15 -9 -3 -11 0 -6 8 5 9 4 11 -4 6 -13 -9 17 -55
136 -208 77 -99 105 -129 88 -95 -4 6 0 3 9 -7 8 -10 17 -24 19 -29 4 -13 67
10 67 25 0 31 -64 120 -160 223 -30 33 -68 76 -83 95 -25 32 -27 33 -18 8z"/>
<path d="M4630 815 c-10 -12 -10 -18 -1 -29 7 -9 8 -17 2 -20 -5 -3 -12 0 -14
6 -3 7 -6 1 -6 -14 -1 -16 4 -28 10 -28 5 0 8 4 5 9 -3 5 1 14 9 21 11 9 12
16 4 26 -6 7 -7 19 -3 25 5 9 10 7 15 -7 6 -16 8 -16 8 -2 1 24 -14 31 -29 13z"/>
<path d="M4601 804 c0 -11 3 -14 6 -6 3 7 2 16 -1 19 -3 4 -6 -2 -5 -13z"/>
<path d="M3257 769 c4 -13 8 -18 11 -10 2 7 -1 18 -6 23 -8 8 -9 4 -5 -13z"/>
<path d="M4660 750 c0 -20 -2 -22 -10 -10 -5 8 -10 11 -10 5 0 -19 16 -34 28
-26 9 5 10 14 3 32 l-10 24 -1 -25z"/>
<path d="M4620 709 c0 -5 5 -7 10 -4 6 3 10 8 10 11 0 2 -4 4 -10 4 -5 0 -10
-5 -10 -11z"/>
</g>
</svg>
